<svg xmlns="http://www.w3.org/2000/svg" viewBox="0 0 149.89 165.31"><defs><style>.cls-1{isolation:isolate;}.cls-2{fill:#659b2e;}.cls-3{fill:#161615;}.cls-4{fill:#32833b;}.cls-5{fill:#a6501d;}.cls-6{fill:#7c2f1b;opacity:0.5;}.cls-11,.cls-16,.cls-17,.cls-6{mix-blend-mode:multiply;}.cls-7{fill:#ede2be;}.cls-8{fill:#e9c389;}.cls-9{fill:#916142;}.cls-10,.cls-11{fill:#b2a35a;}.cls-12{fill:#f4cea6;}.cls-13{fill:#804b23;}.cls-14{fill:#281806;}.cls-15{fill:#c5c5a6;}.cls-16{fill:#92947f;}.cls-18{fill:#503120;}.cls-19{fill:#e87f86;}.cls-20{fill:#e05373;}.cls-21{fill:#572c80;}.cls-22{fill:#dfdcc1;}.cls-23{fill:#acabab;}.cls-24{fill:#3a2c1c;}</style></defs><title>Ativo 1</title><g class="cls-1"><g id="Camada_2" data-name="Camada 2"><g id="Layer_1" data-name="Layer 1"><path class="cls-2" d="M81.41,93.84s9.55-1.12,11.06,6.5c0,0,3.46-8-1-10.46,0,0,10,.37,6.16,12.71,0,0,4.36-6.49,10.75-4.33,0,0-7.44,2.71-10.32,9.53a8.39,8.39,0,0,1,9.94-1.38s-7.13.12-10.5,6.69L87,107.68S90.73,94.68,81.41,93.84Z"/><path class="cls-3" d="M97.41,113.32,86.83,107.9a.26.26,0,0,1-.12-.29c0-.07,2-7.12-.63-11a6,6,0,0,0-4.69-2.53.24.24,0,0,1-.22-.24.25.25,0,0,1,.21-.25s.5,0,1.26,0c2.51,0,8.31.58,9.88,6,.71-2,2.28-7.49-1.15-9.42a.24.24,0,0,1-.12-.28.26.26,0,0,1,.25-.18,8.19,8.19,0,0,1,5.93,3.12c1.48,2.09,1.75,5,.8,8.71,1.25-1.43,3.92-3.88,7.54-3.89a8.57,8.57,0,0,1,2.71.46.25.25,0,0,1,.17.23.27.27,0,0,1-.16.24c-.07,0-6.61,2.46-9.69,8.36a8.72,8.72,0,0,1,5.14-1.77,9,9,0,0,1,4.2,1.1.23.23,0,0,1,.12.27.24.24,0,0,1-.23.19c-.07,0-7,.2-10.29,6.57a.24.24,0,0,1-.14.12h-.08A.23.23,0,0,1,97.41,113.32Zm6.53-7.74A8.59,8.59,0,0,0,98.26,108a.24.24,0,0,1-.31,0,.27.27,0,0,1-.1-.31c2.39-5.65,7.92-8.54,9.82-9.38a7.79,7.79,0,0,0-1.9-.24c-4.73,0-7.88,4.61-7.91,4.66a.25.25,0,0,1-.44-.21c1.28-4.11,1.15-7.3-.39-9.48a7.33,7.33,0,0,0-4.59-2.78c3.31,3,.39,9.87.25,10.18a.24.24,0,0,1-.25.15.27.27,0,0,1-.22-.2c-1-5.14-5.86-6.18-8.66-6.34a6.08,6.08,0,0,1,2.93,2.28c2.56,3.75,1.07,10,.75,11.22l10.18,5.22a12.93,12.93,0,0,1,9.69-6.52A8,8,0,0,0,103.94,105.58Z"/><path class="cls-4" d="M110.47,112.38A9.9,9.9,0,0,0,98.38,109s4.72-6.33,8.85-4.35c0,0-6.31-4.4-12,2.29,0,0,2.84-7.53-1.5-10.72,0,0,1,6.2-1.71,10.37,0,0,.84-3-2.92-6.49a10.31,10.31,0,0,1-.14,8.67l9.5,4.87S104.61,106.74,110.47,112.38Z"/><path class="cls-3" d="M98.38,113.82,88.89,109a.25.25,0,0,1-.11-.33,10.2,10.2,0,0,0,.14-8.46.24.24,0,0,1,.08-.3.23.23,0,0,1,.31,0c2.46,2.31,3,4.39,3.08,5.61,2-4,1.15-9.21,1.14-9.27a.24.24,0,0,1,.11-.24.24.24,0,0,1,.28,0c3.48,2.56,2.54,7.68,1.92,9.92a9.13,9.13,0,0,1,6.54-3,9.43,9.43,0,0,1,5,1.46.24.24,0,0,1,.07.33.23.23,0,0,1-.32.1,3.6,3.6,0,0,0-1.59-.36c-2.64,0-5.29,2.68-6.4,4a11.5,11.5,0,0,1,3.35-.55,10.27,10.27,0,0,1,8.19,4.36.24.24,0,0,1,0,.32.25.25,0,0,1-.33,0,6.91,6.91,0,0,0-4.87-2.16c-3.7,0-6.71,3.33-6.74,3.37a.25.25,0,0,1-.3,0Zm10.2-3.13a9.27,9.27,0,0,0-6.1-2.3,11.14,11.14,0,0,0-4,.8.25.25,0,0,1-.29-.08.24.24,0,0,1,0-.3c.15-.19,3.56-4.71,7.21-4.83a8.48,8.48,0,0,0-9.93,3.08.26.26,0,0,1-.32,0,.24.24,0,0,1-.1-.3c0-.07,2.51-6.81-.94-10,.17,1.7.41,6.45-1.83,9.92a.25.25,0,0,1-.31.09.24.24,0,0,1-.13-.29s.61-2.42-2-5.41a10.37,10.37,0,0,1-.47,7.54l9.11,4.68c.64-.67,3.46-3.38,7-3.39A6.81,6.81,0,0,1,108.58,110.69Z"/><path class="cls-2" d="M25.75,100.08s-8.11-.9-9.36,5.57c0,0-3-6.75.78-8.88,0,0-8.5.36-5.17,10.81,0,0-3.73-5.49-9.14-3.62,0,0,6.32,2.26,8.8,8a7.13,7.13,0,0,0-8.45-1.13,10.84,10.84,0,0,1,9,5.64l9-4.66S17.84,100.84,25.75,100.08Z"/><path class="cls-3" d="M11.94,116.62a10.65,10.65,0,0,0-8.73-5.5.24.24,0,0,1-.23-.19.25.25,0,0,1,.12-.28,7.56,7.56,0,0,1,3.58-1,7.39,7.39,0,0,1,4.26,1.39c-2.66-4.88-8.11-6.87-8.17-6.89a.25.25,0,0,1-.16-.24.25.25,0,0,1,.17-.23,6.89,6.89,0,0,1,2.31-.4,8.88,8.88,0,0,1,6.34,3.16c-.78-3.07-.55-5.52.68-7.28a7,7,0,0,1,5.05-2.69.24.24,0,0,1,.13.46c-2.82,1.6-1.58,6.09-.95,7.85,1.36-4.51,6.24-5,8.36-5a7.84,7.84,0,0,1,1.07,0,.24.24,0,0,1,.22.24.25.25,0,0,1-.22.25,5.06,5.06,0,0,0-3.94,2.14c-2.23,3.3-.5,9.25-.48,9.31a.24.24,0,0,1-.13.29l-8.95,4.66a.2.2,0,0,1-.11,0A.25.25,0,0,1,11.94,116.62Zm9.48-14.42a5,5,0,0,1,2.27-1.87c-2.4.19-6.25,1.17-7,5.37a.27.27,0,0,1-.22.2.24.24,0,0,1-.25-.15c-.12-.26-2.59-6,.08-8.59a6.14,6.14,0,0,0-3.74,2.34c-1.29,1.84-1.38,4.54-.28,8a.25.25,0,0,1-.12.3.27.27,0,0,1-.32-.09s-2.71-3.91-6.7-3.9A5.8,5.8,0,0,0,3.6,104c1.7.76,6.27,3.19,8.29,7.89a.27.27,0,0,1-.09.31.26.26,0,0,1-.32,0,7.27,7.27,0,0,0-4.8-2,6.8,6.8,0,0,0-2.55.52,11,11,0,0,1,8.13,5.47l8.56-4.45C20.52,110.63,19.27,105.38,21.42,102.2Z"/><path class="cls-4" d="M1.17,116a8.4,8.4,0,0,1,10.24-3s-4-5.35-7.53-3.65c0,0,5.34-3.76,10.16,1.89,0,0-2.44-6.37,1.22-9.11,0,0-.81,5.27,1.5,8.8,0,0-.72-2.51,2.45-5.53a8.82,8.82,0,0,0,.16,7.37l-8,4.18S6.11,111.14,1.17,116Z"/><path class="cls-3" d="M11.15,117.1s-2.58-2.82-5.71-2.81a5.85,5.85,0,0,0-4.1,1.84.29.29,0,0,1-.18.07A.23.23,0,0,1,.91,116a.22.22,0,0,1,.09-.19,8.59,8.59,0,0,1,6.93-3.7,9.83,9.83,0,0,1,2.73.41c-1-1.11-3.17-3.23-5.34-3.22a2.89,2.89,0,0,0-1.33.31l-.12,0a.27.27,0,0,1-.25-.25.26.26,0,0,1,.16-.23A8.14,8.14,0,0,1,8,107.87a7.69,7.69,0,0,1,5.49,2.39c-.54-2-1.26-6.18,1.63-8.33a.24.24,0,0,1,.39.23s-.64,4.36,1,7.71A7.36,7.36,0,0,1,19,105.21a.26.26,0,0,1,.32,0,.26.26,0,0,1,.07.31,8.56,8.56,0,0,0,.16,7.14.26.26,0,0,1-.1.34l-8,4.18a.22.22,0,0,1-.11,0A.24.24,0,0,1,11.15,117.1Zm7.42-10.68c-2.08,2.47-1.58,4.41-1.57,4.44a.25.25,0,0,1-.13.29.25.25,0,0,1-.31-.09c-1.89-2.88-1.76-6.81-1.62-8.34-2.78,2.77-.69,8.36-.66,8.42a.25.25,0,0,1-.11.3.24.24,0,0,1-.31,0,7.67,7.67,0,0,0-5.87-3,7.67,7.67,0,0,0-2.36.41c3.05.24,5.86,3.91,6,4.07a.24.24,0,0,1,0,.3.23.23,0,0,1-.28.08,9.42,9.42,0,0,0-3.4-.65A7.81,7.81,0,0,0,3,114.34a5.81,5.81,0,0,1,2.41-.55c3,0,5.37,2.25,6,2.84l7.65-4A8.82,8.82,0,0,1,18.57,106.42Z"/><path class="cls-5" d="M6.12,120.11c3.4,1.58,8.37,1.3,11.94.6,2.3-.46,6.15-1.53,7.13-4-.47,1.19-.9,2.37-1.07,2.68-.61,1.14-1.73,2.18-1.47,3.52.35,1.81,4.52,1.63,5.79,1.61a34.92,34.92,0,0,0,11.35-2.24A21.21,21.21,0,0,0,44,120.23c.84-.56,3-1.82,3.28-2.85-.48,1.68-1.43,3.18-2.06,4.81-.36.92-1.24,2.37-.73,3.33,1.14,2.15,5.92.06,7.47-.48a41.32,41.32,0,0,0,7.78-3.54A11.55,11.55,0,0,0,62.81,119a16.63,16.63,0,0,1,.33,3.38c0,2.15.28,4.23,2.81,2.79a10,10,0,0,0,3.39-3.55,7,7,0,0,0,1-3c7,7.52,22,5.57,27.85,4.11.8-.2-.08-1.38-.18-1.53a20.47,20.47,0,0,0-3.83-4.47A9.45,9.45,0,0,1,93,115.42a27.71,27.71,0,0,0,5.07,1.87c3.84.63,9,2,12.45-.41.17-.12-.23-.46-.31-.5-4.09-2.26-9-3-12.35-6.54-2.67-2.86-3.79-6.64-4.12-10.46-.46-5.23-.88-10.46-1.31-15.7q-.48-5.82-1-11.65l-2.3.46L18,72.6c-.12,1.55-.24,2.72-.35,4.27-.47,6.41-.9,12.82-1.42,19.22-.39,4.74-.6,9.61-2.37,14.09a16.64,16.64,0,0,1-3.12,5.23C9.26,117,7.16,118.15,6,119.92,5.94,120,6.07,120.09,6.12,120.11Z"/><path class="cls-3" d="M44.25,125.64c-.47-.89,0-2,.47-3l.25-.58c.26-.67.57-1.31.87-1.94.22-.46.45-.93.65-1.41a17.94,17.94,0,0,1-2.05,1.46l-.33.21a21.14,21.14,0,0,1-4.23,2.11,35.35,35.35,0,0,1-11.44,2.24h-1c-3.15,0-4.8-.59-5-1.82a3.76,3.76,0,0,1,1-2.81,9.57,9.57,0,0,0,.55-.87c.07-.14.21-.47.38-.9A13.76,13.76,0,0,1,18.11,121a30,30,0,0,1-5.58.56h0A15.42,15.42,0,0,1,6,120.33a.52.52,0,0,1-.27-.29.32.32,0,0,1,0-.25A13.51,13.51,0,0,1,8.6,117a21.32,21.32,0,0,0,1.92-1.72,16.14,16.14,0,0,0,3.06-5.15c1.59-4,1.92-8.33,2.25-12.54l.11-1.48c.36-4.4.68-8.87,1-13.2.14-2,.28-4,.43-6,.06-.79.12-1.49.18-2.19s.12-1.32.17-2.08a.25.25,0,0,1,.25-.23h0l71.15-.11,2.3-.45a.24.24,0,0,1,.2,0,.29.29,0,0,1,.1.18l.42,5.18c.17,2.16.35,4.32.52,6.47l.25,3c.35,4.22.69,8.45,1.06,12.67.39,4.37,1.75,7.84,4.06,10.31,2.11,2.26,5,3.39,7.77,4.48a41.38,41.38,0,0,1,4.53,2s.45.3.47.63a.33.33,0,0,1-.15.29,9,9,0,0,1-5.25,1.42,34.54,34.54,0,0,1-5.85-.69L98,117.54a21.35,21.35,0,0,1-4.15-1.47,6.25,6.25,0,0,0,.45.44,20.76,20.76,0,0,1,3.91,4.56c.29.43.64,1,.48,1.48a.65.65,0,0,1-.48.38,49.81,49.81,0,0,1-11.37,1.37c-5.12,0-12-.88-16.36-5.17a7.33,7.33,0,0,1-.94,2.61,10.21,10.21,0,0,1-3.49,3.64c-1.12.64-1.94.67-2.48.12s-.71-2-.7-3.13a15.56,15.56,0,0,0-.23-2.83,12.4,12.4,0,0,1-2.81,2.17A40.82,40.82,0,0,1,52,125.27l-.61.23a16,16,0,0,1-4.88,1.22A2.34,2.34,0,0,1,44.25,125.64Zm18.62-6.89a.23.23,0,0,1,.18.19,16.81,16.81,0,0,1,.34,3.43c0,.95,0,2.27.55,2.79s1,.29,1.89-.21a9.84,9.84,0,0,0,3.3-3.46,6.74,6.74,0,0,0,.94-2.93.25.25,0,0,1,.17-.21.23.23,0,0,1,.26.06c4.16,4.49,11.2,5.41,16.36,5.4a49.65,49.65,0,0,0,11.25-1.36c.11,0,.13-.06.13-.08s.05-.33-.42-1l0-.06A20,20,0,0,0,94,116.88a14.05,14.05,0,0,1-1.21-1.3.26.26,0,0,1,0-.31.25.25,0,0,1,.29-.08l.7.3a23,23,0,0,0,4.32,1.56l1.54.27a32.87,32.87,0,0,0,5.76.68,8.52,8.52,0,0,0,4.85-1.25c0-.06-.13-.13-.16-.16a38.69,38.69,0,0,0-4.47-2c-2.84-1.11-5.76-2.26-8-4.61-2.38-2.55-3.8-6.12-4.19-10.6q-.56-6.33-1.06-12.67l-.25-3c-.18-2.15-.35-4.31-.53-6.47l-.39-4.91-2.08.42-71,.11c-.05.66-.11,1.26-.16,1.86s-.12,1.39-.18,2.18c-.14,2-.29,4-.43,6-.31,4.33-.63,8.81-1,13.2l-.11,1.49c-.33,4.24-.67,8.64-2.27,12.68a16.75,16.75,0,0,1-3.17,5.31,21.94,21.94,0,0,1-2,1.76,14.26,14.26,0,0,0-2.63,2.57A14.84,14.84,0,0,0,12.53,121h0a29.21,29.21,0,0,0,5.49-.56c2.68-.53,6.06-1.62,6.94-3.81h0a.25.25,0,0,1,.32-.14.24.24,0,0,1,.14.32h0c-.17.42-.33.84-.48,1.22-.27.7-.49,1.27-.6,1.48a10.67,10.67,0,0,1-.57.91,3.37,3.37,0,0,0-.88,2.45c.13.65,1,1.42,4.55,1.41h1a34.7,34.7,0,0,0,11.27-2.22,21.49,21.49,0,0,0,4.13-2l.33-.22c.92-.58,2.61-1.66,2.85-2.49a.23.23,0,0,1,.3-.16.24.24,0,0,1,.17.3h0a17.63,17.63,0,0,1-1.21,2.94c-.29.61-.6,1.25-.85,1.89-.07.19-.17.39-.26.61-.38.82-.84,1.84-.48,2.51a1.84,1.84,0,0,0,1.84.82A15.29,15.29,0,0,0,51.24,125l.62-.22a41.41,41.41,0,0,0,7.74-3.52,11,11,0,0,0,3-2.46.28.28,0,0,1,.19-.09Z"/><path class="cls-6" d="M91.47,72.17c-.78,4.39-7.45,6.68-11.26,7.77a71.15,71.15,0,0,1-22.7,2.26A125.37,125.37,0,0,1,33.6,79c-4.72-1.15-9.67-2.93-13-6.36l68.59-.11,2.3-.46S91.47,72.13,91.47,72.17Z"/><path class="cls-6" d="M70.61,107.82c0-2.08,0-4.18,0-6.27.5,1.93,1.07,3.84,1.68,5.73,1.46,4.47,3.4,9,7.2,11.93a24.84,24.84,0,0,0,11.36,4.66c-6.85.59-15.64,0-20.52-5.29a7,7,0,0,1-1,3l-.09.15A69.66,69.66,0,0,0,70.61,107.82Z"/><path class="cls-6" d="M44.47,125.52c-.51-1,.37-2.41.73-3.33.63-1.63,1.58-3.13,2.06-4.81a2.22,2.22,0,0,1-.5.78,27.4,27.4,0,0,0,3.52-7.64c1.47-5.49,2.94-11.28,3.14-17a34.24,34.24,0,0,1,.48,17.94c-1.5,6.09-4.64,10.45-9,14.59A1.42,1.42,0,0,1,44.47,125.52Z"/><path class="cls-6" d="M21.27,101.82C19.07,110.07,14.45,117.46,6,120c0,0,0,0,0,0,1.18-1.77,3.28-3,4.72-4.51a16.64,16.64,0,0,0,3.12-5.23c1.77-4.48,2-9.35,2.37-14.09.52-6.4.95-12.81,1.42-19.22.11-1.55.23-2.72.35-4.27h5.35C22.47,82.35,23.82,92.22,21.27,101.82Z"/><path class="cls-6" d="M31.51,84.61c1.5,3.34,1.75,7.56,1.88,11a43.06,43.06,0,0,1-1.3,13.57c-1.62,5.54-4.74,10.55-9.45,13.62-.2-1.3.88-2.33,1.48-3.44.17-.31.6-1.49,1.07-2.68a4,4,0,0,1-1.2,1.59,34.61,34.61,0,0,0,5.93-14.71c.56-3.29.82-6.6,1.1-9.92.15-1.77.34-3.54.43-5.31C31.51,87.14,31.42,85.86,31.51,84.61Z"/><path class="cls-6" d="M93,115.42l.25.3A12.16,12.16,0,0,1,89.1,111a32.88,32.88,0,0,1-3-12.81,40.63,40.63,0,0,0,5.61,10.34c4.33,5.84,11.27,9.67,18.38,7.77l.12.07c.08,0,.48.38.31.5-3.48,2.41-8.61,1-12.45.41A27.71,27.71,0,0,1,93,115.42Z"/><path class="cls-7" d="M18,72.6c0,3.73,16.5,6.71,36.83,6.66s36.8-3.13,36.8-6.86-16.51-6.71-36.84-6.66S18,68.87,18,72.6Z"/><path class="cls-3" d="M17.71,72.6c0-4.38,18.82-7,37-7.1S91.82,68,91.83,72.4s-18.82,7-37,7.1S17.72,77,17.71,72.6Zm.5,0c0,3.14,14.7,6.47,36.58,6.41s36.55-3.47,36.55-6.61S76.63,65.93,54.75,66,18.2,69.46,18.21,72.6Z"/><path class="cls-8" d="M22.68,72.09c0,2.92,14.43,5.24,32.22,5.19s32.19-2.45,32.19-5.36-14.44-5.24-32.22-5.19S22.67,69.18,22.68,72.09Z"/><path class="cls-3" d="M22.43,72.09c0-3.45,16.49-5.56,32.44-5.61s32.45,2,32.46,5.44S70.85,77.48,54.9,77.53,22.44,75.55,22.43,72.09Zm.5,0c0,2.43,12.85,5,32,4.94s31.95-2.68,31.94-5.11-12.86-5-32-4.94S22.92,69.66,22.93,72.09Z"/><path class="cls-7" d="M30,71.52c0,1.92,11.19,3.45,25,3.41s25-1.63,25-3.55-11.2-3.45-25-3.41S30,69.59,30,71.52Z"/><path class="cls-3" d="M29.73,71.52c0-2.43,13-3.76,25.2-3.8S80.15,69,80.16,71.38s-13,3.76-25.21,3.8S29.73,73.94,29.73,71.52Zm.49,0c0,1.9,13,3.19,24.73,3.16s24.72-1.39,24.72-3.3-13-3.2-24.73-3.16S30.21,69.61,30.22,71.52Z"/><path class="cls-8" d="M38.52,71.18c0,1.28,7.41,2.29,16.55,2.27s16.55-1.08,16.54-2.36-7.41-2.28-16.55-2.26S38.51,69.91,38.52,71.18Z"/><path class="cls-3" d="M38.27,71.19c0-1.88,10-2.59,16.79-2.6s16.8.63,16.8,2.5-10,2.59-16.79,2.6S38.27,73.06,38.27,71.19Zm.49,0c0,.86,6.21,2,16.31,2s16.3-1.24,16.3-2.11-6.21-2-16.31-2S38.76,70.32,38.76,71.18Z"/><path class="cls-3" d="M85.44,96.09c1,7,2.82,14.94,8.15,20,.12.11,0,.16-.11.07-6.12-5-7.56-12.64-8.14-20.16C85.33,96,85.43,96.05,85.44,96.09Z"/><path class="cls-3" d="M70.85,106.12s.12,0,.12.08c.19,4.35.54,9-.8,13.23,0,.1-.27-.07-.25-.16A93.25,93.25,0,0,0,70.85,106.12Z"/><path class="cls-3" d="M51.05,105.92c0-.07.16,0,.16.1a17.89,17.89,0,0,1-4.44,12.35c-.07.09-.34-.13-.28-.23C48.65,114.84,50.81,109.91,51.05,105.92Z"/><path class="cls-3" d="M31.32,79.85s.12,0,.12.08c-.23,6.59-.05,13.11-1.16,19.63,0,.07-.18,0-.18-.11C30.54,92.93,30.53,86.36,31.32,79.85Z"/><path class="cls-3" d="M26.62,114A56.91,56.91,0,0,0,29,108.36c0-.08.2,0,.19.12a30.66,30.66,0,0,1-1.63,5.36,16.79,16.79,0,0,1-2.65,4.26c-.12.15-.56-.22-.47-.39C25.09,116.44,26,115.33,26.62,114Z"/><path class="cls-3" d="M79,88.55s.12,0,.13.06c.19,2.73.22,5.44.35,8.16.15,3.55.67,7,1,10.56,0,.12-.2,0-.21-.09-.39-3.08-1.21-6.15-1.37-9.25S78.92,91.71,79,88.55Z"/><path class="cls-3" d="M60.72,90.78a78.12,78.12,0,0,1,.19-9s.12,0,.12.07c.29,6.38,1,12.74-.43,19,0,.06-.16,0-.15-.08A37.76,37.76,0,0,0,60.72,90.78Z"/><path class="cls-2" d="M19.63,117.16s8-5.38,12.81.7c0,0-.57-8.67-5.67-8.85,0,0,9.08-4.27,11.31,8.46,0,0,.89-7.76,7.57-8.77,0,0-5.37,5.81-4.8,13.2A8.37,8.37,0,0,1,49,116.11a12.75,12.75,0,0,0-6.25,10.77l-11.89,0S28.3,113.63,19.63,117.16Z"/><path class="cls-3" d="M30.66,127c0-.1-2.07-10.17-8.24-10.15a7.15,7.15,0,0,0-2.69.57.18.18,0,0,1-.1,0,.28.28,0,0,1-.26-.24.26.26,0,0,1,.17-.24,14,14,0,0,1,6.93-2.2,7.44,7.44,0,0,1,5.64,2.38c-.29-2.1-1.42-7.71-5.35-7.84a.24.24,0,0,1-.23-.2.25.25,0,0,1,.13-.27,8.86,8.86,0,0,1,3.45-.71c2.83,0,6.44,1.44,8,8.14.58-2.27,2.39-7,7.53-7.76a.22.22,0,0,1,.25.13.24.24,0,0,1,0,.28s-4.76,5.23-4.78,11.89a8.53,8.53,0,0,1,7.86-4.9h.14a.24.24,0,0,1,.23.19.23.23,0,0,1-.12.27c-.06,0-6.14,3.41-6.12,10.56a.25.25,0,0,1-.25.25l-11.89,0A.25.25,0,0,1,30.66,127Zm17.5-10.58A8,8,0,0,0,41.09,122a.26.26,0,0,1-.27.17.24.24,0,0,1-.22-.22c-.47-6.12,3.11-11.22,4.41-12.85-5.8,1.37-6.67,8.36-6.68,8.43a.26.26,0,0,1-.24.22h0a.24.24,0,0,1-.24-.2c-1.3-7.41-4.92-9-7.73-9a8.38,8.38,0,0,0-2.32.34c4.33,1.16,4.87,8.59,4.9,8.93a.26.26,0,0,1-.16.25.23.23,0,0,1-.28-.08,7.07,7.07,0,0,0-5.78-2.8,12.34,12.34,0,0,0-4.82,1.15c3.07-.38,5.72,1.45,7.65,5.26a22.74,22.74,0,0,1,1.8,5l11.44,0A13,13,0,0,1,48.16,116.38Z"/><path class="cls-4" d="M54,120.3a9.89,9.89,0,0,0-12.31,2.5s1.29-7.79,5.87-7.93c0,0-7.63-1-9.58,7.53,0,0-.93-8-6.25-8.84,0,0,3.72,5,3.24,10,0,0-.61-3-5.57-4.43a10.33,10.33,0,0,1,3.85,7.77l10.67,0S46.17,118,54,120.3Z"/><path class="cls-3" d="M33,126.91a10.14,10.14,0,0,0-3.75-7.58.25.25,0,0,1-.07-.31.24.24,0,0,1,.29-.13c3.23.92,4.67,2.51,5.3,3.57-.1-4.44-3.2-8.71-3.24-8.75a.26.26,0,0,1,0-.28.25.25,0,0,1,.25-.12C36,114,37.51,119,38,121.25a8.85,8.85,0,0,1,8.76-6.66,7.13,7.13,0,0,1,.8,0,.26.26,0,0,1,.22.26.25.25,0,0,1-.24.23c-3.44.1-5,4.88-5.46,6.87a10,10,0,0,1,7.13-3.1,10.49,10.49,0,0,1,4.88,1.19.24.24,0,0,1,.1.32.23.23,0,0,1-.29.13,8.32,8.32,0,0,0-2.44-.37c-5.52,0-7.31,6.71-7.33,6.78a.24.24,0,0,1-.24.18l-10.67,0A.25.25,0,0,1,33,126.91Zm18.49-7.25h.08a10,10,0,0,0-2.33-.28A9.72,9.72,0,0,0,41.83,123a.24.24,0,0,1-.29,0,.25.25,0,0,1-.14-.26c.05-.28,1-5.83,4.19-7.6-2.39.31-6.13,1.7-7.41,7.3a.27.27,0,0,1-.26.19.26.26,0,0,1-.23-.22c0-.08-.89-7.2-5.44-8.5.93,1.44,3.33,5.55,2.93,9.65a.25.25,0,0,1-.23.23.24.24,0,0,1-.26-.2s-.56-2.43-4.28-3.87a10.37,10.37,0,0,1,3.05,6.91l10.24,0C44,125.5,46.08,119.68,51.45,119.66Z"/><path class="cls-9" d="M92.4,131.87l4.53,1.5s-3.5,4.22-11,6.24c0,0-5.76.84-8,.11C77.92,139.72,80.94,130.1,92.4,131.87Z"/><path class="cls-3" d="M77.84,140a.25.25,0,0,1-.16-.31,12.58,12.58,0,0,1,12-8.24,19.14,19.14,0,0,1,2.84.23l4.53,1.5a.25.25,0,0,1,.11.4s-3.64,4.3-11.18,6.33a45,45,0,0,1-5.2.41h0A10,10,0,0,1,77.84,140Zm8-.57a23.36,23.36,0,0,0,10.65-5.9l-4.12-1.36a17.4,17.4,0,0,0-2.73-.22,12,12,0,0,0-11.4,7.65,10.79,10.79,0,0,0,2.5.22h0a45.23,45.23,0,0,0,5.1-.39Z"/><path class="cls-9" d="M111,124.38l2.4.57s-3.59,6.21-14,7C99.32,132,102.89,124.33,111,124.38Z"/><path class="cls-3" d="M99.12,132.09a.25.25,0,0,1,0-.25c0-.07,3.7-7.68,11.74-7.7H111l2.4.57a.25.25,0,0,1,.16.36,12.26,12.26,0,0,1-3.17,3.28,20.73,20.73,0,0,1-11.06,3.84h0A.23.23,0,0,1,99.12,132.09ZM111,124.63h-.11c-6.68,0-10.23,5.51-11.09,7,8.58-.79,12.36-5.36,13.2-6.55Z"/><path class="cls-3" d="M136,147.64a.5.5,0,0,0,.33-.87c-19.74-17.09-29.51-20.81-33.68-22.39-.7-.27-1.25-.48-1.66-.68a.5.5,0,0,0-.66.23.49.49,0,0,0,.23.66c.45.22,1,.44,1.73.71,4.13,1.57,13.79,5.25,33.39,22.22A.49.49,0,0,0,136,147.64Z"/><path class="cls-3" d="M112.66,160.39a.46.46,0,0,0,.33-.13.5.5,0,0,0,0-.7c-18-19.16-28.34-29.24-31.58-30.81a.49.49,0,0,0-.66.23.51.51,0,0,0,.23.66c3.09,1.49,13.61,11.79,31.29,30.6A.48.48,0,0,0,112.66,160.39Z"/><path class="cls-10" d="M60.18,112.21s-3.34,5.93,1.42,12.8,16.32,14.71,16.32,14.71,8-7.18,19-6.35l-9-8.7L99.32,132s8.22-7,14-7A47.85,47.85,0,0,0,95,115.09c-1.92-.53-.71-5.62-2.69-5.91Z"/><path class="cls-3" d="M77.78,139.92c-.11-.08-11.66-7.94-16.39-14.77A13.52,13.52,0,0,1,58.86,116,10.55,10.55,0,0,1,60,112.09a.26.26,0,0,1,.19-.13l32.13-3c1.19.18,1.39,1.68,1.59,3.13.17,1.26.34,2.57,1.13,2.79a48.22,48.22,0,0,1,18.51,9.92.21.21,0,0,1,.08.16.24.24,0,0,1-.2.26h-.1c-5.66,0-13.74,6.87-13.82,6.94a.24.24,0,0,1-.29,0l-9.33-6,7.24,7a.27.27,0,0,1,.06.28.26.26,0,0,1-.25.15c-.6-.05-1.21-.07-1.82-.07-9.81,0-16.93,6.29-17,6.35a.23.23,0,0,1-.16.06A.23.23,0,0,1,77.78,139.92Zm18.49-6.84-8.53-8.23a.25.25,0,0,1,0-.33.24.24,0,0,1,.32-.06l11.26,7.18c1.11-.92,8-6.52,13.43-6.92a48.45,48.45,0,0,0-17.85-9.39c-1.1-.31-1.3-1.78-1.49-3.2s-.35-2.59-1.11-2.71l-31.94,3a12.39,12.39,0,0,0,1.46,12.43c4.38,6.33,14.71,13.57,16.1,14.53,1.09-.9,8-6.32,17.19-6.34C95.49,133.05,95.88,133.06,96.27,133.08Z"/><path class="cls-11" d="M86.28,121c3.72,1.92,7.46,3.82,11,6.07,1.52,1,3,2,4.51,2.94-1.49,1.07-2.46,1.9-2.46,1.9l-11-7A11.38,11.38,0,0,1,86.28,121Z"/><path class="cls-11" d="M60.18,112.21l32.08-3c.92.13,1.15,1.3,1.32,2.57-5.48,5.83-15,6.29-22.16,9.08a.5.5,0,0,0-.3.72,131.78,131.78,0,0,0,12.27,14.21l.3.29a27.35,27.35,0,0,0-5.77,3.67S66.35,131.88,61.6,125,60.18,112.21,60.18,112.21Z"/><path class="cls-10" d="M104.42,124.43a26.26,26.26,0,0,1,5.71-2,34.51,34.51,0,0,1,3.22,2.56c-5.81,0-14,7-14,7l-2.49-1.59A22.51,22.51,0,0,1,104.42,124.43Z"/><path class="cls-3" d="M99.19,132.16l-2.5-1.6a.24.24,0,0,1-.11-.16.25.25,0,0,1,0-.19,22.38,22.38,0,0,1,7.67-6,26,26,0,0,1,5.77-2,.26.26,0,0,1,.21,0,39,39,0,0,1,3.25,2.58.24.24,0,0,1,0,.27.26.26,0,0,1-.25.16c-5.66,0-13.74,6.87-13.82,6.94a.28.28,0,0,1-.16.05A.31.31,0,0,1,99.19,132.16Zm10.89-9.5a25.23,25.23,0,0,0-5.55,2,22.36,22.36,0,0,0-7.34,5.64l2.11,1.35c1.11-.92,8-6.52,13.43-6.92C112.23,124.29,111.33,123.55,110.08,122.66Z"/><path class="cls-10" d="M76.69,137.38a23.39,23.39,0,0,1,5.22-4.23c3.89-2.21,8.49-3.55,12.76-2l2.26,2.18c-11-.83-19,6.35-19,6.35s-.78-.53-2-1.43A11,11,0,0,1,76.69,137.38Z"/><path class="cls-3" d="M77.78,139.92s-.79-.54-2-1.43a.21.21,0,0,1-.1-.16.26.26,0,0,1,0-.19,8.85,8.85,0,0,1,.79-.93,23.46,23.46,0,0,1,5.27-4.27c4.74-2.69,9.21-3.38,13-2l.08,0,2.26,2.18a.27.27,0,0,1,.06.28.26.26,0,0,1-.25.15c-.6-.05-1.21-.07-1.82-.07-9.81,0-16.93,6.29-17,6.35a.23.23,0,0,1-.16.06A.23.23,0,0,1,77.78,139.92Zm18.5-6.84-1.74-1.68c-3.62-1.32-7.92-.63-12.51,2a22.81,22.81,0,0,0-5.16,4.18,8.76,8.76,0,0,0-.61.69c.8.58,1.38,1,1.64,1.16,1.09-.9,8-6.32,17.19-6.34C95.49,133.05,95.88,133.06,96.28,133.08Z"/><path class="cls-10" d="M64.55,127.15a20.75,20.75,0,0,1-3.9-6.89,16.77,16.77,0,0,1-.4-7,8.89,8.89,0,0,1,.23-1l4.27.27a13,13,0,0,1,.71,2.25,23,23,0,0,1,.3,7.27A26.44,26.44,0,0,1,64.55,127.15Z"/><path class="cls-3" d="M64.35,127.31a20.89,20.89,0,0,1-3.93-7,16.57,16.57,0,0,1-.41-7.08,9.28,9.28,0,0,1,.23-1.09.23.23,0,0,1,.26-.18l4.26.28a.24.24,0,0,1,.22.15,12.93,12.93,0,0,1,.72,2.29,23.19,23.19,0,0,1,.3,7.35,25.35,25.35,0,0,1-1.22,5.18.25.25,0,0,1-.19.17h0A.29.29,0,0,1,64.35,127.31Zm-3.68-14.82a7.55,7.55,0,0,0-.17.83,16.29,16.29,0,0,0,.39,6.88,19.84,19.84,0,0,0,3.57,6.44A25.39,25.39,0,0,0,65.51,122a22.49,22.49,0,0,0-.3-7.19,11.7,11.7,0,0,0-.63-2.06Z"/><path class="cls-3" d="M115.89,96.89a8.44,8.44,0,0,0,1.76-.17.5.5,0,0,0,.34-.61.5.5,0,0,0-.61-.35s-5,1.26-15.38-4.32C93.71,87,82.52,75.64,82.4,75.53a.49.49,0,0,0-.7,0,.5.5,0,0,0,0,.7c.11.11,11.41,11.55,19.84,16.09C108.83,96.24,113.54,96.9,115.89,96.89Z"/><path class="cls-10" d="M78.9,71.79c4.35.53,8.8,2.71,12.27,4.95a37.73,37.73,0,0,1,7.75,6.6c-1.57,2.46-4.12,5.88-7,7.37,0,0-9.83-6.68-12.7-10.81A11.87,11.87,0,0,1,77.11,76,3.75,3.75,0,0,1,78.9,71.79Z"/><path class="cls-3" d="M91.76,90.92C91.35,90.64,81.86,84.17,79,80l-.16-.23a11.24,11.24,0,0,1-2-3.79,4,4,0,0,1,1.89-4.44.32.32,0,0,1,.16,0c4.74.58,9.35,3,12.38,5a38.08,38.08,0,0,1,7.8,6.64.26.26,0,0,1,0,.3c-1.63,2.57-4.2,6-7.11,7.47l-.11,0A.23.23,0,0,1,91.76,90.92ZM91,77C88.06,75,83.56,72.63,79,72a3.51,3.51,0,0,0-1.6,3.86,11,11,0,0,0,1.89,3.63l.17.23c2.63,3.8,11.36,9.88,12.5,10.67C94.62,89,97,85.83,98.6,83.36A37.31,37.31,0,0,0,91,77Z"/><path class="cls-11" d="M78.9,71.79a22.67,22.67,0,0,1,3.29.69A61.36,61.36,0,0,1,94.41,88.9a12.32,12.32,0,0,1-2.51,1.81S82.07,84,79.2,79.9A11.87,11.87,0,0,1,77.11,76,3.75,3.75,0,0,1,78.9,71.79Z"/><path class="cls-10" d="M97.84,81.81c.58.58,1.15,1.16,1.69,1.77-1.76,2.78-4.64,6.64-7.92,8.33l-1.23-.85A25.25,25.25,0,0,0,97.84,81.81Z"/><path class="cls-3" d="M91.46,92.12l-1.22-.86a.27.27,0,0,1-.11-.2.28.28,0,0,1,.1-.2,24.88,24.88,0,0,0,7.39-9.15.24.24,0,0,1,.18-.14.26.26,0,0,1,.22.07c.48.47,1.1,1.1,1.69,1.77a.24.24,0,0,1,0,.3c-1.84,2.9-4.73,6.72-8,8.42l-.11,0A.28.28,0,0,1,91.46,92.12Zm6.46-9.88a25.44,25.44,0,0,1-7.13,8.81l.83.57c3.08-1.64,5.81-5.22,7.6-8C98.77,83.11,98.31,82.63,97.92,82.24Z"/><path class="cls-10" d="M73.93,114.92a68.53,68.53,0,0,1-14.88,0c0-.21,0-.42,0-.62a97,97,0,0,1,0-17,51.45,51.45,0,0,1,4.39-17.38C65,76.46,69,70.7,73.44,69.45c1.12-.32,3.73.71,4.77,1.24a14.17,14.17,0,0,1,5.87,6,47.7,47.7,0,0,1,3.84,10.8c1.45,5.48,2.78,11,3.89,16.55.43,2.12.8,4.24,1.14,6.37C87.36,113.58,80,114.34,73.93,114.92Z"/><path class="cls-3" d="M59,115.12a.25.25,0,0,1-.22-.22l0-.24c0-.12,0-.25,0-.38a96.37,96.37,0,0,1,0-17.08,51.61,51.61,0,0,1,4.4-17.47c1.65-3.53,5.73-9.25,10.22-10.51a1.91,1.91,0,0,1,.56-.07,12.33,12.33,0,0,1,4.39,1.32,14.31,14.31,0,0,1,6,6.16,48.29,48.29,0,0,1,3.86,10.85C89.78,93.59,91.05,99,92.06,104c.4,2,.77,4.12,1.14,6.38a.26.26,0,0,1-.13.26c-5.76,3.21-13.48,3.95-19.11,4.48-2.64.26-5.07.38-7.44.39h0A60.31,60.31,0,0,1,59,115.12Zm32.55-11c-1-5-2.28-10.43-3.89-16.53a47.8,47.8,0,0,0-3.81-10.75,13.92,13.92,0,0,0-5.78-6,12.32,12.32,0,0,0-4.16-1.27,1.75,1.75,0,0,0-.43,0c-4.3,1.21-8.35,6.93-9.9,10.25a51,51,0,0,0-4.36,17.3,95.47,95.47,0,0,0,0,17l0,.39v0a62.31,62.31,0,0,0,7.23.4c2.36,0,4.78-.14,7.4-.39,5.54-.53,13.11-1.25,18.77-4.34C92.33,108.14,92,106.11,91.57,104.14Z"/><path class="cls-11" d="M59,97.22a51.45,51.45,0,0,1,4.39-17.38c1.53-3.3,5.44-8.86,9.75-10.28C67,83.74,66.25,100.27,69.2,115.24a63.61,63.61,0,0,1-10.15-.36c0-.21,0-.42,0-.62A97,97,0,0,1,59,97.22Z"/><polygon class="cls-10" points="75.07 88.92 74.95 96.27 71.37 98.55 66.62 96.37 67.03 89.06 75.07 88.92"/><path class="cls-3" d="M71.27,98.77,66.52,96.6a.26.26,0,0,1-.15-.24L66.78,89a.25.25,0,0,1,.24-.23l8-.14h0a.26.26,0,0,1,.17.07.26.26,0,0,1,.07.18l-.11,7.35a.25.25,0,0,1-.11.21L71.5,98.76a.28.28,0,0,1-.13,0A.17.17,0,0,1,71.27,98.77Zm3.54-9.6-7.55.13-.38,6.92,4.47,2,3.36-2.14Z"/><polygon class="cls-10" points="75.39 87.47 75.4 91.06 71.36 93.19 66.37 91.11 66.68 87.67 75.39 87.47"/><path class="cls-3" d="M71.26,93.42l-5-2.08a.24.24,0,0,1-.15-.25l.31-3.44a.25.25,0,0,1,.24-.23l8.7-.2a.24.24,0,0,1,.18.07.25.25,0,0,1,.08.18v3.59a.26.26,0,0,1-.13.22l-4,2.13a.2.2,0,0,1-.11,0Zm3.88-5.7-8.23.19-.28,3,4.72,2,3.81-2Z"/><path class="cls-11" d="M70.72,91.06a.52.52,0,1,0,1,.13.58.58,0,0,0-.42-.68A.57.57,0,0,0,70.72,91.06Z"/><polygon class="cls-10" points="88.21 88.07 88.63 95.34 85.26 97.85 80.41 96.05 80.28 88.8 88.21 88.07"/><path class="cls-3" d="M85.17,98.09l-4.84-1.81a.27.27,0,0,1-.17-.23L80,88.8a.24.24,0,0,1,.22-.25l7.93-.72a.21.21,0,0,1,.18.06.26.26,0,0,1,.09.17l.42,7.27a.25.25,0,0,1-.1.21l-3.37,2.51a.23.23,0,0,1-.15,0ZM88,88.34,80.53,89l.13,6.85,4.56,1.71,3.16-2.36Z"/><polygon class="cls-10" points="88.42 86.62 88.7 90.16 84.86 92.56 79.79 90.87 79.84 87.45 88.42 86.62"/><path class="cls-3" d="M84.78,92.8l-5.07-1.7a.25.25,0,0,1-.17-.24l0-3.42a.26.26,0,0,1,.23-.24l8.58-.83a.23.23,0,0,1,.18.06.26.26,0,0,1,.09.17L89,90.14a.25.25,0,0,1-.12.23L85,92.77a.22.22,0,0,1-.13,0Zm3.42-5.91-8.11.78,0,3,4.79,1.6L88.44,90Z"/><path class="cls-11" d="M84.07,90.51a.57.57,0,0,0,.47.64.58.58,0,0,0,.53-.59.56.56,0,0,0-.46-.64A.58.58,0,0,0,84.07,90.51Z"/><path class="cls-10" d="M77.37,69.92a14.16,14.16,0,0,1,4.91,3.45s1.41,4.07-.19,7.17l-6-4.35-3,5A70.43,70.43,0,0,0,64,74.16a13.14,13.14,0,0,1,7.53-4.72Z"/><path class="cls-3" d="M72.93,81.41a69.83,69.83,0,0,0-9-7,.21.21,0,0,1-.11-.16.22.22,0,0,1,0-.19A13.35,13.35,0,0,1,71.5,69.2a.21.21,0,0,1,.08,0l5.81.48h.06a14.29,14.29,0,0,1,5,3.51.19.19,0,0,1,.05.09c.06.17,1.43,4.21-.2,7.36a.24.24,0,0,1-.36.09l-5.77-4.19-2.87,4.8a.28.28,0,0,1-.18.12h0A.23.23,0,0,1,72.93,81.41ZM76.25,76,82,80.16c1.24-2.74.21-6.2.06-6.66a14.16,14.16,0,0,0-4.75-3.34l-5.74-.47a13.31,13.31,0,0,0-7.18,4.4A70,70,0,0,1,73,80.84l2.85-4.78a.25.25,0,0,1,.17-.11h0A.25.25,0,0,1,76.25,76Z"/><path class="cls-12" d="M74.28,76.65c1.74,0,3.15-1.12,3.15-2.51l0-8.85c0-1.39-1.42-2.5-3.16-2.5s-3.16,1.13-3.16,2.52l0,8.85C71.11,75.54,72.53,76.66,74.28,76.65Z"/><path class="cls-3" d="M70.86,74.16l0-8.85c0-1.52,1.52-2.76,3.4-2.76s3.41,1.22,3.41,2.74l0,8.85c0,1.52-1.52,2.76-3.39,2.76S70.87,75.68,70.86,74.16Zm.47-8.86,0,8.86c0,1.24,1.32,2.25,2.93,2.25s2.9-1,2.9-2.27l0-8.85c0-1.24-1.32-2.25-2.92-2.25S71.33,64.06,71.33,65.3Z"/><path class="cls-3" d="M79.23,111h0a.25.25,0,0,0,.23-.27c-.93-13-3.11-34.39-3.13-34.61a.25.25,0,0,0-.27-.22.25.25,0,0,0-.22.27c0,.22,2.19,21.65,3.13,34.6A.24.24,0,0,0,79.23,111Z"/><path class="cls-13" d="M58,112.24c5.82.34,22.5.76,35.53-4.29l.92,4.53s-19.62,6.57-36.63,3.67C57.93,114.85,58,113.55,58,112.24Z"/><path class="cls-3" d="M57.81,116.4a.26.26,0,0,1-.2-.26c.07-1.3.12-2.6.17-3.91a.38.38,0,0,1,.08-.17.29.29,0,0,1,.19-.06c1.5.08,3.91.19,6.86.18,7.84,0,19.16-.81,28.56-4.46a.26.26,0,0,1,.21,0,.23.23,0,0,1,.12.17l.92,4.53a.24.24,0,0,1-.16.28,98.3,98.3,0,0,1-27.17,4.43h0A56.46,56.46,0,0,1,57.81,116.4Zm35.57-8.11c-9.42,3.58-20.66,4.36-28.47,4.38-2.8,0-5.12-.08-6.64-.16-.05,1.14-.09,2.29-.16,3.43a55.38,55.38,0,0,0,9.28.7h0a98.05,98.05,0,0,0,26.81-4.33Z"/><path class="cls-14" d="M75.17,111.34l.65,5.45,8.13-1-.66-5.44Zm1.52.82,5.24-.63.43,3.51-5.24.63Z"/><path class="cls-3" d="M75.58,116.82l-.66-5.45a.24.24,0,0,1,0-.18.26.26,0,0,1,.17-.09l8.12-1a.26.26,0,0,1,.28.22l.65,5.44a.23.23,0,0,1,0,.18.27.27,0,0,1-.16.1l-8.13,1h0A.24.24,0,0,1,75.58,116.82Zm7.5-6.18-7.64.92.6,5,7.63-.91Zm-6.21,5.06-.42-3.51a.26.26,0,0,1,0-.19.26.26,0,0,1,.17-.09l5.24-.63a.27.27,0,0,1,.27.22L82.6,115a.24.24,0,0,1,0,.18.22.22,0,0,1-.17.09l-5.23.63h0A.25.25,0,0,1,76.87,115.7Zm4.85-3.9-4.75.57.36,3,4.75-.57Z"/><polygon class="cls-10" points="64.55 111.8 66.4 111.86 66.23 117.67 64.38 117.48 64.55 111.8"/><path class="cls-3" d="M66.21,117.91l-1.86-.18a.24.24,0,0,1-.22-.25l.17-5.69a.23.23,0,0,1,.08-.17.23.23,0,0,1,.17-.07l1.86.06a.25.25,0,0,1,.24.25l-.17,5.81a.23.23,0,0,1-.08.18.27.27,0,0,1-.17.06Zm-1.42-5.86-.16,5.21,1.36.13.16-5.29Z"/><polygon class="cls-10" points="88.32 108.87 90.1 108.34 91.76 113.91 89.94 114.32 88.32 108.87"/><path class="cls-3" d="M89.7,114.39l-1.62-5.45a.31.31,0,0,1,0-.19.29.29,0,0,1,.15-.12l1.78-.52a.24.24,0,0,1,.31.16L92,113.84a.23.23,0,0,1,0,.2.21.21,0,0,1-.16.11l-1.81.41h-.06A.26.26,0,0,1,89.7,114.39Zm.23-5.74-1.3.39,1.48,5,1.34-.3Z"/><path class="cls-3" d="M96.19,107.73a.5.5,0,0,0,.49-.42.5.5,0,0,0-.42-.56,47.12,47.12,0,0,1-19.63-8.82c-5.08-4-10.74-17.18-10.8-17.31a.5.5,0,0,0-.91.39c.24.55,5.82,13.58,11.1,17.7a47.88,47.88,0,0,0,20.1,9Z"/><path class="cls-10" d="M59,78.32a5.16,5.16,0,0,0,0,1.52,43,43,0,0,0,2.84,9.87,50.44,50.44,0,0,0,4.84,8.75s8-3.13,10.9-7.67c0,0-5.77-10.39-9.62-13.62a11.74,11.74,0,0,0-3.74-2.44C61.54,73.84,59.34,75.88,59,78.32Z"/><path class="cls-3" d="M66.45,98.6a51.35,51.35,0,0,1-4.86-8.79,43.42,43.42,0,0,1-2.85-9.93,5,5,0,0,1,0-1.6,4.45,4.45,0,0,1,4.2-4,4.3,4.3,0,0,1,1.35.23,11.3,11.3,0,0,1,3.62,2.31l.2.17c3.84,3.22,9.44,13.27,9.67,13.69a.23.23,0,0,1,0,.25c-2.89,4.56-10.68,7.64-11,7.77l-.09,0A.26.26,0,0,1,66.45,98.6Zm1.33-21.24-.2-.17A10.84,10.84,0,0,0,64.13,75a3.7,3.7,0,0,0-1.2-.21,4,4,0,0,0-3.71,3.6,4.35,4.35,0,0,0,0,1.44A43,43,0,0,0,62,89.62a51.19,51.19,0,0,0,4.71,8.54c1.19-.5,7.89-3.4,10.52-7.37C76.59,89.58,71.32,80.33,67.78,77.36Z"/><path class="cls-11" d="M61.82,89.71A43,43,0,0,1,59,79.84a5.16,5.16,0,0,1,0-1.52,4.61,4.61,0,0,1,2.38-3.43C59.58,79.77,67.5,90.57,71.64,96a37.88,37.88,0,0,1-5,2.5A50.44,50.44,0,0,1,61.82,89.71Z"/><path class="cls-10" d="M64.84,96.15a19.21,19.21,0,0,0,6.86-2.86,33.4,33.4,0,0,0,5.45-4.58c.72,1.22,1.16,2,1.16,2C75.22,95.6,66.63,99,66.63,99,66,98,65.42,97.1,64.84,96.15Z"/><path class="cls-3" d="M66.43,99.09c-.61-.89-1.21-1.83-1.8-2.81a.24.24,0,0,1,0-.22.23.23,0,0,1,.17-.15,18.75,18.75,0,0,0,6.77-2.83A32.08,32.08,0,0,0,77,88.54a.21.21,0,0,1,.2-.07.24.24,0,0,1,.19.11c.72,1.23,1.17,2,1.17,2a.25.25,0,0,1,0,.25c-3.1,4.87-11.44,8.18-11.8,8.32h-.09A.23.23,0,0,1,66.43,99.09Zm10.67-10a33.21,33.21,0,0,1-5.26,4.37,19.3,19.3,0,0,1-6.61,2.83c.5.81,1,1.58,1.49,2.33C68,98.14,75.2,95,78,90.73,77.89,90.49,77.56,89.91,77.1,89.12Z"/><path class="cls-15" d="M98.34,100.83,108.4,82.19l32.4-2.89L129,94.35l-11.25,14.31,3,14.23-23.87,4.63S93.86,113.79,98.34,100.83Z"/><path class="cls-3" d="M96.67,127.58c0-.14-3-14,1.46-26.87l10.05-18.64a.28.28,0,0,1,.2-.13l32.39-2.88a.22.22,0,0,1,.24.13.24.24,0,0,1,0,.27l-23,29.26,3,14.11a.24.24,0,0,1,0,.19.23.23,0,0,1-.16.11L97,127.76h0A.26.26,0,0,1,96.67,127.58Zm20.82-18.86a.25.25,0,0,1,0-.21L140.25,79.6l-31.69,2.82-10,18.49c-4.09,11.83-1.84,24.45-1.47,26.32l23.38-4.54Z"/><path class="cls-16" d="M113.52,108.78c-3.14.36-6.3.5-9.44.76-2.63.21-5.24.55-7.85.91a44.63,44.63,0,0,1,2.11-9.62L108.4,82.19l32.4-2.89L129,94.35l-10.83,13.78A34,34,0,0,0,113.52,108.78Z"/><path class="cls-15" d="M108.4,82.19s3.57,4,4.23,4.94,3.81,7.9,3.81,7.9l33.2-4.46A22,22,0,0,0,140.8,79.3Z"/><path class="cls-3" d="M116.21,95.13c-1.08-2.41-3.27-7.15-3.78-7.85-.65-.89-4.18-4.89-4.21-4.93a.24.24,0,0,1,0-.25.26.26,0,0,1,.21-.16l32.39-2.88a.23.23,0,0,1,.16,0,22.4,22.4,0,0,1,8.95,11.41.24.24,0,0,1,0,.2.25.25,0,0,1-.17.11l-33.2,4.46h0A.28.28,0,0,1,116.21,95.13Zm24.52-15.57-31.82,2.83c.9,1,3.37,3.84,3.92,4.6s3.26,6.67,3.76,7.77l32.72-4.39A22.07,22.07,0,0,0,140.73,79.56Z"/><path class="cls-3" d="M121.72,94.44a.13.13,0,0,0,.08,0,.24.24,0,0,0,.15-.32c-.13-.31-3-7.8-4.78-9.54s-2.79-3-2.8-3a.25.25,0,1,0-.38.32s1.1,1.34,2.83,3.05,4.64,9.31,4.66,9.38A.26.26,0,0,0,121.72,94.44Z"/><path class="cls-3" d="M127.6,93.64h.09a.25.25,0,0,0,.14-.33c-.12-.31-3-7.8-4.78-9.54S120.52,81,120.51,81a.25.25,0,0,0-.35,0,.24.24,0,0,0,0,.34,36.12,36.12,0,0,0,2.58,2.78c1.67,1.67,4.63,9.3,4.66,9.38A.25.25,0,0,0,127.6,93.64Z"/><path class="cls-3" d="M134,92.76l.09,0a.24.24,0,0,0,.14-.32c-.12-.3-3-7.44-4.67-9.11s-2.71-2.87-2.72-2.88a.26.26,0,0,0-.35,0,.25.25,0,0,0,0,.35s1.08,1.28,2.76,2.92,4.52,8.86,4.55,8.93A.25.25,0,0,0,134,92.76Z"/><path class="cls-3" d="M139.71,92l.09,0a.24.24,0,0,0,.14-.32c-.12-.3-2.95-7.44-4.66-9.11A34.19,34.19,0,0,1,132.8,80a.25.25,0,1,0-.38.31,35.37,35.37,0,0,0,2.51,2.65c1.64,1.59,4.52,8.86,4.55,8.93A.25.25,0,0,0,139.71,92Z"/><path class="cls-3" d="M145.64,91.28a.2.2,0,0,0,.11,0,.26.26,0,0,0,.12-.33s-2.18-4.5-3-6c-1.13-2.16-5-5.41-5.19-5.54a.23.23,0,0,0-.34,0,.24.24,0,0,0,0,.35s4,3.32,5.06,5.39c.77,1.47,2.92,5.91,2.94,6A.25.25,0,0,0,145.64,91.28Z"/><path class="cls-3" d="M115.2,92.19h0l33.32-4.13a.23.23,0,0,0,.21-.27.24.24,0,0,0-.27-.22L115.17,91.7A.26.26,0,0,0,115,92,.25.25,0,0,0,115.2,92.19Z"/><path class="cls-3" d="M112.38,87.17h0l32.71-4a.25.25,0,0,0,.21-.28.24.24,0,0,0-.27-.21l-32.71,4a.25.25,0,0,0-.21.28A.24.24,0,0,0,112.38,87.17Z"/><path class="cls-12" d="M121.31,106.07s-.57,2.6-2.17,2.27c-2.94-.6-1.29-3.27-1.09-3.64S121.31,106.07,121.31,106.07Z"/><path class="cls-3" d="M119.09,108.58a2.28,2.28,0,0,1-1.77-1.16,3.34,3.34,0,0,1,.47-2.77l0-.06a.34.34,0,0,1,.34-.19,13.33,13.33,0,0,1,3.27,1.46.24.24,0,0,1,.11.27c0,.1-.56,2.48-2.13,2.48h0A1.84,1.84,0,0,1,119.09,108.58Zm-.87-3.68a2.69,2.69,0,0,0-.45,2.31,1.83,1.83,0,0,0,1.42.89c1.11.23,1.68-1.36,1.84-1.91A14.08,14.08,0,0,0,118.22,104.9Z"/><path class="cls-12" d="M122.87,104.07s-.24,2.84-1.88,2.89-3.14-2.13-3-2.52C118.84,102.56,122.87,104.07,122.87,104.07Z"/><path class="cls-3" d="M118.1,105.34c-.3-.45-.4-.79-.31-1a2.13,2.13,0,0,1,2.17-1.09,9.85,9.85,0,0,1,3,.59.25.25,0,0,1,.16.25c0,.13-.29,3.06-2.12,3.11h0A3.87,3.87,0,0,1,118.1,105.34Zm1.86-1.6c-.91,0-1.49.27-1.71.78a2.76,2.76,0,0,0,.74,1.15,2.92,2.92,0,0,0,2,1V107l0-.25c1.17,0,1.53-1.87,1.61-2.47A9.11,9.11,0,0,0,120,103.74Z"/><path class="cls-12" d="M124.06,101.32s.89,2.43-.9,3.31-3.84.26-4.19-.34-.72-1.34,1.23-2.29A7.25,7.25,0,0,1,124.06,101.32Z"/><path class="cls-3" d="M118.75,104.41a1.51,1.51,0,0,1-.26-1.22c.15-.51.66-1,1.6-1.42a7.53,7.53,0,0,1,3.27-.74,5.9,5.9,0,0,1,.73,0,.25.25,0,0,1,.2.16c.33.91.55,2.84-1,3.62a4.66,4.66,0,0,1-2,.46h0A3.08,3.08,0,0,1,118.75,104.41Zm4.61-2.88a7,7,0,0,0-3,.69c-.79.38-1.24.76-1.35,1.11a1.09,1.09,0,0,0,.22.83,2.79,2.79,0,0,0,2,.66,4,4,0,0,0,1.82-.42c1.35-.66,1-2.35.82-2.85Z"/><path class="cls-12" d="M125.22,99.5a2.42,2.42,0,0,1-1.51,3c-2.19.87-4.83,1.48-4.12-.17S121.54,99.58,125.22,99.5Z"/><path class="cls-3" d="M119.34,103.24a1,1,0,0,1,0-1c.76-1.74,2-2.91,5.86-3a.24.24,0,0,1,.24.17,2.69,2.69,0,0,1-1.66,3.33,11.59,11.59,0,0,1-3.44.89h0A1.16,1.16,0,0,1,119.34,103.24Zm.48-.79c-.1.24-.13.43-.06.52s.28.17.6.17h0a10.32,10.32,0,0,0,3.26-.85A2.14,2.14,0,0,0,125,99.75C121.63,99.86,120.48,100.91,119.82,102.45Z"/><path class="cls-12" d="M91.92,107.86c.8,1.2,2.33,1.7,3.55,2.35.8.43,5.22,3.31,6.11,2.77,1-.65-.77-2.07-1.2-2.48s-1.06-.88-1.52-1.37l-.18-.19c1,.55,5.3,2.18,5.63,1.57.58-1.08-2.8-2.7-4.58-3.55a7.63,7.63,0,0,0,1.09.32c.4.11.81.23,1.22.33a13,13,0,0,0,1.65.34c.32,0,1.36.28,1.57,0,.41-.64-1-1.43-1.43-1.67a23.25,23.25,0,0,0-3.81-1.42c2,.14,6.18.54,5.7-.6-.37-.89-7-1.54-7.15-1.57.77-.34,4-1.08,4.36-1.67.69-1.12,0-1.75-1.16-1.56a27.48,27.48,0,0,0-3.67,1.06c-2.61.84-7,1.93-6.86,5.45A3.7,3.7,0,0,0,91.92,107.86Z"/><path class="cls-3" d="M96.08,110.86c-.33-.2-.59-.36-.73-.43s-.55-.28-.84-.42a6.44,6.44,0,0,1-2.79-2,4,4,0,0,1-.73-2c-.14-3.46,3.83-4.69,6.46-5.51l.57-.18.78-.26a20.44,20.44,0,0,1,2.93-.81,1.44,1.44,0,0,1,1.6.51,1.33,1.33,0,0,1-.2,1.42c-.27.44-1.47.83-3.13,1.33l-.3.1c5.88.71,6.15,1.34,6.25,1.59a.6.6,0,0,1,0,.57c-.25.38-1,.55-2.39.55-.49,0-1,0-1.53-.05a12,12,0,0,1,2,.84c.66.38,1.44.88,1.58,1.45a.67.67,0,0,1-.09.55.79.79,0,0,1-.71.27,6,6,0,0,1-.89-.09l-.21,0a13.62,13.62,0,0,1-1.57-.31c1.28.71,2.27,1.42,2.48,2.09a.81.81,0,0,1,0,.65.69.69,0,0,1-.62.27,14.74,14.74,0,0,1-4-1.14c.22.19.44.37.64.57a1.64,1.64,0,0,0,.18.16c.71.64,1.47,1.37,1.41,2.06a.82.82,0,0,1-.43.65.81.81,0,0,1-.43.1h0C100.24,113.3,98.05,112,96.08,110.86Zm2.72-2.14a19,19,0,0,0,5.1,1.68l.19,0a.29.29,0,0,0,0-.26c-.31-1-3.23-2.34-4.48-2.93h0a.26.26,0,0,1-.12-.33.25.25,0,0,1,.33-.12,3.82,3.82,0,0,0,.65.2l.41.1.09,0c.37.1.74.21,1.11.3a13.45,13.45,0,0,0,1.63.33l.24,0a4.89,4.89,0,0,0,.8.09.61.61,0,0,0,.29,0h0a.19.19,0,0,0,0-.18c-.07-.28-.52-.66-1.38-1.15a16.86,16.86,0,0,0-3-1.16l-.72-.23a.26.26,0,0,1-.17-.29.23.23,0,0,1,.26-.19l.48,0c.91.07,2,.15,3,.14,1.63,0,1.92-.24,2-.32s0,0,0-.11-.48-.7-6.74-1.4l-.23,0a.24.24,0,0,1-.2-.22.23.23,0,0,1,.14-.25,13.52,13.52,0,0,1,1.38-.46,10.24,10.24,0,0,0,2.87-1.12c.23-.38.3-.71.18-.92s-.56-.36-1.09-.26a19.26,19.26,0,0,0-2.86.79l-.78.26-.58.18c-2.63.82-6.23,1.94-6.11,5a3.45,3.45,0,0,0,.65,1.79,6,6,0,0,0,2.59,1.84c.3.15.59.28.86.43l.76.45c1.28.76,4,2.36,4.94,2.36a.38.38,0,0,0,.17,0c.17-.11.2-.21.2-.28,0-.49-.86-1.3-1.25-1.64l-.19-.17c-.21-.2-.43-.39-.65-.58a9.48,9.48,0,0,1-.88-.8l-.18-.19a.24.24,0,0,1,0-.32.26.26,0,0,1,.2-.1A.27.27,0,0,1,98.8,108.72Z"/><path class="cls-12" d="M43.35,46.72a34.08,34.08,0,1,0,25.4-41A34.08,34.08,0,0,0,43.35,46.72Z"/><path class="cls-3" d="M43.12,46.78A34.3,34.3,0,1,1,76.6,73.27,34.35,34.35,0,0,1,43.12,46.78ZM68.81,6a33.83,33.83,0,0,0,7.78,66.77,34.27,34.27,0,0,0,7.67-.9A33.83,33.83,0,0,0,76.47,5.11,33.13,33.13,0,0,0,68.81,6Z"/><g class="cls-17"><path class="cls-12" d="M109.71,31.16A34.08,34.08,0,1,0,51.38,61.93c1.13-.81,2.21-1.67,3.27-2.41,3.5-2.42,7-4.81,9.64-8.15.51-.64.75,3.17.41,4.36A32.3,32.3,0,0,0,68.27,53c1.93-1.6,3.84-3,5-5.27.37-.71-.25,3-.52,4.65,3.1-1.89,9.25-8.5,9.65-8.39,4.72,1.34,10.55,1,15.38.82-.27-.39-2.2-2.19-1.57-2.12A6.91,6.91,0,0,1,101.38,46a12.44,12.44,0,0,1,1.46,7.55c-.41,6-6,12.37-10.44,15-1.46.88-2.93,1.69-4.42,2.46A34.07,34.07,0,0,0,109.71,31.16Z"/></g><path class="cls-18" d="M114.74,17.88c.94-.25.81-1.28.5-1.94a10.22,10.22,0,0,0-4.9-4.62,9.59,9.59,0,0,0-3.62-.8,6.2,6.2,0,0,0,.53-.62c1.15-1.54,2.51-4,1-5.75,0-.05-.15,0-.19,0-3.87,1.73-7.43,2.77-11.67,2S88.24,3.56,84.13,2.44C71-1.14,56.21-.94,45,7.58c-5.38,4.08-9.14,10.54-12.13,16.48a27.94,27.94,0,0,0,5.39,33.36c13.4,13.3,26,13.3,26,13.3-6.66-5.67-6.1-15-6.1-15C61.4,53,64.7,46.31,67,41a2.51,2.51,0,0,0,0,.27c-.26,1.93-.5,3.93-.8,5.85-.2,1.31-.13,3.34,1.66,2.64,2.8-1.1,5.75-5.84,6.42-9.22.56,3,1.67,6.77,3.69,4.54a11.3,11.3,0,0,0,2.43-5.14,14.16,14.16,0,0,0,2.11.88c3.51,1.09,7.68,1.65,11.25.47,1.81-.59,1.46-2.13.25-3.89A74,74,0,0,0,101.55,41c2.23,1,5.39,3.07,7.49,1.16,1.76-1.61-2.61-10.16-3.42-11.52,1.48,1.66,6,10.9,8,11.78.23.11.49-.23.59-.4,2.82-4.86.92-11.44-2.33-16.93.39.4.77.8,1.13,1.21,1.19,1.33,2.19,3.74,3.84,4.6.31.16.69-.38.78-.61,1.42-3.71-2.51-9.75-4.67-12.63A4.05,4.05,0,0,0,114.74,17.88Z"/><path class="cls-3" d="M64.21,71a27.28,27.28,0,0,1-8.06-1.67A48.44,48.44,0,0,1,38,57.6,28.21,28.21,0,0,1,32.6,24c2.95-5.86,6.7-12.4,12.2-16.56C51.25,2.51,59.18,0,68.39,0a60.06,60.06,0,0,1,15.8,2.2c1.66.45,3.31,1,4.91,1.59a47.3,47.3,0,0,0,7.32,2.15,15.7,15.7,0,0,0,2.79.24A21.29,21.29,0,0,0,108,3.94a.47.47,0,0,1,.48.05c1.23,1.41.89,3.56-1,6.06l-.2.25a10,10,0,0,1,3.2.79,10.49,10.49,0,0,1,5,4.75,2.1,2.1,0,0,1,.13,1.65,1.16,1.16,0,0,1-.79.63,1.56,1.56,0,0,1-.46.06h0a4.67,4.67,0,0,1-.81-.09c2,2.82,5.71,8.62,4.3,12.32-.1.25-.45.79-.88.79a.47.47,0,0,1-.24-.05,8.29,8.29,0,0,1-2.73-3c-.31-.47-.6-.92-.91-1.31,3.07,6,3.57,11.5,1.32,15.35-.07.13-.34.55-.71.55a.49.49,0,0,1-.2,0c-1.28-.58-3.47-4.33-5.41-7.65l-.21-.35c1.31,3,2.54,6.6,1.34,7.7a3.16,3.16,0,0,1-2.22.84,10.83,10.83,0,0,1-4.35-1.4c-.42-.2-.81-.39-1.18-.55-2.56-1.1-4.74-2.08-6.8-3.2a2.92,2.92,0,0,1,.45,2.29,1.9,1.9,0,0,1-1.34,1.16c-3.14,1-7.14.85-11.41-.48a13.92,13.92,0,0,1-1.86-.75,11.27,11.27,0,0,1-2.42,4.95,1.88,1.88,0,0,1-1.34.75c-1.07,0-1.91-1.42-2.56-4.35-1,3.29-3.71,7.33-6.3,8.34a1.33,1.33,0,0,1-1.62-.23,3.74,3.74,0,0,1-.37-2.67c.22-1.43.41-2.91.59-4.35h0c-2.17,4.9-5.15,10.61-8.13,13.17,0,1-.1,9.45,6,14.64a.25.25,0,0,1,.07.28.25.25,0,0,1-.23.16ZM67,40.74a.25.25,0,0,1,.17.28L67,42.79c-.19,1.43-.38,2.92-.6,4.35a3.28,3.28,0,0,0,.25,2.28c.23.26.58.28,1.07.09,2.73-1.07,5.61-5.74,6.27-9a.25.25,0,0,1,.24-.2h0a.26.26,0,0,1,.25.21c.79,4.36,1.77,5,2.28,5a1.46,1.46,0,0,0,1-.6,11,11,0,0,0,2.37-5,.23.23,0,0,1,.13-.17.28.28,0,0,1,.22,0,14.3,14.3,0,0,0,2.07.86c4.17,1.3,8.07,1.48,11.11.48a1.43,1.43,0,0,0,1-.85c.21-.61-.1-1.51-.9-2.67a.27.27,0,0,1,0-.31.26.26,0,0,1,.31,0,75,75,0,0,0,7.58,3.64c.38.16.78.35,1.21.56A10.56,10.56,0,0,0,107,42.72a2.67,2.67,0,0,0,1.89-.72c1.53-1.39-2.34-9.3-3.46-11.2a.25.25,0,0,1,.06-.33.26.26,0,0,1,.34,0,38.19,38.19,0,0,1,2.69,4.26c1.81,3.09,4,6.94,5.18,7.45,0,0,.19-.12.29-.29,3.37-5.81-.51-13.6-2.33-16.68a.24.24,0,0,1,.06-.32.25.25,0,0,1,.33,0c.43.44.8.84,1.14,1.22a14.22,14.22,0,0,1,1.22,1.69A7.94,7.94,0,0,0,117,30.71c.1,0,.34-.27.42-.48,1.42-3.72-2.77-9.9-4.64-12.39a.25.25,0,0,1,.26-.39,4.15,4.15,0,0,0,1.68.19.62.62,0,0,0,.47-.36A1.6,1.6,0,0,0,115,16a9.88,9.88,0,0,0-4.77-4.5,9.53,9.53,0,0,0-3.53-.77.25.25,0,0,1-.22-.16.23.23,0,0,1,.05-.26c.2-.21.37-.41.52-.6,1-1.3,2.39-3.7,1.07-5.35a21.88,21.88,0,0,1-8.92,2.28,15.63,15.63,0,0,1-2.87-.26,47.45,47.45,0,0,1-7.41-2.16c-1.58-.56-3.22-1.13-4.87-1.58A59,59,0,0,0,68.4.5C59.3.52,51.46,3,45.1,7.78,39.68,11.88,36,18.37,33,24.17a27.74,27.74,0,0,0,5.35,33.08,47.87,47.87,0,0,0,17.9,11.56,30.39,30.39,0,0,0,7.23,1.62c-6.12-5.71-5.66-14.59-5.66-14.68a.24.24,0,0,1,.09-.18c3.28-2.74,6.58-9.5,8.78-14.69a.25.25,0,0,1,.23-.15Z"/><path class="cls-12" d="M59.71,64.24C50,62.53,48,51.25,53.36,50.82c4.25-.35,7,3.43,7,3.43s3,4.6,1.9,8.12c0,0-.37,1.36-1.46,1.62Z"/><path class="cls-3" d="M59.71,64.49a.25.25,0,0,0,.24-.2.24.24,0,0,0-.2-.29c-6.44-1.14-9.22-6.46-9.07-9.7.09-1.89,1.1-3.11,2.7-3.24,4.08-.34,6.74,3.3,6.77,3.34a.25.25,0,0,0,.4-.29c-.12-.16-2.86-3.88-7.21-3.54-1.87.15-3.05,1.54-3.15,3.71a9.41,9.41,0,0,0,2.23,6.07,11.77,11.77,0,0,0,7.25,4.14Z"/><path class="cls-3" d="M59.64,60.58a.24.24,0,0,0,.19-.24c0-.14-.08-3.44-2.61-4.81a2.66,2.66,0,0,0-2.29-.33,2,2,0,0,0-1,1.23.26.26,0,0,0,.18.3.24.24,0,0,0,.3-.17,1.5,1.5,0,0,1,.77-.9A2.19,2.19,0,0,1,57,56c2.27,1.22,2.34,4.34,2.34,4.38a.26.26,0,0,0,.26.24Z"/><path class="cls-3" d="M57.59,59.37a1.58,1.58,0,0,0,.84-.5,2.09,2.09,0,0,0,.27-2,.24.24,0,0,0-.3-.17.23.23,0,0,0-.18.29,1.68,1.68,0,0,1-.16,1.55,1.64,1.64,0,0,1-1.22.39.24.24,0,0,0-.27.21.25.25,0,0,0,.22.28A2.65,2.65,0,0,0,57.59,59.37Z"/><path d="M97.69,55.26c-.4,1-.21,1.94.42,2.2s1.47-.29,1.87-1.25.21-1.94-.42-2.2S98.09,54.3,97.69,55.26Z"/><path d="M78.51,54.76c-.4,1-.21,1.94.42,2.21s1.47-.3,1.87-1.25.21-1.95-.42-2.21S78.91,53.81,78.51,54.76Z"/><path class="cls-19" d="M94.18,67.29s-6,1.5-19.12-2.05c0,0-1.42,5.57,3.23,6.46C85.05,73,94.18,67.29,94.18,67.29Z"/><path class="cls-3" d="M78.25,71.94a4.14,4.14,0,0,1-2.88-1.83,7.05,7.05,0,0,1-.55-4.93.21.21,0,0,1,.11-.15.22.22,0,0,1,.19,0,58.69,58.69,0,0,0,15.26,2.35,17.83,17.83,0,0,0,3.74-.3.25.25,0,0,1,.29.14.25.25,0,0,1-.1.31c-.07,0-7.46,4.62-13.85,4.64A11.14,11.14,0,0,1,78.25,71.94Zm12.13-4.09a59.13,59.13,0,0,1-15.14-2.3,6.4,6.4,0,0,0,.55,4.29,3.7,3.7,0,0,0,2.55,1.62,11,11,0,0,0,2.12.19c4.78,0,10.17-2.66,12.46-3.92C92.3,67.79,91.46,67.85,90.38,67.85Z"/><path class="cls-20" d="M74.87,66.68c-.09,1.72.3,4.42,3.42,5a13.4,13.4,0,0,0,4.29,0C81.43,68.53,78.31,66.83,74.87,66.68Z"/><path class="cls-3" d="M78.25,71.94c-3.35-.64-3.71-3.58-3.63-5.27a.25.25,0,0,1,.26-.24c3.8.17,6.84,2.16,7.93,5.21a.22.22,0,0,1,0,.21.23.23,0,0,1-.17.12,17.35,17.35,0,0,1-2.2.17A11.43,11.43,0,0,1,78.25,71.94Zm-3.15-5c0,1.83.53,4,3.24,4.52a12.56,12.56,0,0,0,3.9.06C81.14,68.86,78.51,67.16,75.1,66.94Z"/><path class="cls-21" d="M113.87,164.79l-.12,0c-2-.86-3.53-2.93-2.59-5.16,1.29-3.05,5.55-10.49,10.71-11.67,3.59-.81,4.29,1.48,3.54,4.15C124.4,155.62,119,166.94,113.87,164.79Z"/><path class="cls-3" d="M113.79,165a.43.43,0,0,1-.13-.05c-2.13-.9-3.75-3.07-2.73-5.48,1.22-2.88,5.54-10.6,10.88-11.82,1.7-.38,2.91-.12,3.58.75a4.29,4.29,0,0,1,.25,3.71c-.79,2.79-5.4,13.16-10.43,13.18h0A3.64,3.64,0,0,1,113.79,165Zm8.13-16.87c-5.14,1.17-9.35,8.72-10.53,11.53-.9,2.11.56,4,2.48,4.85l.09,0a3.16,3.16,0,0,0,1.24.25h0c4.39,0,9-9.29,10-12.81a3.84,3.84,0,0,0-.18-3.28,2.13,2.13,0,0,0-1.79-.73A6.29,6.29,0,0,0,121.92,148.15Z"/><path class="cls-22" d="M113.75,164.74a4.75,4.75,0,0,1-1.11-.65c-.63-2.94,3.09-8.67,4-10a29.07,29.07,0,0,1,6-6.3c2.85-.29,3.39,1.83,2.7,4.28-1,3.56-6.37,14.88-11.54,12.73Z"/><path class="cls-3" d="M113.79,165a.43.43,0,0,1-.13-.05,5.45,5.45,0,0,1-1.17-.68.24.24,0,0,1-.09-.15c-.73-3.43,4-10.14,4.09-10.2a29.54,29.54,0,0,1,6.07-6.36.29.29,0,0,1,.13-.05,2.8,2.8,0,0,1,2.69.9,4.23,4.23,0,0,1,.26,3.7c-.79,2.79-5.4,13.16-10.43,13.18h0A3.64,3.64,0,0,1,113.79,165Zm9-17a28.55,28.55,0,0,0-5.91,6.21c-1.3,1.8-4.51,7-4,9.72a5.46,5.46,0,0,0,1,.58l.09,0a3.16,3.16,0,0,0,1.24.25h0c4.39,0,9-9.29,10-12.81a3.82,3.82,0,0,0-.18-3.27,2.11,2.11,0,0,0-1.8-.73A2.48,2.48,0,0,0,122.81,148Z"/><path class="cls-22" d="M122.41,158.68a14.06,14.06,0,0,1-3.25-2.3,8.09,8.09,0,0,1-2.76-4.9,11.51,11.51,0,0,1,5.47-3.57c3.59-.81,4.29,1.48,3.54,4.15A32.53,32.53,0,0,1,122.41,158.68Z"/><path class="cls-3" d="M122.3,158.9a14.48,14.48,0,0,1-3.31-2.34,8.45,8.45,0,0,1-2.83-5.06.22.22,0,0,1,.06-.19,11.57,11.57,0,0,1,5.59-3.64c1.69-.38,2.91-.12,3.58.75a4.29,4.29,0,0,1,.25,3.71,31.74,31.74,0,0,1-3,6.67.22.22,0,0,1-.21.12A.22.22,0,0,1,122.3,158.9Zm-.38-10.75a11,11,0,0,0-5.26,3.42,8.12,8.12,0,0,0,2.67,4.63,13.79,13.79,0,0,0,3,2.15,31.47,31.47,0,0,0,2.86-6.35,3.84,3.84,0,0,0-.18-3.28,2.13,2.13,0,0,0-1.79-.73A6.29,6.29,0,0,0,121.92,148.15Z"/><path class="cls-23" d="M118,154.57c.69-1.12,4-7.1,6.51-6.57,1.14.67,1.39,2.36.91,4.06-1,3.46-6.08,14.26-11.11,12.87C112.8,162,116.73,156.64,118,154.57Z"/><path class="cls-3" d="M114.23,165.17a.23.23,0,0,1-.15-.12c-1.38-2.68,1.55-7.25,3.13-9.7.22-.35.42-.66.57-.91l.2-.34c1.63-2.74,4-6.37,6.19-6.38a1.58,1.58,0,0,1,.38,0l.08,0c1.17.69,1.56,2.39,1,4.34-.78,2.79-5.39,13.16-10.43,13.17h0A3.62,3.62,0,0,1,114.23,165.17Zm10-17c-2.13,0-4.87,4.62-5.77,6.14l-.21.34c-.15.26-.35.57-.58.93-1.5,2.33-4.27,6.66-3.15,9.1a3.06,3.06,0,0,0,.74.09h0c4.39,0,9-9.29,10-12.81.47-1.68.17-3.19-.76-3.76A.85.85,0,0,0,124.18,148.21Z"/><path class="cls-21" d="M136.46,154.34l-.11,0c-2-.86-3.54-2.94-2.6-5.16,1.29-3,5.55-10.5,10.71-11.67,3.59-.82,4.29,1.47,3.53,4.15C147,145.18,141.63,156.49,136.46,154.34Z"/><path class="cls-3" d="M136.38,154.58l-.13-.05c-2.13-.9-3.75-3.08-2.73-5.49,1.22-2.87,5.54-10.6,10.89-11.81,1.69-.39,2.9-.13,3.57.75a4.28,4.28,0,0,1,.25,3.71c-.78,2.78-5.39,13.16-10.43,13.17h0A3.63,3.63,0,0,1,136.38,154.58Zm8.14-16.87c-5.15,1.17-9.35,8.72-10.54,11.52-.89,2.12.56,4,2.48,4.85l.09,0a3.44,3.44,0,0,0,1.25.25h0c4.39,0,9-9.29,10-12.82a3.82,3.82,0,0,0-.18-3.27,2.07,2.07,0,0,0-1.79-.73A5.51,5.51,0,0,0,144.52,137.71Z"/><path class="cls-22" d="M136.35,154.3a5,5,0,0,1-1.12-.66c-.63-2.94,3.1-8.66,4.05-10a29.59,29.59,0,0,1,6-6.31c2.85-.28,3.39,1.84,2.69,4.29-1,3.56-6.36,14.87-11.53,12.72Z"/><path class="cls-3" d="M136.38,154.58l-.13-.05a5.76,5.76,0,0,1-1.17-.69.21.21,0,0,1-.09-.15c-.73-3.42,4-10.13,4.09-10.2a29.71,29.71,0,0,1,6.07-6.35.21.21,0,0,1,.13,0,2.78,2.78,0,0,1,2.7.9,4.26,4.26,0,0,1,.25,3.7c-.78,2.78-5.39,13.16-10.43,13.17h0A3.63,3.63,0,0,1,136.38,154.58Zm9-17a29.26,29.26,0,0,0-5.91,6.21c-1.3,1.81-4.51,7-4,9.72a4.63,4.63,0,0,0,1,.58l.09,0a3.44,3.44,0,0,0,1.25.25h0c4.39,0,9-9.29,10-12.82a3.79,3.79,0,0,0-.18-3.26,2.08,2.08,0,0,0-1.8-.73Z"/><path class="cls-22" d="M145,148.23a14,14,0,0,1-3.25-2.29A8.15,8.15,0,0,1,139,141a11.36,11.36,0,0,1,5.47-3.57c3.59-.82,4.29,1.47,3.53,4.15A31.28,31.28,0,0,1,145,148.23Z"/><path class="cls-3" d="M144.89,148.45a14.14,14.14,0,0,1-3.31-2.33,8.51,8.51,0,0,1-2.83-5.06.22.22,0,0,1,.06-.19,11.47,11.47,0,0,1,5.6-3.64c1.69-.39,2.9-.13,3.57.75a4.28,4.28,0,0,1,.25,3.71,32.37,32.37,0,0,1-3,6.67.27.27,0,0,1-.22.12A.23.23,0,0,1,144.89,148.45Zm-.37-10.74a10.93,10.93,0,0,0-5.27,3.42,8.12,8.12,0,0,0,2.67,4.63,13.57,13.57,0,0,0,3,2.14,31.9,31.9,0,0,0,2.85-6.35,3.82,3.82,0,0,0-.18-3.27,2.07,2.07,0,0,0-1.79-.73A5.51,5.51,0,0,0,144.52,137.71Z"/><path class="cls-23" d="M140.58,144.12c.69-1.11,4-7.1,6.52-6.56,1.13.67,1.38,2.35.89,4.06-1,3.45-6.07,14.25-11.1,12.87C135.39,151.58,139.32,146.2,140.58,144.12Z"/><path class="cls-3" d="M136.82,154.73a.27.27,0,0,1-.15-.13c-1.38-2.67,1.55-7.24,3.12-9.7.23-.34.42-.65.58-.91l.2-.34c1.63-2.73,4-6.37,6.2-6.37a1.69,1.69,0,0,1,.38,0,.11.11,0,0,1,.07,0c1.17.68,1.57,2.39,1,4.34-.78,2.78-5.39,13.15-10.43,13.17h0A3.62,3.62,0,0,1,136.82,154.73Zm10-17c-2.13,0-4.87,4.62-5.77,6.13l-.2.35c-.16.26-.36.57-.59.92-1.5,2.34-4.27,6.67-3.15,9.11a3.65,3.65,0,0,0,.74.08h0c4.39,0,9-9.28,10-12.81.47-1.68.17-3.18-.76-3.76Z"/><path class="cls-10" d="M60.3,140.41s6,.44,15.76,6.84c0,0,1.3,1.33-.48,2.7s-14.8,11-48.21,11.63c0,0-15.49-.48-25.9-5,0,0-1.26-.42-1.22-1.23s9.36-8.94,16.27-11.55C21.38,142,60.3,140.41,60.3,140.41Z"/><path class="cls-3" d="M27.36,161.83c-.15,0-15.65-.54-26-5-.06,0-1.43-.49-1.39-1.47s9.6-9.19,16.44-11.77c4.83-1.83,42.26-3.34,43.88-3.4.24,0,6.23.52,15.91,6.92a1.93,1.93,0,0,1,.53,1.42,2.3,2.3,0,0,1-1,1.64c-1.31,1-5.13,3.64-12.32,6.13-9.84,3.41-22,5.28-36,5.56h0Zm48.56-14.37c-9.52-6.29-15.58-6.8-15.61-6.81-.39,0-38.94,1.58-43.7,3.37C9.81,146.59.74,154.52.5,155.35c0,.6,1,1,1.07,1,10.17,4.43,25.42,5,25.8,5,5.68-.11,34.61-1.19,48.06-11.58a1.88,1.88,0,0,0,.84-1.28,1.55,1.55,0,0,0-.35-1Z"/><path class="cls-11" d="M16.52,143.79c4.86-1.83,43.78-3.38,43.78-3.38a19.48,19.48,0,0,1,3.9.91l.09.13c-.35,2.15-4.32,4.39-5.87,5.07a41.31,41.31,0,0,1-7.27,2.41,129.67,129.67,0,0,1-16.49,2.81c-1.33.14-3.16-.09-4.35.68s-3.65,7.47-4.37,9.09c-4.06-.24-16-1.24-24.47-4.94,0,0-1.26-.42-1.22-1.23S9.61,146.4,16.52,143.79Z"/><path class="cls-10" d="M35.5,119.82c13.72-1.33,25.83,7.86,27.05,20.53,0,.42.07.83.08,1.26,0,.18,0,.37,0,.55-.79,2.24-11.32,5-24.38,6.22S14.35,149,13.14,147c0-.18-.07-.37-.1-.55-.06-.41-.11-.83-.16-1.25C11.66,132.48,21.79,121.14,35.5,119.82Z"/><path class="cls-3" d="M12.93,147.07l0-.08,0-.22-.06-.33c-.07-.42-.12-.84-.16-1.27-1.24-12.78,9-24.26,22.84-25.6.85-.08,1.72-.13,2.57-.13,13,0,23.59,8.94,24.75,20.89,0,.42.07.84.08,1.26,0,.16,0,.32,0,.48v.09a.19.19,0,0,1,0,.08c-.83,2.37-11.4,5.11-24.58,6.38-4.26.42-8.48.64-12.21.65h0C22.52,149.28,14.12,149.08,12.93,147.07Zm49.46-5v-.46c0-.41,0-.82-.08-1.24-1.13-11.68-11.56-20.47-24.26-20.43-.84,0-1.69,0-2.53.12-13.55,1.31-23.6,12.55-22.39,25.07,0,.41.09.82.16,1.23a2,2,0,0,0,.06.32l0,.17c.63,1,4.28,2,12.7,1.93,3.71,0,7.91-.24,12.16-.65,14-1.35,23.39-4.16,24.15-6Z"/><path class="cls-24" d="M56.17,138.94a44.21,44.21,0,0,0,5.69-2.29,21.4,21.4,0,0,1,.69,3.7c0,.42.07.83.08,1.26,0,.18,0,.37,0,.55-.79,2.24-11.32,5-24.38,6.22S14.35,149,13.14,147c0-.18-.07-.37-.1-.55-.06-.41-.11-.83-.16-1.25a22.26,22.26,0,0,1-.08-2.7C21,144.8,46.57,142.8,56.17,138.94Z"/><path class="cls-3" d="M12.93,147.07l0-.08,0-.22-.06-.33c-.07-.42-.12-.84-.16-1.27a22.33,22.33,0,0,1-.08-2.73.25.25,0,0,1,.09-.19.29.29,0,0,1,.22,0,44.36,44.36,0,0,0,11.12,1c10.34,0,25.16-1.72,32.08-4.5.61-.25,1.25-.47,1.88-.69a22.88,22.88,0,0,0,3.78-1.59.28.28,0,0,1,.22,0,.22.22,0,0,1,.14.16,21.94,21.94,0,0,1,.71,3.75c0,.42.07.84.08,1.26,0,.16,0,.32,0,.48v.09a.19.19,0,0,1,0,.08c-.83,2.37-11.4,5.11-24.58,6.38-4.26.42-8.48.64-12.21.65C22.52,149.28,14.12,149.08,12.93,147.07Zm49.46-5v-.46c0-.41,0-.82-.08-1.24A21.43,21.43,0,0,0,61.7,137a24.83,24.83,0,0,1-3.59,1.47c-.65.22-1.26.44-1.85.68-7,2.8-21.88,4.51-32.26,4.53a46.92,46.92,0,0,1-11-.93,22.94,22.94,0,0,0,.09,2.36c0,.41.09.82.16,1.23a2,2,0,0,0,.06.32l0,.17c.63,1,4.28,2,12.7,1.93,3.71,0,7.91-.24,12.16-.65,14-1.35,23.39-4.16,24.15-6Z"/><path class="cls-11" d="M35.5,119.82A26.71,26.71,0,0,1,46,120.88a14.48,14.48,0,0,0-9.06,2c-4.35,2.74-6.58,7.38-7.1,12.39a64.23,64.23,0,0,0-.14,9.71,35.86,35.86,0,0,0,.39,4c-9.17.35-16-.4-16.95-2,0-.18-.07-.37-.1-.55-.06-.41-.11-.83-.16-1.25C11.66,132.48,21.79,121.14,35.5,119.82Z"/></g></g></g></svg>