<svg xmlns="http://www.w3.org/2000/svg" viewBox="0 0 133.8 173.91"><defs><style>.cls-1{isolation:isolate;}.cls-2{fill:#d00020;}.cls-3{fill:#161615;}.cls-4{fill:#ac001b;}.cls-4,.cls-6,.cls-8{mix-blend-mode:multiply;}.cls-5,.cls-6{fill:#b2a35a;}.cls-7,.cls-8{fill:#f4cea6;}.cls-9{fill:#503120;}.cls-10{fill:#eea9cc;}.cls-11{fill:#e05373;}.cls-12{fill:#fff;}.cls-13{fill:#804b23;}.cls-14{fill:#dfdcc1;}.cls-15{fill:#281806;}.cls-16{fill:#a6501d;}.cls-17{fill:#3a2c1c;}</style></defs><title>Ativo 3</title><g class="cls-1"><g id="Camada_2" data-name="Camada 2"><g id="Layer_1" data-name="Layer 1"><polygon class="cls-2" points="100.62 38.37 133.57 38.16 127.6 48.19 133.2 60.38 100.9 60.29 100.62 38.37"/><path class="cls-3" d="M133.21,60.61h0l-32.3-.09a.23.23,0,0,1-.23-.23l-.28-21.92a.25.25,0,0,1,.06-.16.26.26,0,0,1,.17-.07l32.95-.21a.2.2,0,0,1,.19.12.19.19,0,0,1,0,.23l-5.9,9.92,5.52,12a.2.2,0,0,1,.06.15A.23.23,0,0,1,133.21,60.61Zm-32.09-.54,31.73.08L127.4,48.28a.2.2,0,0,1,0-.21l5.75-9.68-32.31.21Z"/><polygon class="cls-4" points="106.32 38.34 100.62 38.37 100.9 60.29 106.26 60.31 106.32 38.34"/><path class="cls-5" d="M40.87,80.74a5.49,5.49,0,0,0-3.53-1.62,20.34,20.34,0,0,0-3.9-.07c-5.65.26-10.5.54-10.5.54s-3.41,6.85-.56,12.71c1.6-.2,3.19-.43,4.78-.7a38.39,38.39,0,0,0,8-1.87A11.33,11.33,0,0,0,40,86.11c.84-1.13,1.72-2.7,1.44-4.15A2.65,2.65,0,0,0,40.87,80.74Z"/><path class="cls-3" d="M22.38,92.53a.23.23,0,0,1-.21-.13c-2.86-5.89.53-12.84.57-12.91a.2.2,0,0,1,.19-.12s4.92-.3,10.49-.55c.59,0,1.27-.06,1.93-.06a17,17,0,0,1,2,.13,5.74,5.74,0,0,1,3.68,1.7,3,3,0,0,1,.62,1.33c.24,1.23-.26,2.69-1.49,4.33a11.45,11.45,0,0,1-4.93,3.69,34.64,34.64,0,0,1-7.42,1.78l-.63.1c-1.64.28-3.25.52-4.79.71Zm.71-12.72c-.42.92-3,7-.58,12.24,1.49-.18,3-.41,4.61-.68l.64-.1a34.61,34.61,0,0,0,7.32-1.75A11.2,11.2,0,0,0,39.82,86c1.14-1.54,1.61-2.88,1.4-4a2.62,2.62,0,0,0-.52-1.12,5.44,5.44,0,0,0-3.39-1.54,14.52,14.52,0,0,0-2-.12c-.65,0-1.33,0-1.9,0C28.39,79.51,23.91,79.77,23.09,79.81Z"/><path class="cls-6" d="M41.44,82a2.65,2.65,0,0,0-.57-1.22,5.49,5.49,0,0,0-3.53-1.62A13.08,13.08,0,0,0,35.69,79a23.64,23.64,0,0,0-3.61,5.69,51.4,51.4,0,0,0-2.77,6.55,29,29,0,0,0,5.86-1.51A11.33,11.33,0,0,0,40,86.11C40.84,85,41.72,83.41,41.44,82Z"/><path class="cls-5" d="M25.2,79.63l-2.38.14s-3.4,6.84-.56,12.7c1-.12,1.94-.25,2.91-.4C26.87,88.34,27.39,82.82,25.2,79.63Z"/><path class="cls-3" d="M22.26,92.7a.23.23,0,0,1-.2-.13c-2.87-5.89.53-12.84.56-12.91a.22.22,0,0,1,.19-.12l2.38-.14a.25.25,0,0,1,.2.1c2.27,3.31,1.71,8.88,0,12.66a.24.24,0,0,1-.18.13c-1.11.17-2,.3-2.91.41ZM23,80c-.42.91-3,7-.57,12.24.79-.1,1.63-.22,2.61-.37,1.58-3.54,2.12-8.87.08-12C24,79.92,23.27,80,23,80Z"/><path class="cls-5" d="M22.51,92.28a10.54,10.54,0,0,0,1-2.67A24.67,24.67,0,0,0,24,85.87c.09-2.05.16-4.52-1-6.28h0s-3.41,6.85-.56,12.71Z"/><path class="cls-3" d="M22.38,92.53a.23.23,0,0,1-.21-.13c-2.86-5.89.53-12.84.57-12.91a.22.22,0,0,1,.2-.12.23.23,0,0,1,.23.1c1.29,1.87,1.17,4.49,1.09,6.41a25.21,25.21,0,0,1-.47,3.77,9.88,9.88,0,0,1-.93,2.44l-.14.29a.25.25,0,0,1-.17.13l-.14,0ZM23,80c-.61,1.41-2.73,7-.55,11.87h0a9.51,9.51,0,0,0,.89-2.33,24.28,24.28,0,0,0,.46-3.7C23.88,84.12,24,81.76,23,80Z"/><path class="cls-3" d="M22.38,82.79a7.53,7.53,0,0,1-5.91-2.3c-2.55-2.64-5.73-16.26-6.36-19.68a.45.45,0,0,1,.37-.53.47.47,0,0,1,.53.37c.59,3.23,3.75,16.75,6.12,19.2,2.08,2.15,4.27,2.08,6.6,2a.46.46,0,0,1,0,.91C23.3,82.77,22.84,82.79,22.38,82.79Z"/><path class="cls-3" d="M60.47,170a.46.46,0,0,1-.45-.42c-2-19.63-8-45.36-8-45.62a.45.45,0,0,1,.34-.55.46.46,0,0,1,.55.34c.06.26,6,26.05,8,45.74a.45.45,0,0,1-.4.5Z"/><path class="cls-3" d="M32.87,168.45a.47.47,0,0,1-.46-.46c-.08-15,4.07-46.8,4.11-47.12a.46.46,0,0,1,.91.12c0,.32-4.18,32.05-4.11,47a.46.46,0,0,1-.45.46Z"/><path class="cls-5" d="M32.12,131.61a45.44,45.44,0,0,0,12,1.22l1.44-6.4,1.71,6.28a52.87,52.87,0,0,0,9.85-1.54,35.49,35.49,0,0,0,7.23-2.36c-1-7-1.88-13.16-1.93-15.08l-33.71-.09s-.26,2.74-.54,6.84c-.27,3.83-.69,6.1-1.16,9.83C28.72,130.89,30.63,131.24,32.12,131.61Z"/><path class="cls-3" d="M42.89,133.07a44.83,44.83,0,0,1-10.82-1.23c-.46-.12-1-.23-1.48-.35a36.5,36.5,0,0,1-3.68-1,.22.22,0,0,1-.16-.24c.14-1.07.27-2,.39-2.92.31-2.24.58-4.17.77-6.89.28-4.06.54-6.83.54-6.86a.23.23,0,0,1,.23-.2l33.71.09a.22.22,0,0,1,.22.22c0,1.67.71,6.74,1.94,15.06a.22.22,0,0,1-.12.24,32.12,32.12,0,0,1-6.55,2.19l-.73.19a51.92,51.92,0,0,1-9.89,1.53.22.22,0,0,1-.24-.16l-1.47-5.4-1.23,5.51a.23.23,0,0,1-.22.18Zm-15.66-2.92c1.14.37,2.37.65,3.46.89l1.49.35a44,44,0,0,0,10.71,1.22h1l1.4-6.23a.21.21,0,0,1,.21-.18.23.23,0,0,1,.23.17l1.66,6.1A52.42,52.42,0,0,0,57,131l.73-.18a32.65,32.65,0,0,0,6.31-2.09c-1.17-7.9-1.81-12.85-1.9-14.72l-33.28-.1c-.07.72-.29,3.22-.53,6.64-.19,2.74-.46,4.68-.76,6.93C27.48,128.27,27.36,129.16,27.23,130.15Z"/><path class="cls-6" d="M38.81,118.27c5.88,1.26,12.35,2.62,18.35,1.58a36.51,36.51,0,0,1,1.73,6.83q.27,1.94.57,3.87a24.43,24.43,0,0,0,4.86-1.74c-1-7-1.88-13.16-1.93-15.08l-33.71-.09s0,.16,0,.47A29,29,0,0,0,38.81,118.27Z"/><path class="cls-6" d="M39.1,125.66a22,22,0,0,1-3.69-1.25A36.14,36.14,0,0,0,41,127.19a19.24,19.24,0,0,1-.74,5.58q1.9.09,3.81.06l1.44-6.4A60.63,60.63,0,0,1,39.1,125.66Z"/><path class="cls-5" d="M59.25,119.19a8.22,8.22,0,0,0,4.14,3.16c-.57-4.11-1-7.33-1-8.62H57.8A10.39,10.39,0,0,0,59.25,119.19Z"/><path class="cls-3" d="M63.39,122.58h-.06a8.41,8.41,0,0,1-4.27-3.26,10.54,10.54,0,0,1-1.49-5.59.28.28,0,0,1,.07-.17.23.23,0,0,1,.16-.06h4.59a.22.22,0,0,1,.22.22c0,1.18.38,4.07,1,8.6a.23.23,0,0,1-.08.2A.2.2,0,0,1,63.39,122.58ZM58,114a10,10,0,0,0,1.41,5.11,8.14,8.14,0,0,0,3.68,3c-.57-4.08-.89-6.79-.95-8.06Z"/><path class="cls-5" d="M30.93,120.89c2.17-1.51,3-4.53,2.79-7.24h-5s-.26,2.74-.54,6.84c-.05.67-.1,1.27-.16,1.86A12.44,12.44,0,0,0,30.93,120.89Z"/><path class="cls-3" d="M28,122.57a.24.24,0,0,1-.14,0,.25.25,0,0,1-.09-.2c.06-.58.11-1.19.16-1.85.28-4.06.54-6.83.54-6.86a.23.23,0,0,1,.23-.2h5a.23.23,0,0,1,.23.21c.2,2.49-.45,5.75-2.89,7.44a12.76,12.76,0,0,1-3,1.49Zm.91-8.71c-.07.72-.29,3.22-.53,6.64,0,.53-.07,1-.12,1.51a12.61,12.61,0,0,0,2.56-1.31c1.83-1.28,2.88-3.94,2.71-6.82Z"/><path class="cls-5" d="M51.15,80.43a5.61,5.61,0,0,1,3.49-1.73,22.07,22.07,0,0,1,3.9-.19c5.64.09,10.5.22,10.5.22s3.62,6.74,1,12.69c-1.61-.15-3.21-.34-4.8-.56a37.88,37.88,0,0,1-8.06-1.61,11.46,11.46,0,0,1-5-3.47c-.87-1.11-1.81-2.64-1.57-4.11A2.84,2.84,0,0,1,51.15,80.43Z"/><path class="cls-3" d="M70,91.65h0c-1.52-.14-3.09-.33-4.82-.56L64.5,91a34.74,34.74,0,0,1-7.44-1.54A11.63,11.63,0,0,1,52,85.92c-1.27-1.61-1.81-3-1.61-4.29A2.93,2.93,0,0,1,51,80.3a5.7,5.7,0,0,1,3.63-1.82,18.23,18.23,0,0,1,3.12-.21h.82c5.58.08,10.46.23,10.51.23a.22.22,0,0,1,.2.12c0,.06,3.63,6.9,1,12.88A.23.23,0,0,1,70,91.65ZM57.72,78.73a19.41,19.41,0,0,0-3,.19,5.52,5.52,0,0,0-3.33,1.65,2.54,2.54,0,0,0-.49,1.13c-.18,1.11.33,2.44,1.52,3.94A11.13,11.13,0,0,0,57.22,89a34,34,0,0,0,7.34,1.52l.67.09c1.65.22,3.17.4,4.62.54,2.29-5.33-.5-11.32-.95-12.22-.82,0-5.31-.15-10.37-.22Z"/><path class="cls-6" d="M59.13,85.15a42.14,42.14,0,0,0-4.91-6.37,5.27,5.27,0,0,0-3.07,1.65,2.84,2.84,0,0,0-.53,1.24c-.24,1.47.7,3,1.57,4.11a11.46,11.46,0,0,0,5,3.47,24.58,24.58,0,0,0,4.66,1.13C61,88.6,60.11,86.84,59.13,85.15Z"/><path class="cls-5" d="M67.29,91.13c.9.11,1.8.21,2.71.29,2.66-6-1-12.69-1-12.69l-3.11-.08C64.2,82.46,65.05,87.42,67.29,91.13Z"/><path class="cls-3" d="M70,91.65h0c-.91-.08-1.81-.19-2.71-.29a.25.25,0,0,1-.17-.11c-2.48-4.09-3-9.07-1.38-12.69a.22.22,0,0,1,.21-.13l3.12.08a.22.22,0,0,1,.2.12c0,.06,3.63,6.9,1,12.88A.23.23,0,0,1,70,91.65Zm-2.57-.73,2.42.26c2.29-5.33-.5-11.32-.95-12.22l-2.83-.07C64.58,82.33,65.11,87,67.43,90.92Z"/><path class="cls-5" d="M69.86,91.4a11.23,11.23,0,0,1-1.13-2.63A24.73,24.73,0,0,1,68.15,85c-.16-2.05-.3-4.51.85-6.31h0s3.62,6.74,1,12.69Z"/><path class="cls-3" d="M70,91.65h0l-.14,0a.25.25,0,0,1-.17-.12l-.15-.29a9.71,9.71,0,0,1-1-2.4,24.78,24.78,0,0,1-.59-3.76c-.15-1.91-.35-4.53.89-6.45a.19.19,0,0,1,.2-.1.25.25,0,0,1,.24.12c0,.06,3.63,6.9,1,12.88A.24.24,0,0,1,70,91.65ZM69,79.17c-1,1.77-.77,4.11-.63,5.85A24.88,24.88,0,0,0,69,88.71a9.65,9.65,0,0,0,1,2.29v0C72,86.05,69.66,80.56,69,79.17Z"/><path class="cls-5" d="M36.29,116.6a56.18,56.18,0,0,0,12.15.52c4.74-.46,10.41-.75,15.22-2.56-1.88-23.38-10.18-37.78-14.88-40-5.13-2.44-9.36,2.1-9.36,2.1C30.26,88.6,28,104.19,27.5,113.72,29.56,115.82,33.67,116.26,36.29,116.6Z"/><path class="cls-3" d="M44.94,117.5h0a71.48,71.48,0,0,1-8.68-.68l-.31,0c-2.62-.33-6.58-.82-8.61-2.9a.22.22,0,0,1-.06-.17c.52-10.53,3-25.53,11.95-37.22a9.7,9.7,0,0,1,6.46-2.91,7.45,7.45,0,0,1,3.19.75c2.64,1.26,5.94,5.94,8.61,12.2,2.33,5.48,5.33,14.78,6.39,28a.22.22,0,0,1-.14.23c-4.2,1.59-9.07,2-13.36,2.4l-1.91.17C47.36,117.45,46.18,117.5,44.94,117.5Zm-17.2-3.87c1.94,1.91,5.74,2.38,8.26,2.7l.32,0a70.7,70.7,0,0,0,8.62.67h0c1.22,0,2.39-.05,3.48-.15l1.92-.18c4.21-.37,9-.79,13.07-2.3-2-24-10.55-37.68-14.73-39.67a7,7,0,0,0-3-.7,9.41,9.41,0,0,0-6.1,2.74C30.76,88.33,28.27,103.17,27.74,113.63Z"/><path class="cls-6" d="M52.8,88.57a176.71,176.71,0,0,1,4.41,27.59,32.9,32.9,0,0,0,6.45-1.6c-1.88-23.38-10.18-37.78-14.88-40l-.66-.26A86.62,86.62,0,0,1,52.8,88.57Z"/><polygon class="cls-5" points="39.2 75.51 36.08 80.51 43.77 82.22 45.3 78.23 47.33 82.23 54.72 80.07 51.92 75.86 39.2 75.51"/><path class="cls-3" d="M47.33,82.46a.22.22,0,0,1-.2-.12l-1.8-3.55L44,82.31a.25.25,0,0,1-.27.14L36,80.73a.21.21,0,0,1-.16-.13.22.22,0,0,1,0-.21l3.12-5a.22.22,0,0,1,.2-.11l12.72.35a.22.22,0,0,1,.18.1l2.8,4.21a.24.24,0,0,1,0,.2.28.28,0,0,1-.15.15L47.4,82.45Zm-10.89-2.1L43.63,82l1.46-3.81a.23.23,0,0,1,.2-.15.29.29,0,0,1,.22.13L47.45,82l6.91-2L51.8,76.08l-12.48-.34Z"/><path class="cls-7" d="M19.9,60.78C8.65,60.16,11,49.38,16.1,49.31a7.13,7.13,0,0,1,6,3.22s2.12,4,.5,6.83A2.49,2.49,0,0,1,21,60.63Z"/><path class="cls-3" d="M19.9,61h0c-6.19-.34-8.33-3.67-8.27-6.67s2.07-5.23,4.47-5.26h.14a7.31,7.31,0,0,1,6,3.33c.1.18,2.16,4.13.5,7.06A2.67,2.67,0,0,1,21,60.85L19.93,61ZM16.23,49.54H16.1c-2.16,0-4,2.19-4,4.81-.06,2.78,2,5.87,7.81,6.2l1-.15a2.28,2.28,0,0,0,1.45-1.14c1.54-2.73-.48-6.59-.5-6.63A7,7,0,0,0,16.23,49.54Z"/><path class="cls-7" d="M72.09,66.8c11.1,2,11.28-9.06,6.32-10.31a7.18,7.18,0,0,0-6.56,1.78s-3,3.39-2,6.54a2.51,2.51,0,0,0,1.28,1.61Z"/><path class="cls-3" d="M74.55,67.26h0a15,15,0,0,1-2.5-.23l-1-.4a2.74,2.74,0,0,1-1.43-1.76c-1-3.23,2-6.61,2.09-6.75a7.5,7.5,0,0,1,5.08-2.06,7.06,7.06,0,0,1,1.7.21c2.18.55,3.58,3,3.25,5.63S79.33,67.28,74.55,67.26Zm2.21-10.75A7.18,7.18,0,0,0,72,58.43s-2.87,3.32-2,6.31a2.28,2.28,0,0,0,1.16,1.46l1,.39a13.94,13.94,0,0,0,2.37.22c4.48,0,6.4-2.56,6.7-5s-.94-4.64-2.9-5.12A6.68,6.68,0,0,0,76.76,56.51Z"/><path class="cls-7" d="M77.7,51.49A30.09,30.09,0,1,1,51.23,18.42,30,30,0,0,1,77.7,51.49Z"/><path class="cls-3" d="M47.83,78.09a30.87,30.87,0,0,1-3.46-.2,30.26,30.26,0,0,1-20.29-11.2A29.73,29.73,0,0,1,17.7,44.57,30.11,30.11,0,0,1,47.8,18a33.46,33.46,0,0,1,3.46.21,30,30,0,0,1-3.43,59.9Zm0-59.65A29.65,29.65,0,0,0,18.15,44.62a29.32,29.32,0,0,0,6.29,21.79,29.82,29.82,0,0,0,20,11,32.49,32.49,0,0,0,3.41.2,29.6,29.6,0,0,0,0-59.2Z"/><path class="cls-7" d="M77.7,51.49A30.09,30.09,0,1,1,51.23,18.42,30,30,0,0,1,77.7,51.49Z"/><path class="cls-3" d="M47.83,78.09a30.87,30.87,0,0,1-3.46-.2,30.26,30.26,0,0,1-20.29-11.2A29.73,29.73,0,0,1,17.7,44.57,30.11,30.11,0,0,1,47.8,18a33.46,33.46,0,0,1,3.46.21,30,30,0,0,1-3.43,59.9Zm0-59.65A29.65,29.65,0,0,0,18.15,44.62a29.32,29.32,0,0,0,6.29,21.79,29.82,29.82,0,0,0,20,11,32.49,32.49,0,0,0,3.41.2,29.6,29.6,0,0,0,0-59.2Z"/><path class="cls-8" d="M51.23,18.42A29.82,29.82,0,1,0,77.7,51.49,30,30,0,0,0,51.23,18.42Zm13.7,50.82c-8,6.9-19.31,7.56-29,4-3.8-1.41-8.15-4.25-9.08-8.47-1-4.39,2.47-6.65,5.77-8.57a91.34,91.34,0,0,1,11.13-5.51c4.46-1.84,9.36-3.71,14.27-2.93,5.54.87,11.56,5.8,11.86,11.72C70.07,63.19,67.65,66.89,64.93,69.24Z"/><path class="cls-9" d="M79.29,31.15a27.87,27.87,0,0,0-1.52-2.74A25.6,25.6,0,0,0,74,23.66a30.61,30.61,0,0,0-9.27-6.05,36.72,36.72,0,0,0-13.07-2.48c-6.51,0-13.1,1-18.93,4A34.46,34.46,0,0,0,16.72,36C12.3,46.42,18.45,57.79,19,57.72c13-1.84,28.84-14.49,33.91-18.78a58.28,58.28,0,0,0,5.35-4.41c-1.75,1.87-7.33,11.59-7,11.55,5.1-.58,9.36-5.56,10.69-8.86.15,1.88-1,13.2,13,23.84.3.23,2.19-2.52,2.38-2.73,1.93-2.1,3.4-5.7,4.16-8.41C83.1,43.9,82.06,36.86,79.29,31.15Z"/><path class="cls-3" d="M74.91,61.3h0a.39.39,0,0,1-.18-.06c-8.45-6.42-12.83-14.16-13-23C60,41.51,56,45.76,51.25,46.31a.29.29,0,0,1-.25-.14c-.15-.34,3.34-6.44,5.64-9.85-.54.44-1.09.86-1.64,1.28s-1.33,1-1.94,1.51c-6,5.07-21.31,17-34,18.83-.19,0-.33-.09-.65-.57-1.32-2-5.83-12.13-1.87-21.48a34.62,34.62,0,0,1,16.1-17c5.24-2.73,11.41-4,18.85-4h.19A36.89,36.89,0,0,1,64.8,17.39a30.7,30.7,0,0,1,9.33,6.1A25.33,25.33,0,0,1,78,28.29a27.21,27.21,0,0,1,1.54,2.76c3,6.1,3.75,13.18,2.13,18.93-.37,1.32-1.77,5.85-4.21,8.5l-.33.44C75.75,60.75,75.24,61.3,74.91,61.3ZM61.91,37h0a.23.23,0,0,1,.19.21,6.88,6.88,0,0,1,0,.71c0,3.3.17,13.29,12.78,22.91a15.34,15.34,0,0,0,1.79-2.17c.19-.25.32-.43.36-.47,1.89-2,3.36-5.64,4.11-8.32,1.59-5.65.8-12.61-2.11-18.62a27.24,27.24,0,0,0-1.5-2.71,25.43,25.43,0,0,0-3.76-4.71,30.06,30.06,0,0,0-9.19-6,36.62,36.62,0,0,0-13-2.47h-.18c-7.37,0-13.47,1.29-18.64,4A34.17,34.17,0,0,0,16.93,36.06C12.75,45.94,18.14,56.74,19,57.48,31.6,55.68,46.81,43.8,52.76,38.76c.63-.52,1.31-1,2-1.53a26.79,26.79,0,0,0,3.38-2.85h0a.22.22,0,0,1,.32,0,.22.22,0,0,1,0,.32h0c-1.55,1.65-6.1,9.43-6.88,11.12,4.83-.75,8.89-5.57,10.14-8.68A.23.23,0,0,1,61.91,37Z"/><path class="cls-3" d="M75.21,64.6a.23.23,0,0,1-.16-.19c0-.11-.07-2.68,1.85-3.85a2,2,0,0,1,1.77-.35,1.57,1.57,0,0,1,.87.92.19.19,0,0,1-.13.24.19.19,0,0,1-.24-.12,1.18,1.18,0,0,0-.64-.68,1.72,1.72,0,0,0-1.43.32c-1.72,1-1.66,3.48-1.66,3.51a.2.2,0,0,1-.19.2Z"/><path class="cls-3" d="M76.77,63.56a1.27,1.27,0,0,1-.69-.35,1.65,1.65,0,0,1-.28-1.54.19.19,0,1,1,.38.08,1.33,1.33,0,0,0,.18,1.2,1.29,1.29,0,0,0,1,.25.19.19,0,0,1,.06.38A1.86,1.86,0,0,1,76.77,63.56Z"/><path class="cls-3" d="M17.43,58a.19.19,0,0,0,.19-.15c0-.1.69-2.6-.91-4.17a2.11,2.11,0,0,0-1.65-.74,1.52,1.52,0,0,0-1.05.7.18.18,0,0,0,.06.26.2.2,0,0,0,.27-.06,1.17,1.17,0,0,1,.77-.52,1.75,1.75,0,0,1,1.33.64c1.43,1.41.82,3.77.81,3.79a.21.21,0,0,0,.14.24Z"/><path class="cls-3" d="M16.15,56.62a1.21,1.21,0,0,0,.74-.19A1.62,1.62,0,0,0,17.52,55a.18.18,0,0,0-.18-.2.18.18,0,0,0-.2.18,1.32,1.32,0,0,1-.45,1.13,1.27,1.27,0,0,1-1,0,.19.19,0,0,0-.15.35A1.76,1.76,0,0,0,16.15,56.62Z"/><path class="cls-10" d="M33.66,69.67A2.47,2.47,0,0,1,33,68.18C33,66,35.17,66.49,36.55,67c2.87,1,5.58,2.27,8.66,2.37s6.24-1.12,9.25-1.76c1.38-.3,4.84-.68,4.39,1.73a5.9,5.9,0,0,1-2.14,2.89c-2.84,2.16-6.77,2.6-10.2,2.32A24.84,24.84,0,0,1,36.72,72,10.68,10.68,0,0,1,33.66,69.67Z"/><path class="cls-3" d="M48.29,74.81c-.59,0-1.19,0-1.8-.08a24.67,24.67,0,0,1-9.88-2.56,10.37,10.37,0,0,1-3.12-2.36,2.67,2.67,0,0,1-.68-1.63,1.86,1.86,0,0,1,.46-1.38c.59-.6,1.7-.62,3.36,0l1.82.65a21.23,21.23,0,0,0,6.76,1.71A22.7,22.7,0,0,0,51.71,68c.89-.24,1.81-.48,2.7-.67a10.22,10.22,0,0,1,2-.23,3,3,0,0,1,2.33.77,1.68,1.68,0,0,1,.3,1.45,6,6,0,0,1-2.23,3A14.23,14.23,0,0,1,48.29,74.81Zm-13.67-8a1.38,1.38,0,0,0-1,.34,1.39,1.39,0,0,0-.32,1.05,2.24,2.24,0,0,0,.57,1.34,10.05,10.05,0,0,0,3,2.25,24.44,24.44,0,0,0,9.7,2.51c.59,0,1.18.07,1.76.07A13.83,13.83,0,0,0,56.58,72a5.77,5.77,0,0,0,2.05-2.75,1.27,1.27,0,0,0-.2-1.08,2.57,2.57,0,0,0-2-.6,10.47,10.47,0,0,0-1.94.21c-.88.19-1.79.44-2.68.67a22.9,22.9,0,0,1-6.63,1.1,22,22,0,0,1-6.91-1.73l-1.81-.65A6.5,6.5,0,0,0,34.62,66.79Z"/><path class="cls-11" d="M46.61,70.6c-3.2-.36-7.46-.66-10.43,1.06l.54.31a24.84,24.84,0,0,0,9.79,2.54,16.49,16.49,0,0,0,8.72-1.41A22.12,22.12,0,0,0,46.61,70.6Z"/><path class="cls-3" d="M48.25,74.81h0c-.58,0-1.17,0-1.76-.08a24.67,24.67,0,0,1-9.88-2.56l-.54-.31a.24.24,0,0,1-.12-.2.22.22,0,0,1,.12-.19,12.47,12.47,0,0,1,6.4-1.37,37.56,37.56,0,0,1,4.17.28,21.63,21.63,0,0,1,8.7,2.53.21.21,0,0,1,.12.2.22.22,0,0,1-.13.19A15.38,15.38,0,0,1,48.25,74.81Zm-11.6-3.14.18.1a24.44,24.44,0,0,0,9.7,2.51,16.7,16.7,0,0,0,8.21-1.19,22.12,22.12,0,0,0-8.15-2.26,39.5,39.5,0,0,0-4.12-.28A12.7,12.7,0,0,0,36.65,71.67Z"/><path class="cls-12" d="M47.12,72.1c3.74,0,8.44-.82,9.22-4.74a9.41,9.41,0,0,0-1.88.21c-3,.64-6.13,1.87-9.25,1.76S39.42,68,36.55,67c-.27-.09-.58-.18-.89-.26C36.8,71,43.26,72.07,47.12,72.1Z"/><path class="cls-3" d="M47.17,72.32h-.05c-1.71,0-10.28-.32-11.68-5.56a.23.23,0,0,1,.05-.21.23.23,0,0,1,.22-.07,9,9,0,0,1,.92.27l1.82.65a21.23,21.23,0,0,0,6.76,1.71A22.7,22.7,0,0,0,51.71,68c.89-.24,1.81-.48,2.7-.67a10.4,10.4,0,0,1,1.93-.22.23.23,0,0,1,.23.27C55.76,71.49,51,72.34,47.17,72.32ZM36,67c1.29,3.52,6.73,4.81,11.12,4.84l.05.23v-.23c3.57,0,8-.74,8.88-4.28a11.18,11.18,0,0,0-1.54.2c-.88.19-1.79.44-2.68.67a22.85,22.85,0,0,1-6.63,1.1,22,22,0,0,1-6.91-1.73l-1.81-.65Z"/><path d="M38.88,57.12c-.15.9-.76,1.56-1.36,1.45s-1-.91-.8-1.82.76-1.55,1.36-1.45S39,56.21,38.88,57.12Z"/><path d="M57,57c0,.92-.51,1.66-1.12,1.65s-1.09-.75-1.08-1.67.51-1.65,1.11-1.65S57,56.07,57,57Z"/><path class="cls-7" d="M4.69,54.85c-.53.48,1.83,4.27,2.56,5.16L7,59.88c-.57-.33-1.07-.79-1.62-1.16S3.21,57,2.78,58.17c-.37,1,1.44,2.18,2,2.72,2,1.81,3,6,6.19,6a5.19,5.19,0,0,0,2.45-.77,8.67,8.67,0,0,0,2.88-3.33c.52-1,1.83-2.84,1.29-4-.32-.67-1-.35-1.44,0a5.35,5.35,0,0,0-.89.82c-.13.15-.81.81-.77,1a26,26,0,0,0-.9-3.47s0-.09,0-.14a12.12,12.12,0,0,0-.52-1.5c-.32-.75-.72-2-1.66-2.12-1.19-.18-.88,2.35-.37,4.3a19.8,19.8,0,0,0-2-3.16c-.31-.35-1.16-1.44-1.71-.87-.28.28-.07.88,0,1.19a14.8,14.8,0,0,0,.63,1.55c.18.38.36.75.55,1.12a7.12,7.12,0,0,0,.51,1C7.84,56.94,5.63,54,4.69,54.85Z"/><path class="cls-3" d="M10.93,67.07c-2.2,0-3.4-1.89-4.55-3.7a11.86,11.86,0,0,0-1.72-2.31l-.43-.36c-.81-.65-2-1.63-1.67-2.61a.85.85,0,0,1,.85-.62,4.07,4.07,0,0,1,1.94.92l.19.14c.23.15.45.33.67.5l.16.11c-1-1.43-2.44-3.92-1.83-4.46a.79.79,0,0,1,.55-.21c.73,0,1.67.88,2.68,2.07l0-.08a14.56,14.56,0,0,1-.65-1.58c-.12-.39-.34-1.05,0-1.42a.67.67,0,0,1,.53-.23c.56,0,1.11.63,1.44,1l.08.1a12.25,12.25,0,0,1,1.33,1.92c-.18-1.07-.26-2.3.17-2.85a.77.77,0,0,1,.77-.29c1,.14,1.41,1.22,1.73,2l.11.25a13.66,13.66,0,0,1,.53,1.53l.05.12A26.25,26.25,0,0,1,14.63,60a4.66,4.66,0,0,1,.4-.45l.09-.09a5.6,5.6,0,0,1,.93-.85,1.86,1.86,0,0,1,1-.4.83.83,0,0,1,.78.52c.52,1.06-.42,2.65-1,3.71l-.27.45a8.84,8.84,0,0,1-2.95,3.42,5.54,5.54,0,0,1-2.56.8ZM3.41,57.93a.4.4,0,0,0-.42.31c-.24.68.86,1.57,1.53,2.11.18.14.33.27.45.38a12.14,12.14,0,0,1,1.8,2.39C7.85,64.83,9,66.6,10.93,66.61H11a4.91,4.91,0,0,0,2.33-.73,8.56,8.56,0,0,0,2.8-3.25c.07-.14.16-.29.26-.46.57-1,1.44-2.44,1-3.28a.39.39,0,0,0-.37-.26,1.35,1.35,0,0,0-.74.31,4.75,4.75,0,0,0-.85.79l-.1.1a3.26,3.26,0,0,0-.61.74.23.23,0,0,1-.45.06h0a27.59,27.59,0,0,0-.9-3.45l-.05-.13a12.34,12.34,0,0,0-.51-1.49l-.11-.26c-.28-.68-.66-1.62-1.37-1.73a.34.34,0,0,0-.35.12c-.36.46-.27,2,.23,3.9a.23.23,0,0,1-.14.27.21.21,0,0,1-.28-.1,19.44,19.44,0,0,0-2-3.12l-.09-.1c-.22-.26-.74-.86-1.09-.86a.27.27,0,0,0-.2.09c-.17.18,0,.71.08.94a12,12,0,0,0,.63,1.55c.17.38.36.74.55,1.11.05.11.11.23.16.36a4.36,4.36,0,0,0,.32.61.23.23,0,0,1-.05.32.24.24,0,0,1-.32,0c-.82-1.1-2.74-3.68-3.71-3.68a.37.37,0,0,0-.25.09c-.22.43,1.65,3.72,2.58,4.84a.22.22,0,0,1,0,.3.23.23,0,0,1-.29,0l-.22-.13a9.5,9.5,0,0,1-1-.68c-.21-.17-.42-.33-.64-.48a1.72,1.72,0,0,1-.21-.15A3.87,3.87,0,0,0,3.41,57.93Z"/><path class="cls-3" d="M68.4,82.05h-.07a.47.47,0,0,1-.45-.47.45.45,0,0,1,.47-.45c.19,0,19.52.16,34-9.49a.44.44,0,0,1,.63.12.46.46,0,0,1-.12.64C88.56,81.92,69.68,82.05,68.4,82.05Z"/><polygon class="cls-5" points="48.47 90.45 49.22 96.82 52.94 98.33 57.42 95.81 56.39 89.51 48.47 90.45"/><path class="cls-3" d="M52.94,98.56a.15.15,0,0,1-.09,0L49.13,97a.22.22,0,0,1-.14-.18l-.75-6.38a.24.24,0,0,1,.2-.25l7.92-.93a.22.22,0,0,1,.25.19l1,6.3a.24.24,0,0,1-.11.24l-4.48,2.51A.2.2,0,0,1,52.94,98.56Zm-3.51-1.9,3.49,1.42,4.25-2.39-1-5.92-7.48.88Z"/><polygon class="cls-5" points="48.03 89.23 48.32 92.36 52.49 93.67 57.21 91.21 56.61 88.26 48.03 89.23"/><path class="cls-3" d="M52.49,93.9h-.07l-4.16-1.32a.22.22,0,0,1-.16-.19l-.3-3.13A.24.24,0,0,1,48,89l8.58-1a.23.23,0,0,1,.25.19l.6,2.94a.23.23,0,0,1-.12.25l-4.72,2.46A.19.19,0,0,1,52.49,93.9Zm-4-1.72,3.93,1.25L57,91.09l-.53-2.58-8.14.92Z"/><path class="cls-6" d="M52.93,91.74A.5.5,0,1,1,52,92a.5.5,0,1,1,1-.24Z"/><polygon class="cls-5" points="42.49 90.32 41.71 96.69 37.98 98.18 33.51 95.64 34.58 89.34 42.49 90.32"/><path class="cls-3" d="M38,98.4a.25.25,0,0,1-.12,0L33.4,95.83a.21.21,0,0,1-.11-.23l1.06-6.3a.24.24,0,0,1,.26-.19l7.91,1a.24.24,0,0,1,.2.25l-.78,6.37a.23.23,0,0,1-.15.19l-3.73,1.49Zm-4.22-2.89L38,97.92l3.51-1.4.74-6-7.47-.93Z"/><polygon class="cls-5" points="42.94 89.11 42.62 92.23 38.45 93.52 33.75 91.03 34.37 88.09 42.94 89.11"/><path class="cls-3" d="M38.45,93.75a.19.19,0,0,1-.1,0l-4.71-2.49a.21.21,0,0,1-.11-.25L34.14,88a.25.25,0,0,1,.25-.18l8.57,1a.21.21,0,0,1,.2.25l-.31,3.12a.22.22,0,0,1-.16.19l-4.17,1.3ZM34,90.91l4.47,2.36,3.93-1.22.28-2.75-8.14-1Z"/><path class="cls-6" d="M38,91.59a.5.5,0,1,0,1,.25.51.51,0,0,0-.35-.65A.52.52,0,0,0,38,91.59Z"/><path class="cls-13" d="M36.38,169.69a.28.28,0,0,0,0-.09c.18-1.66-.64-3.42-2.46-3.61-2.49-.27-9.3.77-11.5,2.71s-.76,3.46,1.29,3.94C26.44,173.28,35.9,173.9,36.38,169.69Z"/><path class="cls-3" d="M28.49,173.33h0a23.76,23.76,0,0,1-4.82-.47A3,3,0,0,1,21.2,171c-.14-.55-.06-1.42,1.08-2.42,2.14-1.89,8.07-2.82,10.78-2.81a8,8,0,0,1,.9,0c2,.22,2.85,2.11,2.66,3.86v.1C36.25,172.88,31.37,173.34,28.49,173.33Zm4.57-7.16c-3,0-8.59,1-10.48,2.7-.77.68-1.09,1.36-.94,2a2.7,2.7,0,0,0,2.13,1.58,23.4,23.4,0,0,0,4.73.45c2.19,0,7.32-.29,7.65-3.2v-.06c.17-1.57-.55-3.21-2.25-3.4C33.67,166.19,33.38,166.17,33.06,166.17Z"/><path class="cls-14" d="M22.43,168.7A11.72,11.72,0,0,1,27,166.77a4.78,4.78,0,0,1,2.5,3.32,9.33,9.33,0,0,1,.18,3,24.94,24.94,0,0,1-5.91-.44C21.67,172.16,20.34,170.54,22.43,168.7Z"/><path class="cls-3" d="M28.48,173.32a23,23,0,0,1-4.81-.46A3,3,0,0,1,21.2,171c-.14-.55-.06-1.42,1.08-2.42a12.18,12.18,0,0,1,4.62-2,.23.23,0,0,1,.16,0A5,5,0,0,1,29.67,170a9.53,9.53,0,0,1,.18,3.07.22.22,0,0,1-.21.19C29.25,173.32,28.86,173.33,28.48,173.32ZM26.92,167a11,11,0,0,0-4.34,1.85c-.77.68-1.09,1.36-.94,2a2.7,2.7,0,0,0,2.13,1.58,24.89,24.89,0,0,0,5.65.43,9.4,9.4,0,0,0-.19-2.71A4.51,4.51,0,0,0,26.92,167Z"/><path class="cls-14" d="M28.76,171.75c-2,.09-5.49.21-7.39-1.22,0,1,1,1.8,2.35,2.11,2.71.64,12.1,1.26,12.65-2.9C34.3,171.3,31.18,171.65,28.76,171.75Z"/><path class="cls-3" d="M28.49,173.33a23.76,23.76,0,0,1-4.82-.47c-1.53-.36-2.52-1.27-2.53-2.33a.24.24,0,0,1,.12-.21.23.23,0,0,1,.24,0c1.09.81,2.86,1.21,5.42,1.22.65,0,1.26,0,1.83,0,2.21-.1,5.4-.4,7.48-2a.23.23,0,0,1,.26,0,.22.22,0,0,1,.11.22C36.19,172.88,31.34,173.34,28.49,173.33ZM21.71,171a2.92,2.92,0,0,0,2.06,1.4,23.37,23.37,0,0,0,4.72.45c2,0,6.59-.25,7.51-2.6-2.16,1.35-5.13,1.62-7.23,1.71-.58,0-1.19.05-1.86.05A10.74,10.74,0,0,1,21.71,171Z"/><path class="cls-3" d="M29.74,169.55a.25.25,0,0,0,.24-.23,3.45,3.45,0,0,1,1.75-2.66.26.26,0,0,0,.1-.33.24.24,0,0,0-.32-.09,3.9,3.9,0,0,0-2,3,.25.25,0,0,0,.22.26Z"/><path class="cls-3" d="M32.78,169a.19.19,0,0,0,.16-.06.23.23,0,0,0,0-.33,6.36,6.36,0,0,0-4.82-1.85.24.24,0,0,0,0,.48h.19a6,6,0,0,1,4.28,1.68A.23.23,0,0,0,32.78,169Z"/><path class="cls-13" d="M57.36,169.75s0-.06,0-.09c-.17-1.67.66-3.42,2.48-3.6,2.49-.26,9.3.83,11.49,2.77s.74,3.46-1.31,3.93C67.28,173.39,57.82,174,57.36,169.75Z"/><path class="cls-3" d="M65.23,173.43c-2.88,0-7.75-.49-8.1-3.66v-.05c-.18-1.8.68-3.68,2.67-3.89a8,8,0,0,1,.9,0c2.72,0,8.64,1,10.77,2.87,1.14,1,1.21,1.88,1.07,2.43a3.09,3.09,0,0,1-2.48,1.9A23,23,0,0,1,65.23,173.43Zm-4.53-7.18c-.32,0-.61,0-.85,0-1.7.18-2.43,1.82-2.27,3.36v.08c.32,2.92,5.45,3.25,7.64,3.25a22.85,22.85,0,0,0,4.72-.43A2.65,2.65,0,0,0,72.09,171c.16-.6-.16-1.29-.92-2C69.29,167.33,63.72,166.26,60.7,166.25Z"/><path class="cls-14" d="M71.32,168.83a11.82,11.82,0,0,0-4.51-2,4.75,4.75,0,0,0-2.52,3.31,9.23,9.23,0,0,0-.19,3,24.76,24.76,0,0,0,5.91-.41C72.06,172.29,73.4,170.68,71.32,168.83Z"/><path class="cls-3" d="M65.24,173.43h0c-.38,0-.77,0-1.15,0a.24.24,0,0,1-.22-.2,9.31,9.31,0,0,1,.2-3.06,5,5,0,0,1,2.63-3.46.23.23,0,0,1,.16,0,12.09,12.09,0,0,1,4.61,2c1.14,1,1.21,1.88,1.07,2.43a3.09,3.09,0,0,1-2.48,1.9A24.21,24.21,0,0,1,65.24,173.43ZM64.3,173a24.49,24.49,0,0,0,5.65-.41A2.65,2.65,0,0,0,72.09,171c.16-.6-.16-1.29-.92-2a11.08,11.08,0,0,0-4.34-1.87,4.54,4.54,0,0,0-2.32,3.11A9.58,9.58,0,0,0,64.3,173Z"/><path class="cls-14" d="M65,171.85c2,.1,5.48.24,7.39-1.18,0,1-1.05,1.79-2.36,2.09-2.72.63-12.11,1.2-12.64-3C59.43,171.37,62.55,171.74,65,171.85Z"/><path class="cls-3" d="M65.23,173.43c-2.85,0-7.69-.49-8.09-3.6a.25.25,0,0,1,.12-.23.21.21,0,0,1,.25,0c2.08,1.58,5.26,1.9,7.48,2,.56,0,1.17.05,1.83.05,2.55,0,4.32-.38,5.42-1.19a.19.19,0,0,1,.24,0,.23.23,0,0,1,.12.2c0,1.06-1,2-2.54,2.32A23.66,23.66,0,0,1,65.23,173.43Zm-7.49-3.1c.91,2.35,5.47,2.63,7.49,2.64a22.77,22.77,0,0,0,4.72-.43A2.92,2.92,0,0,0,72,171.16a10.77,10.77,0,0,1-5.22,1h0c-.66,0-1.27,0-1.85,0C62.86,172,59.9,171.69,57.74,170.33Z"/><path class="cls-3" d="M64,169.64a.24.24,0,0,1-.24-.22A3.52,3.52,0,0,0,62,166.74a.24.24,0,0,1-.1-.32.24.24,0,0,1,.32-.1,3.92,3.92,0,0,1,2,3.07.24.24,0,0,1-.22.25Z"/><path class="cls-3" d="M61,169a.27.27,0,0,1-.16-.06.25.25,0,0,1,0-.33,6.4,6.4,0,0,1,4.84-1.83.25.25,0,0,1,.24.25.24.24,0,0,1-.24.23h-.2A6,6,0,0,0,61.14,169,.25.25,0,0,1,61,169Z"/><path class="cls-13" d="M63.77,111.6c-5.89.84-22.82,2.68-36.5-1.35l-.55,4.69s20.51,5,37.57.63C64.1,114.25,63.94,112.92,63.77,111.6Z"/><path class="cls-3" d="M48.2,117.59h0a103.87,103.87,0,0,1-21.54-2.43.24.24,0,0,1-.17-.25l.55-4.69a.27.27,0,0,1,.1-.16.22.22,0,0,1,.19,0,71.56,71.56,0,0,0,19.85,2.5,119.1,119.1,0,0,0,16.56-1.15.21.21,0,0,1,.17,0,.24.24,0,0,1,.09.15c.15,1.23.32,2.61.51,4a.22.22,0,0,1-.17.26A64.57,64.57,0,0,1,48.2,117.59ZM27,114.76a103.75,103.75,0,0,0,21.23,2.38h0A64.23,64.23,0,0,0,64,115.39c-.17-1.2-.32-2.42-.45-3.53A120.5,120.5,0,0,1,47.17,113a72.16,72.16,0,0,1-19.71-2.44Z"/><path class="cls-15" d="M40.32,112.23v5.59h8.35v-5.59Zm6.91,4.61H41.85v-3.6h5.39Z"/><path class="cls-3" d="M40.33,118.05a.23.23,0,0,1-.23-.23v-5.59a.23.23,0,0,1,.23-.23h8.36a.2.2,0,0,1,.16.07.24.24,0,0,1,.07.16v5.59a.23.23,0,0,1-.23.23Zm.22-5.6v5.14h7.89v-5.14Zm1.3,4.62a.23.23,0,0,1-.23-.23v-3.6a.23.23,0,0,1,.23-.23h5.39a.33.33,0,0,1,.16.07.24.24,0,0,1,.07.16v3.61a.23.23,0,0,1-.23.23Zm.22-3.61v3.16H47v-3.15Z"/><polygon class="cls-5" points="57.11 111.7 55.23 111.92 55.89 117.81 57.76 117.47 57.11 111.7"/><path class="cls-3" d="M55.89,118a.2.2,0,0,1-.13,0,.22.22,0,0,1-.09-.16l-.67-5.9a.24.24,0,0,1,.2-.25l1.88-.21a.24.24,0,0,1,.26.2l.65,5.77a.23.23,0,0,1-.18.25l-1.88.34Zm-.41-5.92.61,5.43,1.42-.26-.6-5.33Z"/><polygon class="cls-5" points="32.68 110.74 30.82 110.35 29.61 116.16 31.49 116.42 32.68 110.74"/><path class="cls-3" d="M31.49,116.65h0l-1.88-.26a.27.27,0,0,1-.16-.1.2.2,0,0,1,0-.17l1.21-5.81a.23.23,0,0,1,.27-.18l1.85.39a.21.21,0,0,1,.15.09.28.28,0,0,1,0,.18l-1.18,5.68A.23.23,0,0,1,31.49,116.65ZM29.88,116l1.43.2,1.1-5.26L31,110.62Z"/><path class="cls-5" d="M26.57,127.59c0,1-.54,2.09-.47,3.14,3.82,1.85,14.24,2.63,18.6,2.75a19.13,19.13,0,0,0,.41-2.89C38.63,130.25,30.09,129,26.57,127.59Z"/><path class="cls-3" d="M44.7,133.71h0c-3.83-.11-14.66-.83-18.69-2.77a.24.24,0,0,1-.13-.2,5.76,5.76,0,0,1,.24-1.74,5.53,5.53,0,0,0,.23-1.4.23.23,0,0,1,.1-.19.22.22,0,0,1,.22,0c3.61,1.43,12.4,2.67,18.46,3a.24.24,0,0,1,.22.23,19.79,19.79,0,0,1-.42,2.94A.22.22,0,0,1,44.7,133.71Zm-18.38-3.13c3.57,1.64,12.92,2.5,18.19,2.67a22.52,22.52,0,0,0,.36-2.44c-6-.34-14.27-1.49-18.08-2.89a10.14,10.14,0,0,1-.23,1.2A6.18,6.18,0,0,0,26.32,130.58Z"/><path class="cls-5" d="M64.59,127.7c0,1,.52,2.15.45,3.22-3.79,1.88-14.09,2.62-18.39,2.72a20.51,20.51,0,0,1-.39-3C52.66,130.36,61.1,129.11,64.59,127.7Z"/><path class="cls-3" d="M46.65,133.87a.22.22,0,0,1-.22-.19,20.89,20.89,0,0,1-.4-3,.24.24,0,0,1,.22-.23c6-.29,14.67-1.5,18.25-3a.22.22,0,0,1,.22,0,.23.23,0,0,1,.1.19,5.94,5.94,0,0,0,.22,1.45,6.31,6.31,0,0,1,.23,1.78.23.23,0,0,1-.13.19c-4,2-14.7,2.66-18.48,2.75Zm-.16-3a23.07,23.07,0,0,0,.35,2.52c5.21-.14,14.45-1,18-2.64a6.3,6.3,0,0,0-.23-1.52,8.43,8.43,0,0,1-.22-1.22C60.6,129.44,52.48,130.58,46.49,130.89Z"/><path class="cls-3" d="M45.21,112.46a.23.23,0,0,1-.23-.23l.09-34A.23.23,0,0,1,45.3,78a.23.23,0,0,1,.23.23l-.09,34A.23.23,0,0,1,45.21,112.46Z"/><path class="cls-7" d="M98.43,74.94A3,3,0,0,1,96,71.42c.4-3.09,6-7.54,8.91-4.22a5.27,5.27,0,0,1,.5,5.58C104.15,75,100.35,77.39,98.43,74.94Z"/><path class="cls-3" d="M100.55,76.21a2.82,2.82,0,0,1-2.24-1.06,3.16,3.16,0,0,1-2.52-3.75c.32-2.4,3.63-5.61,6.59-5.6a3.47,3.47,0,0,1,2.72,1.25,5.5,5.5,0,0,1,.53,5.85C104.72,74.5,102.52,76.21,100.55,76.21Zm1.82-10c-2.7,0-5.84,3-6.12,5.21a2.7,2.7,0,0,0,2.22,3.26.22.22,0,0,1,.14.08,2.37,2.37,0,0,0,1.94,1c1.81,0,3.84-1.59,4.68-3.08a5.07,5.07,0,0,0-.47-5.32A3.09,3.09,0,0,0,102.37,66.25Z"/><path class="cls-7" d="M102.8,75.25s-1.29.84-2.38-.84a5,5,0,0,1-.84-3.23Z"/><path class="cls-3" d="M102,75.69a1.37,1.37,0,0,1-.34,0,2.33,2.33,0,0,1-1.44-1.11,5.18,5.18,0,0,1-.88-3.4.24.24,0,0,1,.26-.19.23.23,0,0,1,.19.27,4.88,4.88,0,0,0,.81,3.07c1,1.45,2,.79,2.06.77a.23.23,0,0,1,.26.38A1.88,1.88,0,0,1,102,75.69Z"/><path class="cls-16" d="M100.77,173.69a.92.92,0,0,1-.91-.92L99.71,37.61a.91.91,0,0,1,.91-.91h0a.91.91,0,0,1,.91.91l.16,135.16a.92.92,0,0,1-.91.92Z"/><path class="cls-3" d="M100.78,173.91h0a1.14,1.14,0,0,1-1.14-1.14L99.48,37.61a1.14,1.14,0,1,1,2.28,0l.16,135.16a1.11,1.11,0,0,1-.34.81A1.09,1.09,0,0,1,100.78,173.91Zm-.16-137a.69.69,0,0,0-.69.68l.16,135.16a.69.69,0,0,0,.68.69v0a.69.69,0,0,0,.68-.69L101.3,37.61A.68.68,0,0,0,100.62,36.93Z"/><path class="cls-7" d="M98.33,73c-.54.85-1.14,1.52-1.8,1.18-1.46-.76-.92-3.68.26-5.32a4.32,4.32,0,0,1,5.88-1.32c1.38.94,3.63,2.59,1.37,2.94a17,17,0,0,1-4.12.15C99.53,70.65,99,72,98.33,73Z"/><path class="cls-3" d="M96.88,74.54a1,1,0,0,1-.46-.12,1.84,1.84,0,0,1-.91-1.28,6,6,0,0,1,1.1-4.37,4.69,4.69,0,0,1,3.86-2.07,4.28,4.28,0,0,1,2.33.69c1.35.92,2.58,1.88,2.41,2.64-.08.38-.45.61-1.14.72a19,19,0,0,1-2.85.21,12.83,12.83,0,0,1-1.33-.06,5.51,5.51,0,0,0-.77,1.21c-.19.34-.39.71-.6,1C98.12,73.8,97.57,74.54,96.88,74.54Zm3.59-7.38A4.22,4.22,0,0,0,97,69a5.53,5.53,0,0,0-1,4,1.4,1.4,0,0,0,.68,1c.44.23.89-.13,1.5-1.1.21-.34.41-.69.59-1,.52-1,.81-1.45,1.19-1.45a10.75,10.75,0,0,0,1.31.06,18.1,18.1,0,0,0,2.78-.21c.45-.07.73-.2.77-.36s-.28-.84-2.23-2.16A3.73,3.73,0,0,0,100.47,67.16Z"/><path class="cls-5" d="M20.55,26.62s-7.62.64-19.76,8.83c0,0-1.62,1.69.64,3.4s18.79,13.62,60.88,14c0,0,19.51-.81,32.57-6.66,0,0,1.57-.54,1.52-1.56S84.48,33.5,75.74,30.31C69.6,28.07,20.55,26.62,20.55,26.62Z"/><path class="cls-3" d="M62.31,53.09h0c-17.72-.16-33-2.36-45.45-6.52C7.79,43.53,3,40.28,1.29,39A2.82,2.82,0,0,1,0,37a2.42,2.42,0,0,1,.62-1.74c12.08-8.16,19.83-8.89,19.91-8.9,2,.06,49.18,1.47,55.28,3.7,8.63,3.16,20.74,13.34,20.8,14.53S95,46.39,95,46.42C82,52.2,62.51,53.08,62.32,53.09ZM.92,35.64A2.08,2.08,0,0,0,.46,37a2.39,2.39,0,0,0,1.11,1.66C3.21,39.9,8,43.11,17,46.13c12.38,4.15,27.63,6.34,45.3,6.5.42,0,19.68-.91,32.48-6.63,0,0,1.42-.51,1.38-1.35-.22-1-11.84-11-20.51-14.13-6-2.2-54.62-3.65-55.11-3.67-.05,0-7.69.74-19.63,8.79Z"/><path class="cls-6" d="M75.74,30.31c-6.14-2.24-55.19-3.69-55.19-3.69a24.27,24.27,0,0,0-4.9,1.21l-.11.16C16,30.7,21,33.46,23,34.3a53.14,53.14,0,0,0,9.19,2.94A164.47,164.47,0,0,0,53,40.56c1.68.16,4-.15,5.48.8s4.7,9.36,5.63,11.39C69.23,52.39,84.2,51,94.88,46.2c0,0,1.57-.54,1.52-1.56S84.48,33.5,75.74,30.31Z"/><path class="cls-5" d="M51.52.36C34.22-1.13,19.09,10.61,17.71,26.58c0,.53-.07,1.06-.08,1.58,0,.24,0,.47,0,.7,1,2.81,14.33,6.1,30.8,7.51s30.13.46,31.62-2.13l.12-.69c.08-.52.14-1,.18-1.58C81.72,16,68.81,1.85,51.52.36Z"/><path class="cls-3" d="M62.41,37.26h0c-4.39,0-9.11-.24-14-.66-16.6-1.43-29.92-4.72-31-7.66a.19.19,0,0,1,0-.08v-.18a4.51,4.51,0,0,1,0-.52c0-.5,0-1,.08-1.6a28,28,0,0,1,10-19A32.57,32.57,0,0,1,48.66,0c1,0,1.92.05,2.88.13C68.93,1.63,82,15.92,80.57,32c0,.58-.11,1.09-.19,1.59,0,.16,0,.32-.07.47l0,.23,0,.07C79.18,36.2,72.51,37.28,62.41,37.26ZM17.85,28.82c1,2.4,12.63,5.78,30.59,7.33,4.89.42,9.59.64,14,.65,9.58,0,16.39-1,17.41-2.65l0-.18c0-.15,0-.3.07-.46.08-.49.13-1,.19-1.56C81.48,16.13,68.64,2.06,51.5.58,50.56.5,49.6.46,48.66.46A32.14,32.14,0,0,0,27.79,7.91,27.5,27.5,0,0,0,17.94,26.6c-.05.57-.07,1.08-.08,1.57,0,.17,0,.34,0,.51Z"/><path class="cls-17" d="M25.74,24.72c-2.3-.9-4.95-1.55-7.2-2.81a26.68,26.68,0,0,0-.83,4.67c0,.53-.07,1.06-.08,1.58,0,.24,0,.47,0,.7,1,2.81,14.33,6.1,30.8,7.51s30.13.46,31.62-2.13l.12-.69c.08-.52.14-1,.18-1.58a25.8,25.8,0,0,0,.07-3.4C70.12,31.63,37.88,29.45,25.74,24.72Z"/><path class="cls-3" d="M62.41,37.26c-4.39,0-9.11-.24-14-.66-16.6-1.43-29.92-4.72-31-7.66a.19.19,0,0,1,0-.08v-.18a4.51,4.51,0,0,1,0-.52c0-.5,0-1,.08-1.6a27.38,27.38,0,0,1,.84-4.71.22.22,0,0,1,.13-.15.23.23,0,0,1,.2,0,29.08,29.08,0,0,0,4.8,1.95c.79.27,1.61.55,2.37.84,8.64,3.37,26.59,5.23,39.09,5.26,6.94,0,12.28-.47,15.44-1.41a.21.21,0,0,1,.2,0,.22.22,0,0,1,.09.17A27.68,27.68,0,0,1,80.57,32c0,.58-.11,1.09-.19,1.59,0,.16,0,.32-.07.47l0,.23,0,.07C79.18,36.2,72.51,37.28,62.41,37.26ZM17.85,28.82c1,2.4,12.63,5.78,30.59,7.33,4.89.42,9.59.64,14,.65,9.58,0,16.39-1,17.41-2.65l0-.18c0-.15,0-.3.07-.46.08-.49.13-1,.19-1.56a28.25,28.25,0,0,0,.08-3.08c-3.23.9-8.51,1.37-15.29,1.35-12.54,0-30.57-1.9-39.25-5.29-.76-.29-1.53-.56-2.35-.83a31.25,31.25,0,0,1-4.63-1.85,28.25,28.25,0,0,0-.74,4.35c-.05.57-.07,1.08-.08,1.57,0,.17,0,.34,0,.51Z"/><path class="cls-6" d="M51.52.36A33.63,33.63,0,0,0,38.31,1.84,18.23,18.23,0,0,1,49.75,4.18c5.51,3.39,8.38,9.22,9.1,15.52a81.86,81.86,0,0,1,.31,12.23,44.7,44.7,0,0,1-.44,5c11.56.32,20.16-.71,21.32-2.73l.12-.69c.08-.52.14-1,.18-1.58C81.72,16,68.81,1.85,51.52.36Z"/><path class="cls-16" d="M102.62,36.3a2,2,0,1,1-2-2A2,2,0,0,1,102.62,36.3Z"/><path class="cls-3" d="M100.61,38.53a2.23,2.23,0,1,1,2.24-2.23A2.24,2.24,0,0,1,100.61,38.53Zm0-4a1.77,1.77,0,1,0,1.77,1.77A1.77,1.77,0,0,0,100.62,34.53Z"/></g></g></g></svg>