<svg xmlns="http://www.w3.org/2000/svg" viewBox="0 0 88.98 171.39"><defs><style>.cls-1{isolation:isolate;}.cls-2,.cls-5{fill:#b2a35a;}.cls-3{fill:#161615;}.cls-4{fill:#89553d;}.cls-4,.cls-5,.cls-7,.cls-9{mix-blend-mode:multiply;}.cls-6,.cls-7{fill:#f4cea6;}.cls-8,.cls-9{fill:#343318;}.cls-10{fill:#eea9cc;}.cls-11{fill:#e05373;}.cls-12{fill:#fff;}.cls-13{fill:#804b23;}.cls-14{fill:#dfdcc1;}.cls-15{fill:#281806;}.cls-16{fill:#3a2c1c;}.cls-17{fill:#4a4a49;}.cls-18{fill:#161715;}.cls-19{fill:#2a2a29;}</style></defs><title>Ativo 4</title><g class="cls-1"><g id="Camada_2" data-name="Camada 2"><g id="Layer_1" data-name="Layer 1"><path class="cls-2" d="M88.7,46.05a4.7,4.7,0,0,0-.13-.63h0C86.62,38,67.66,32.08,44.53,32,22.18,32,3.7,37.36.67,44.43h0a5.13,5.13,0,0,0-.27.81c0,.11-.06.21-.08.31s0,.18,0,.27a4.46,4.46,0,0,0-.05.63c0,8,19.78,14.62,44.22,14.68s44.28-6.39,44.3-14.43A4.62,4.62,0,0,0,88.7,46.05Z"/><path class="cls-3" d="M44.45,61.36C19.92,61.29,0,54.61,0,46.45a5.57,5.57,0,0,1,.05-.66c0-.1,0-.19.05-.28a2.46,2.46,0,0,1,.07-.29,5.52,5.52,0,0,1,.29-.87c3.09-7.23,22-12.62,44.07-12.56,23.22.06,42.25,5.9,44.26,13.57a5.42,5.42,0,0,1,.14.65,6.38,6.38,0,0,1,0,.69C89,54.85,69,61.43,44.45,61.36Zm.08-29.11C22.66,32.19,3.9,37.46.88,44.52a5.09,5.09,0,0,0-.26.78l-.07.3a2.17,2.17,0,0,0,0,.25,3.56,3.56,0,0,0,0,.61c0,7.9,19.71,14.38,44,14.45S88.5,54.6,88.52,46.7a3.74,3.74,0,0,0,0-.62c0-.2-.07-.4-.12-.61C86.42,38.12,67.17,32.31,44.53,32.25Z"/><path class="cls-4" d="M88.7,46.05a4.7,4.7,0,0,0-.13-.63h0C86.62,38,67.66,32.08,44.53,32,22.18,32,3.7,37.36.67,44.43h0a5.13,5.13,0,0,0-.27.81c0,.11-.06.21-.08.31s0,.18,0,.27a4.46,4.46,0,0,0-.05.63c0,8,19.78,14.62,44.22,14.68s44.28-6.39,44.3-14.43A4.62,4.62,0,0,0,88.7,46.05Z"/><path class="cls-2" d="M37.8,78.43a5.59,5.59,0,0,0-3.55-1.62,21.27,21.27,0,0,0-3.91-.07c-5.66.26-10.53.55-10.53.55S16.39,84.15,19.25,90c1.6-.2,3.21-.44,4.8-.7a38.74,38.74,0,0,0,8-1.88,11.36,11.36,0,0,0,4.84-3.62c.85-1.14,1.73-2.71,1.45-4.17A2.69,2.69,0,0,0,37.8,78.43Z"/><path class="cls-3" d="M19.25,90.26a.21.21,0,0,1-.2-.13c-2.88-5.91.52-12.88.56-12.94a.23.23,0,0,1,.19-.13c.05,0,4.93-.3,10.53-.55.59,0,1.27-.06,1.93-.06a17.33,17.33,0,0,1,2,.13A5.75,5.75,0,0,1,38,78.29a3,3,0,0,1,.61,1.33c.24,1.23-.26,2.69-1.48,4.34a11.69,11.69,0,0,1-5,3.71,36.06,36.06,0,0,1-7.44,1.78l-.64.1c-1.64.28-3.26.52-4.8.71ZM20,77.51c-.42.92-3,7-.57,12.27,1.49-.18,3-.41,4.62-.68l.64-.1A34.8,34.8,0,0,0,32,87.24a11.25,11.25,0,0,0,4.75-3.55c1.15-1.54,1.62-2.88,1.4-4a2.51,2.51,0,0,0-.52-1.12A5.53,5.53,0,0,0,34.22,77a14.31,14.31,0,0,0-2-.12c-.65,0-1.33,0-1.91.06C25.28,77.2,20.79,77.46,20,77.51Z"/><path class="cls-5" d="M38.37,79.66a2.69,2.69,0,0,0-.57-1.23,5.59,5.59,0,0,0-3.55-1.62,13,13,0,0,0-1.65-.12A24.31,24.31,0,0,0,29,82.4,49.69,49.69,0,0,0,26.21,89a29.25,29.25,0,0,0,5.87-1.52,11.36,11.36,0,0,0,4.84-3.62C37.77,82.69,38.65,81.12,38.37,79.66Z"/><path class="cls-2" d="M22.08,77.32l-2.38.14s-3.42,6.86-.56,12.74c1-.12,1.94-.25,2.91-.4C23.76,86.06,24.28,80.52,22.08,77.32Z"/><path class="cls-3" d="M19.14,90.43a.23.23,0,0,1-.21-.13c-2.87-5.91.53-12.87.56-12.94a.24.24,0,0,1,.2-.13l2.38-.14a.26.26,0,0,1,.2.1c2.28,3.32,1.72,8.91,0,12.7a.24.24,0,0,1-.18.13c-1.11.17-2,.3-2.91.41Zm.71-12.75c-.42.92-3,7-.58,12.27.79-.09,1.63-.21,2.62-.36,1.58-3.55,2.13-8.9.07-12Z"/><path class="cls-2" d="M19.39,90a11.41,11.41,0,0,0,1.05-2.68,25,25,0,0,0,.47-3.75c.09-2.06.16-4.53-1.05-6.29h-.05S16.39,84.15,19.25,90Z"/><path class="cls-3" d="M19.25,90.26a.21.21,0,0,1-.2-.13c-2.88-5.91.52-12.88.56-12.94a.23.23,0,0,1,.2-.13h0a.3.3,0,0,1,.24.1c1.29,1.88,1.17,4.51,1.09,6.43a27,27,0,0,1-.47,3.79,10.46,10.46,0,0,1-.93,2.44l-.15.29a.23.23,0,0,1-.17.13l-.14,0Zm.62-12.54c-.61,1.41-2.74,7-.55,11.91h0a9.45,9.45,0,0,0,.9-2.33,26,26,0,0,0,.46-3.72C20.76,81.82,20.86,79.46,19.87,77.72Z"/><path class="cls-3" d="M57.45,167.94a.45.45,0,0,1-.45-.41c-2-19.68-8-45.49-8-45.75a.45.45,0,0,1,.34-.55.46.46,0,0,1,.55.34c.06.26,6.06,26.13,8.06,45.87a.46.46,0,0,1-.41.5Z"/><path class="cls-3" d="M29.77,166.39a.46.46,0,0,1-.46-.45c-.08-15.05,4.08-46.93,4.12-47.25a.48.48,0,0,1,.52-.4.46.46,0,0,1,.39.52c0,.32-4.19,32.13-4.11,47.12a.46.46,0,0,1-.46.46Z"/><path class="cls-2" d="M29,129.46a46.12,46.12,0,0,0,12,1.22l1.44-6.42,1.72,6.29A53.2,53.2,0,0,0,54.06,129a36.63,36.63,0,0,0,7.26-2.37c-1-7-1.89-13.21-2-15.13l-33.8-.09s-.26,2.75-.55,6.86c-.26,3.84-.68,6.11-1.16,9.86C25.61,128.72,27.53,129.08,29,129.46Z"/><path class="cls-3" d="M39.82,130.91A44.59,44.59,0,0,1,29,129.68c-.46-.12-1-.23-1.48-.35a37.56,37.56,0,0,1-3.7-1,.22.22,0,0,1-.15-.24c.13-1.08.26-2,.39-2.93.31-2.24.57-4.18.77-6.91.28-4.07.54-6.85.54-6.88a.23.23,0,0,1,.23-.2l33.8.09a.22.22,0,0,1,.23.22c0,1.68.71,6.76,1.94,15.11a.21.21,0,0,1-.12.23,31.72,31.72,0,0,1-6.57,2.2l-.73.19a52.91,52.91,0,0,1-9.92,1.54.22.22,0,0,1-.24-.17l-1.47-5.41-1.24,5.53a.22.22,0,0,1-.22.17ZM24.12,128c1.14.37,2.37.65,3.47.89l1.49.36a44.24,44.24,0,0,0,10.74,1.22h1l1.4-6.24a.23.23,0,0,1,.22-.18.25.25,0,0,1,.23.16l1.67,6.12A51.67,51.67,0,0,0,54,128.79l.74-.19a32.56,32.56,0,0,0,6.33-2.08c-1.18-7.93-1.82-12.9-1.92-14.77l-33.37-.1c-.07.72-.29,3.23-.53,6.66-.19,2.75-.46,4.69-.77,7C24.37,126.1,24.24,127,24.12,128Z"/><path class="cls-5" d="M35.73,116.07c5.89,1.26,12.38,2.63,18.4,1.59a35.83,35.83,0,0,1,1.73,6.85l.57,3.88a24.93,24.93,0,0,0,4.89-1.74c-1-7-1.89-13.21-2-15.13l-33.8-.09s0,.17,0,.47A28.94,28.94,0,0,0,35.73,116.07Z"/><path class="cls-5" d="M36,123.49a21.22,21.22,0,0,1-3.7-1.26A36.75,36.75,0,0,0,37.94,125a19.18,19.18,0,0,1-.73,5.59c1.26.07,2.54.09,3.82.07l1.44-6.42A63.4,63.4,0,0,1,36,123.49Z"/><path class="cls-2" d="M56.23,117a8.21,8.21,0,0,0,4.15,3.17c-.57-4.11-1-7.35-1-8.64H54.78A10.22,10.22,0,0,0,56.23,117Z"/><path class="cls-3" d="M60.38,120.39h-.06A8.52,8.52,0,0,1,56,117.11a10.54,10.54,0,0,1-1.48-5.6.23.23,0,0,1,.06-.16.23.23,0,0,1,.17-.07h4.59a.22.22,0,0,1,.23.22c0,1.18.37,4.08,1,8.62a.24.24,0,0,1-.08.21A.27.27,0,0,1,60.38,120.39ZM55,111.74a10,10,0,0,0,1.41,5.13,8.2,8.2,0,0,0,3.68,3c-.56-4.09-.88-6.81-1-8.08Z"/><path class="cls-2" d="M27.83,118.7c2.17-1.52,3-4.53,2.8-7.26H25.57s-.26,2.75-.55,6.86c0,.67-.09,1.28-.15,1.87A12.51,12.51,0,0,0,27.83,118.7Z"/><path class="cls-3" d="M24.87,120.39a.24.24,0,0,1-.14,0,.24.24,0,0,1-.09-.2c.06-.59.11-1.2.16-1.86.28-4.07.54-6.85.54-6.88a.23.23,0,0,1,.23-.2h5.06a.21.21,0,0,1,.22.21c.21,2.49-.45,5.76-2.89,7.47a12.6,12.6,0,0,1-3,1.48Zm.91-8.74c-.07.72-.29,3.23-.53,6.66,0,.53-.08,1-.12,1.51a12,12,0,0,0,2.57-1.31c1.83-1.28,2.89-4,2.71-6.84Z"/><path class="cls-2" d="M48.11,78.13a5.55,5.55,0,0,1,3.49-1.74,22.23,22.23,0,0,1,3.91-.19c5.66.09,10.54.23,10.54.23s3.63,6.75,1,12.72c-1.6-.15-3.21-.34-4.81-.56A38.84,38.84,0,0,1,54.11,87a11.45,11.45,0,0,1-5-3.48c-.88-1.11-1.81-2.65-1.57-4.12A2.62,2.62,0,0,1,48.11,78.13Z"/><path class="cls-3" d="M67,89.38h0c-1.52-.14-3.09-.32-4.82-.55l-.67-.09A34.94,34.94,0,0,1,54,87.18,11.6,11.6,0,0,1,49,83.63c-1.28-1.61-1.82-3.06-1.62-4.3A2.93,2.93,0,0,1,47.93,78a5.72,5.72,0,0,1,3.63-1.82A18.41,18.41,0,0,1,54.69,76h.82c5.6.09,10.5.22,10.55.23a.21.21,0,0,1,.19.12c0,.07,3.65,6.92,1,12.92A.23.23,0,0,1,67,89.38Zm-12.31-13a19.41,19.41,0,0,0-3,.19,5.56,5.56,0,0,0-3.35,1.66,2.49,2.49,0,0,0-.49,1.13c-.18,1.12.34,2.44,1.53,3.95a11.12,11.12,0,0,0,4.86,3.4,34.35,34.35,0,0,0,7.36,1.52l.67.09c1.66.23,3.18.41,4.64.54,2.29-5.33-.5-11.34-1-12.25-.83,0-5.33-.15-10.4-.22Z"/><path class="cls-5" d="M56.11,82.86a42.43,42.43,0,0,0-4.93-6.39,5.23,5.23,0,0,0-3.07,1.66,2.62,2.62,0,0,0-.53,1.24c-.24,1.47.69,3,1.57,4.12a11.45,11.45,0,0,0,5,3.48,25.4,25.4,0,0,0,4.68,1.14C58,86.32,57.09,84.56,56.11,82.86Z"/><path class="cls-2" d="M64.29,88.86l2.71.29c2.68-6-1-12.72-1-12.72l-3.13-.08C61.19,80.16,62,85.14,64.29,88.86Z"/><path class="cls-3" d="M67,89.38h0c-.9-.08-1.81-.18-2.71-.29a.19.19,0,0,1-.17-.1c-2.49-4.11-3-9.1-1.39-12.73a.21.21,0,0,1,.22-.13l3.13.08a.21.21,0,0,1,.19.12c0,.07,3.65,6.92,1,12.92A.23.23,0,0,1,67,89.38Zm-2.57-.74c.81.1,1.62.19,2.43.26,2.29-5.33-.5-11.34-1-12.25l-2.84-.07C61.57,80,62.1,84.74,64.43,88.64Z"/><path class="cls-2" d="M66.87,89.13a11.22,11.22,0,0,1-1.14-2.65,26.06,26.06,0,0,1-.58-3.73c-.16-2.06-.3-4.52.85-6.33h0s3.63,6.75,1,12.72Z"/><path class="cls-3" d="M67,89.38h0l-.15,0a.2.2,0,0,1-.16-.12l-.16-.29a10,10,0,0,1-1-2.41,24.59,24.59,0,0,1-.59-3.76c-.15-1.92-.34-4.54.89-6.47a.21.21,0,0,1,.21-.1.23.23,0,0,1,.23.12c0,.07,3.65,6.92,1,12.92A.23.23,0,0,1,67,89.38ZM66,76.86c-.94,1.77-.76,4.13-.63,5.87a23.62,23.62,0,0,0,.58,3.7,9.11,9.11,0,0,0,1,2.3v0C69,83.77,66.67,78.25,66,76.86Z"/><path class="cls-2" d="M33.2,114.4a56.58,56.58,0,0,0,12.19.52c4.75-.46,10.44-.75,15.26-2.57C58.76,88.91,50.44,74.47,45.73,72.21c-5.15-2.45-9.39,2.1-9.39,2.1-9.18,12-11.47,27.64-12,37.2C26.45,113.62,30.58,114.06,33.2,114.4Z"/><path class="cls-3" d="M41.88,115.3h0a72,72,0,0,1-8.71-.68l-.31,0c-2.63-.33-6.59-.82-8.63-2.91a.23.23,0,0,1-.07-.17c.53-10.56,3-25.6,12-37.33a9.71,9.71,0,0,1,6.48-2.91,7.28,7.28,0,0,1,3.19.75c2.66,1.26,6,5.95,8.64,12.24,2.34,5.49,5.35,14.82,6.42,28.09a.25.25,0,0,1-.15.23c-4.21,1.59-9.09,2-13.4,2.4l-1.92.17C44.31,115.25,43.12,115.3,41.88,115.3Zm-17.25-3.88c1.94,1.91,5.75,2.39,8.28,2.71l.32,0a71,71,0,0,0,8.65.67h0c1.22,0,2.4,0,3.49-.15l1.92-.18c4.22-.37,9-.79,13.11-2.31-2-24.06-10.58-37.78-14.77-39.78a7,7,0,0,0-3-.7,9.39,9.39,0,0,0-6.12,2.75C27.66,86,25.16,100.93,24.63,111.42Z"/><path class="cls-5" d="M49.76,86.29A177.54,177.54,0,0,1,54.18,114a32.41,32.41,0,0,0,6.47-1.61C58.76,88.91,50.44,74.47,45.73,72.21c-.23-.1-.45-.18-.67-.26A85,85,0,0,1,49.76,86.29Z"/><polygon class="cls-2" points="36.12 73.19 32.99 78.21 40.71 79.92 42.24 75.92 44.28 79.94 51.69 77.76 48.88 73.54 36.12 73.19"/><path class="cls-3" d="M44.28,80.16a.22.22,0,0,1-.21-.12l-1.8-3.56L40.92,80a.24.24,0,0,1-.26.14l-7.72-1.72a.25.25,0,0,1-.16-.14.21.21,0,0,1,0-.2l3.13-5a.22.22,0,0,1,.2-.11l12.75.35a.23.23,0,0,1,.19.1l2.81,4.23a.2.2,0,0,1,0,.2.21.21,0,0,1-.15.14l-7.41,2.18ZM33.36,78.05l7.2,1.61L42,75.84a.21.21,0,0,1,.2-.15.24.24,0,0,1,.21.12l2,3.85,6.93-2-2.57-3.86-12.5-.34Z"/><path class="cls-6" d="M16.77,58.42C5.48,57.8,7.83,47,13,46.91a7.19,7.19,0,0,1,6,3.23s2.12,4,.49,6.86a2.49,2.49,0,0,1-1.62,1.27Z"/><path class="cls-3" d="M16.76,58.65h0C10.55,58.31,8.4,55,8.46,52s2.07-5.24,4.49-5.28h.13A7.36,7.36,0,0,1,19.14,50c.1.18,2.17,4.15.5,7.09a2.67,2.67,0,0,1-1.79,1.38l-1.05.16ZM13.08,47.14H13c-2.17,0-4,2.2-4,4.83-.05,2.79,2,5.89,7.83,6.22l1-.15a2.28,2.28,0,0,0,1.45-1.15c1.55-2.73-.48-6.6-.5-6.64A7,7,0,0,0,13.08,47.14Z"/><path class="cls-6" d="M69.11,64.46c11.12,2,11.3-9.1,6.33-10.34a7.2,7.2,0,0,0-6.57,1.78s-3,3.4-2.05,6.56a2.5,2.5,0,0,0,1.3,1.61Z"/><path class="cls-3" d="M71.57,64.92h0a14.81,14.81,0,0,1-2.5-.23l-1-.41a2.68,2.68,0,0,1-1.43-1.76c-.95-3.24,2-6.63,2.09-6.77a7.54,7.54,0,0,1,5.1-2.06,7.21,7.21,0,0,1,1.71.21c2.18.55,3.58,3,3.25,5.64S76.37,64.94,71.57,64.92Zm2.22-10.78A7.17,7.17,0,0,0,69,56.06s-2.87,3.34-2,6.34a2.31,2.31,0,0,0,1.16,1.46l1,.39a15.27,15.27,0,0,0,2.38.22c4.5,0,6.42-2.57,6.72-5s-.94-4.66-2.9-5.15A6.87,6.87,0,0,0,73.79,54.14Z"/><path class="cls-6" d="M74.73,49.1A30.18,30.18,0,1,1,48.18,15.93,30,30,0,0,1,74.73,49.1Z"/><path class="cls-3" d="M44.77,75.78a31.05,31.05,0,0,1-3.47-.2A30.35,30.35,0,0,1,21,64.35a29.8,29.8,0,0,1-6.4-22.19A30.19,30.19,0,0,1,44.74,15.5a28.85,28.85,0,0,1,3.47.21,30.12,30.12,0,0,1-3.44,60.07Zm0-59.82A29.74,29.74,0,0,0,15,42.21a29.32,29.32,0,0,0,6.31,21.85,29.81,29.81,0,1,0,26.84-47.9A30,30,0,0,0,44.74,16Z"/><path class="cls-7" d="M48.18,15.93A29.91,29.91,0,1,0,74.73,49.1,30,30,0,0,0,48.18,15.93Zm13.74,51c-8,6.92-19.36,7.58-29.07,4-3.81-1.42-8.18-4.27-9.12-8.5-1-4.4,2.48-6.67,5.8-8.59a90.44,90.44,0,0,1,11.16-5.53c4.47-1.84,9.38-3.72,14.3-2.94,5.56.88,11.59,5.82,11.9,11.76C67.08,60.83,64.65,64.55,61.92,66.91Z"/><path class="cls-3" d="M72.23,62.24a.18.18,0,0,1-.15-.18c0-.11-.08-2.69,1.85-3.86a2,2,0,0,1,1.77-.35,1.54,1.54,0,0,1,.87.92.18.18,0,0,1-.12.24.19.19,0,0,1-.24-.12,1.23,1.23,0,0,0-.64-.68,1.71,1.71,0,0,0-1.44.32c-1.73,1-1.67,3.49-1.66,3.52a.21.21,0,0,1-.19.2Z"/><path class="cls-3" d="M73.79,61.21a1.21,1.21,0,0,1-.68-.35,1.67,1.67,0,0,1-.29-1.55.21.21,0,0,1,.23-.15.18.18,0,0,1,.15.23,1.32,1.32,0,0,0,.19,1.2,1.26,1.26,0,0,0,1,.26.19.19,0,0,1,.22.15.2.2,0,0,1-.16.23A1.91,1.91,0,0,1,73.79,61.21Z"/><path class="cls-3" d="M14.29,55.61a.2.2,0,0,0,.19-.14c0-.11.69-2.61-.92-4.19a2.08,2.08,0,0,0-1.65-.74,1.59,1.59,0,0,0-1.06.7.2.2,0,0,0,.07.26.2.2,0,0,0,.27-.06,1.17,1.17,0,0,1,.77-.52,1.72,1.72,0,0,1,1.33.64c1.44,1.41.83,3.78.82,3.8a.19.19,0,0,0,.14.24Z"/><path class="cls-3" d="M13,54.25a1.23,1.23,0,0,0,.74-.19,1.66,1.66,0,0,0,.63-1.44.19.19,0,1,0-.38,0,1.34,1.34,0,0,1-.46,1.13,1.21,1.21,0,0,1-1,0,.2.2,0,0,0-.15.36A1.77,1.77,0,0,0,13,54.25Z"/><path class="cls-8" d="M81.94,37a93,93,0,0,0-6-7.44A52,52,0,0,0,69.2,23c-.52-.41-1-.78-1.57-1.12A40.3,40.3,0,0,0,57,16.39c-5.88-2-12.4-3.67-18.65-2.36a23.2,23.2,0,0,0-5.27,1.84l-.39.09A27.8,27.8,0,0,0,20.14,22.5a58.25,58.25,0,0,0-9.79,11.77c-1.47,2.32-2.43,4.84-3.74,7.23-.41.76-.58,1.16-.54,1.42,4.65,1.81,8.29,6.3,10.22,10.83a10.81,10.81,0,0,0,2.48-.47,9.48,9.48,0,0,1,2.57-6.36c.38-.39-.35,4.11-.13,5.95l2.08-.27.48,0c.7-.07,2.65-.28,3.36-.33a16.59,16.59,0,0,1,2.47-8c.26-.41-.13,5.42.21,8,1.3-.06,2.6-.11,3.89-.18l2.23-.09c.15-1.9.59-3.77.7-5.69,0-.56.43,3.73.75,5.58,2.78-.1,6.4-.15,9.19-.16-.06-2,0-4.08.06-6.12a31.68,31.68,0,0,1,1.39,6c2.17,0,5.42.15,7.58.24.74,0,1.49.06,2.23.08,0-1.1-.94-5.76-1-7,0-.42,3.63,4.39,3.84,7.13.93,0,3.37,0,4.29.08,0-2.5-1.33-8.08-1.09-7.79a13,13,0,0,1,2.55,7.93l3.73.23a11.14,11.14,0,0,0,1.33-5.15c0-.48,1.68,3.63,1.38,5.5A9,9,0,0,0,74,53a8.38,8.38,0,0,1,1.18-2.44A15.88,15.88,0,0,1,79,46.17a23.62,23.62,0,0,1,6.55-3.69A43,43,0,0,0,81.94,37Z"/><path class="cls-3" d="M16.34,54h-.06a.24.24,0,0,1-.21-.14C13.91,48.75,10.14,44.75,6,43.14A.25.25,0,0,1,5.84,43c0-.31.1-.71.57-1.56s1-2,1.46-2.92a42.63,42.63,0,0,1,2.28-4.32A58.74,58.74,0,0,1,20,22.32a28,28,0,0,1,12.63-6.58l.39-.09a22.4,22.4,0,0,1,5.27-1.84,23.35,23.35,0,0,1,4.81-.48c5.07,0,10.13,1.53,14,2.84a40.3,40.3,0,0,1,10.7,5.56,17.68,17.68,0,0,1,1.58,1.12,52.61,52.61,0,0,1,6.74,6.51,90.15,90.15,0,0,1,6,7.46l.79,1.1a32,32,0,0,1,2.85,4.46.21.21,0,0,1,0,.19.2.2,0,0,1-.13.12,24,24,0,0,0-6.49,3.66,15.51,15.51,0,0,0-3.75,4.35l-.11.17a7.56,7.56,0,0,0-1,2.2.24.24,0,0,1-.25.18c-.4,0-.82-.14-1.22-.23a.22.22,0,0,1-.17-.26,11.73,11.73,0,0,0-1-4.75,10.13,10.13,0,0,1-1.29,4.56.27.27,0,0,1-.21.1l-.54,0-3.19-.19a.24.24,0,0,1-.22-.22,13.37,13.37,0,0,0-2-7.16c.05.31.12.67.19,1a47.35,47.35,0,0,1,.82,5.9.2.2,0,0,1,0,.07.24.24,0,0,1-.24.23h0l-2.52,0-1.77,0A.23.23,0,0,1,60.4,52c-.17-2.08-2.38-5.37-3.31-6.55.09.64.24,1.53.39,2.46.27,1.59.55,3.23.58,3.92a.19.19,0,0,1,0,.07.23.23,0,0,1-.23.23h0c-.75,0-1.49,0-2.24-.08-3.35-.14-5.9-.23-7.57-.24a.23.23,0,0,1-.22-.2,39.07,39.07,0,0,0-1-4.76c0,1.54-.07,3.16,0,4.8a.23.23,0,0,1-.06.16.23.23,0,0,1-.17.07c-2.5,0-6.22.06-9.19.17a.23.23,0,0,1-.23-.19c-.16-.94-.34-2.48-.48-3.73-.06.39-.12.78-.17,1.17-.14.86-.27,1.76-.34,2.65a.24.24,0,0,1-.22.21l-.74,0-1.49.06c-1,.06-2.08.1-3.12.15l-.77,0a.21.21,0,0,1-.23-.2,47.14,47.14,0,0,1-.14-5.68c0-.62,0-1.25,0-1.69a16.51,16.51,0,0,0-2.11,7.39.24.24,0,0,1-.22.21c-.43,0-1.33.12-2.13.2l-1.22.12-.49,0-2.06.27a.25.25,0,0,1-.17,0A.24.24,0,0,1,21,52.9,25,25,0,0,1,21.11,49c.05-.56.1-1.17.11-1.56A9.43,9.43,0,0,0,19,53.29a.23.23,0,0,1-.17.22l-.56.13A8,8,0,0,1,16.34,54ZM6.3,42.77c4.17,1.67,7.94,5.68,10.14,10.75a8.79,8.79,0,0,0,1.71-.32l.39-.1a9.76,9.76,0,0,1,2.64-6.34.31.31,0,0,1,.21-.09.25.25,0,0,1,.19.08c.15.16.13.54,0,2.24a27.53,27.53,0,0,0-.15,3.63l1.84-.25.49,0L25,52.22c.7-.08,1.48-.16,2-.19a16.53,16.53,0,0,1,2.49-8,.27.27,0,0,1,.39,0c.13.13.14.39.11,2.53A50,50,0,0,0,30,52l.55,0,3.12-.14,1.49-.07.54,0c.07-.84.2-1.67.32-2.48.15-1,.3-2,.36-3,0-.12.12-.27.24-.27s.24,0,.48,2.09c.13,1.16.3,2.59.45,3.54,2.84-.1,6.33-.15,8.77-.16-.05-2,0-4,.06-5.89a.26.26,0,0,1,.24-.25c.48,0,1.4,4.85,1.58,6.07,1.68,0,4.16.09,7.39.24l2,.07c-.06-.75-.32-2.3-.56-3.68s-.43-2.54-.48-3.12a.29.29,0,0,1,.07-.2.23.23,0,0,1,.18-.08c.55,0,3.68,4.7,4,7.17l1.55,0,2.29.05a45.89,45.89,0,0,0-.81-5.66c-.34-1.87-.34-1.93-.23-2.06a.27.27,0,0,1,.37,0A13,13,0,0,1,66.59,52l3,.19.4,0a11,11,0,0,0,1.22-4.94.29.29,0,0,1,.25-.25.28.28,0,0,1,.21.11,12.72,12.72,0,0,1,1.4,5.49l.77.15a8.9,8.9,0,0,1,1.06-2.14l.11-.17A15.76,15.76,0,0,1,78.86,46a24.48,24.48,0,0,1,6.37-3.64,34.73,34.73,0,0,0-2.69-4.17c-.27-.37-.54-.73-.79-1.1a91,91,0,0,0-6-7.42,52.25,52.25,0,0,0-6.67-6.45,17.81,17.81,0,0,0-1.56-1.1A39.94,39.94,0,0,0,56.91,16.6c-3.81-1.3-8.82-2.79-13.83-2.81a22.46,22.46,0,0,0-4.71.47,22.23,22.23,0,0,0-5.21,1.82l-.43.11A27.44,27.44,0,0,0,20.3,22.66a58,58,0,0,0-9.76,11.73,40.84,40.84,0,0,0-2.26,4.28c-.46,1-.94,2-1.47,2.94A4.76,4.76,0,0,0,6.3,42.77Z"/><path class="cls-9" d="M6.5,42.57A51.64,51.64,0,0,1,11.66,40,55.45,55.45,0,0,1,23,36.53,101.71,101.71,0,0,1,46.7,34.68c13,.5,25.39,3.77,37.4,8.38.48-.21,1-.41,1.45-.58A43,43,0,0,0,81.94,37a93,93,0,0,0-6-7.44A52,52,0,0,0,69.2,23c-.52-.41-1-.78-1.57-1.12A40.3,40.3,0,0,0,57,16.39c-5.88-2-12.4-3.67-18.65-2.36a23.2,23.2,0,0,0-5.27,1.84l-.39.09A27.8,27.8,0,0,0,20.14,22.5a58.25,58.25,0,0,0-9.79,11.77c-1.47,2.32-2.43,4.84-3.74,7.23a3.35,3.35,0,0,0-.54,1.35Z"/><path class="cls-10" d="M35.73,69.74a1.54,1.54,0,0,1-.39-.91c0-1.31,1.31-1,2.16-.74a18.46,18.46,0,0,0,5.3,1.45c1.91.07,3.82-.69,5.66-1.08.85-.18,3-.42,2.69,1.06a3.6,3.6,0,0,1-1.31,1.77,9.22,9.22,0,0,1-6.25,1.42,15.2,15.2,0,0,1-6-1.56A6.22,6.22,0,0,1,35.73,69.74Z"/><path class="cls-3" d="M44.68,73c-.36,0-.73,0-1.11,0a15.21,15.21,0,0,1-6.08-1.59,6.69,6.69,0,0,1-1.94-1.46,1.76,1.76,0,0,1-.44-1.06,1.22,1.22,0,0,1,.31-.9c.39-.4,1.1-.42,2.15-.06l1.13.41a13.22,13.22,0,0,0,4.1,1,13.47,13.47,0,0,0,4-.66c.54-.15,1.11-.3,1.66-.41a5.86,5.86,0,0,1,1.27-.14,1.88,1.88,0,0,1,1.49.5,1.15,1.15,0,0,1,.2,1A3.8,3.8,0,0,1,50,71.47,8.76,8.76,0,0,1,44.68,73Zm-8.37-4.91a.74.74,0,0,0-.56.18.79.79,0,0,0-.18.58,1.33,1.33,0,0,0,.34.77A6,6,0,0,0,37.71,71a14.77,14.77,0,0,0,5.9,1.53c.36,0,.72,0,1.08,0a8.29,8.29,0,0,0,5-1.41,3.36,3.36,0,0,0,1.23-1.64.68.68,0,0,0-.11-.58,1.51,1.51,0,0,0-1.14-.34,5.17,5.17,0,0,0-1.17.14c-.54.11-1.09.26-1.64.4a13.84,13.84,0,0,1-4.08.68,13.68,13.68,0,0,1-4.25-1.06c-.37-.14-.74-.28-1.12-.4A3.42,3.42,0,0,0,36.31,68.07Z"/><path class="cls-11" d="M43.66,70.32c-2-.22-4.57-.41-6.39.65l.33.18a15.2,15.2,0,0,0,6,1.56,10.12,10.12,0,0,0,5.34-.86A13.26,13.26,0,0,0,43.66,70.32Z"/><path class="cls-3" d="M44.66,73h0c-.36,0-.72,0-1.09,0a15.21,15.21,0,0,1-6.08-1.59l-.34-.19A.21.21,0,0,1,37,71a.22.22,0,0,1,.11-.2,7.7,7.7,0,0,1,4-.85,23,23,0,0,1,2.56.17,13.63,13.63,0,0,1,5.37,1.56.23.23,0,0,1,.11.2.23.23,0,0,1-.12.2A9.6,9.6,0,0,1,44.66,73Zm-6.91-2a14.84,14.84,0,0,0,5.86,1.51,10.25,10.25,0,0,0,4.82-.65,13.73,13.73,0,0,0-4.8-1.28,22.21,22.21,0,0,0-2.51-.17A7.93,7.93,0,0,0,37.75,71Z"/><path class="cls-12" d="M44,71.23c2.29,0,5.17-.5,5.64-2.9a5.9,5.9,0,0,0-1.15.13c-1.84.39-3.75,1.15-5.66,1.08a18.46,18.46,0,0,1-5.3-1.45,4.41,4.41,0,0,0-.55-.16C37.65,70.56,41.6,71.22,44,71.23Z"/><path class="cls-3" d="M44,71.46h0c-1.06,0-6.37-.2-7.24-3.47a.22.22,0,0,1,.05-.22.21.21,0,0,1,.22-.06,4.27,4.27,0,0,1,.57.16l1.13.41a13.22,13.22,0,0,0,4.1,1,13.58,13.58,0,0,0,4-.66c.54-.15,1.11-.3,1.66-.41a6.35,6.35,0,0,1,1.19-.14.36.36,0,0,1,.18.08.27.27,0,0,1,.05.19C49.44,70.37,47.37,71.47,44,71.46Zm-6.69-3.19c.88,2,4.07,2.72,6.66,2.73l0,.23V71c2.12,0,4.7-.42,5.32-2.43a5.1,5.1,0,0,0-.81.12c-.54.11-1.09.26-1.64.4a13.84,13.84,0,0,1-4.08.68,13.68,13.68,0,0,1-4.25-1.06c-.37-.14-.74-.28-1.12-.4Z"/><path d="M35.8,54.75c-.15.9-.76,1.56-1.36,1.46s-1-.92-.81-1.83.77-1.56,1.36-1.46S36,53.84,35.8,54.75Z"/><path d="M54,54.61c0,.92-.51,1.66-1.12,1.66s-1.1-.76-1.09-1.68.51-1.66,1.12-1.66S54,53.69,54,54.61Z"/><polygon class="cls-2" points="45.42 88.17 46.16 94.56 49.9 96.08 54.39 93.56 53.36 87.24 45.42 88.17"/><path class="cls-3" d="M49.9,96.31l-.09,0-3.73-1.51a.23.23,0,0,1-.14-.19l-.75-6.39a.23.23,0,0,1,.2-.25L53.33,87a.23.23,0,0,1,.25.19l1,6.32a.22.22,0,0,1-.12.23L50,96.28A.2.2,0,0,1,49.9,96.31ZM46.38,94.4l3.5,1.42,4.26-2.39-1-5.94-7.5.88Z"/><polygon class="cls-2" points="44.97 86.95 45.27 90.08 49.44 91.41 54.18 88.94 53.58 85.98 44.97 86.95"/><path class="cls-3" d="M49.44,91.64h-.06L45.2,90.3a.23.23,0,0,1-.16-.2L44.75,87a.21.21,0,0,1,.2-.24l8.6-1a.24.24,0,0,1,.25.19l.6,3a.23.23,0,0,1-.11.25l-4.74,2.47A.2.2,0,0,1,49.44,91.64Zm-3.95-1.73,3.93,1.25,4.5-2.35-.53-2.58-8.17.92Z"/><path class="cls-5" d="M49.89,89.47a.51.51,0,1,1-1,.24.51.51,0,1,1,1-.24Z"/><polygon class="cls-2" points="39.42 88.04 38.64 94.43 34.89 95.92 30.42 93.38 31.48 87.06 39.42 88.04"/><path class="cls-3" d="M34.89,96.15l-.11,0L30.3,93.57a.21.21,0,0,1-.11-.23L31.26,87a.23.23,0,0,1,.25-.19l7.94,1a.23.23,0,0,1,.2.25l-.79,6.39a.22.22,0,0,1-.14.18L35,96.14Zm-4.22-2.9,4.24,2.42,3.52-1.4.73-6-7.49-.93Z"/><polygon class="cls-2" points="39.87 86.82 39.55 89.95 35.37 91.25 30.65 88.76 31.27 85.81 39.87 86.82"/><path class="cls-3" d="M35.37,91.48l-.1,0L30.55,89a.23.23,0,0,1-.12-.25l.62-2.95a.22.22,0,0,1,.25-.18l8.6,1a.23.23,0,0,1,.2.25L39.78,90a.22.22,0,0,1-.16.19l-4.18,1.3Zm-4.46-2.84L35.4,91l3.94-1.23L39.62,87l-8.17-1Z"/><path class="cls-5" d="M34.94,89.31a.53.53,0,0,0,.35.65.52.52,0,0,0,.62-.4.5.5,0,0,0-.35-.64A.52.52,0,0,0,34.94,89.31Z"/><path class="cls-13" d="M33.29,167.64v-.09c.18-1.67-.64-3.43-2.46-3.62-2.5-.27-9.33.78-11.54,2.72s-.76,3.46,1.3,3.95C23.32,171.24,32.81,171.87,33.29,167.64Z"/><path class="cls-3" d="M25.38,171.29h0a24,24,0,0,1-4.84-.47,3.05,3.05,0,0,1-2.47-1.92c-.14-.55-.06-1.42,1.08-2.43,2.15-1.89,8.09-2.82,10.81-2.81a7.82,7.82,0,0,1,.9,0c2,.22,2.86,2.11,2.67,3.88v.09C33.16,170.84,28.27,171.3,25.38,171.29ZM30,164.11c-3,0-8.61,1-10.5,2.71-.77.68-1.1,1.36-.95,2a2.71,2.71,0,0,0,2.14,1.59,23.43,23.43,0,0,0,4.74.45c2.19,0,7.34-.29,7.68-3.21v-.06c.17-1.57-.55-3.22-2.25-3.41C30.57,164.13,30.29,164.11,30,164.11Z"/><path class="cls-14" d="M19.3,166.65a11.68,11.68,0,0,1,4.54-1.93A4.82,4.82,0,0,1,26.35,168a9.36,9.36,0,0,1,.17,3,24.6,24.6,0,0,1-5.92-.43C18.54,170.11,17.21,168.49,19.3,166.65Z"/><path class="cls-3" d="M25.37,171.29a23.88,23.88,0,0,1-4.83-.47,3.05,3.05,0,0,1-2.47-1.92c-.14-.55-.06-1.42,1.08-2.43a12.39,12.39,0,0,1,4.63-2,.29.29,0,0,1,.16,0A5,5,0,0,1,26.57,168a9.8,9.8,0,0,1,.18,3.07.22.22,0,0,1-.22.19C26.14,171.28,25.76,171.29,25.37,171.29ZM23.81,165a11.08,11.08,0,0,0-4.35,1.86c-.77.68-1.1,1.36-.95,2a2.71,2.71,0,0,0,2.14,1.59,25,25,0,0,0,5.66.43,9.13,9.13,0,0,0-.19-2.72A4.58,4.58,0,0,0,23.81,165Z"/><path class="cls-14" d="M25.65,169.71c-2,.08-5.51.21-7.41-1.23,0,1,1,1.81,2.36,2.12,2.72.64,12.13,1.26,12.68-2.91C31.21,169.25,28.07,169.61,25.65,169.71Z"/><path class="cls-3" d="M25.38,171.29a24,24,0,0,1-4.84-.47C19,170.46,18,169.54,18,168.48a.24.24,0,0,1,.12-.2.23.23,0,0,1,.24,0c1.09.82,2.87,1.22,5.43,1.23.66,0,1.27,0,1.84-.05,2.22-.09,5.41-.4,7.51-2a.21.21,0,0,1,.25,0,.24.24,0,0,1,.11.23C33.1,170.84,28.24,171.3,25.38,171.29ZM18.58,169a2.94,2.94,0,0,0,2.07,1.4,24.07,24.07,0,0,0,4.73.45c2,0,6.6-.25,7.53-2.61-2.17,1.35-5.14,1.63-7.25,1.72-.58,0-1.19.05-1.86,0A10.7,10.7,0,0,1,18.58,169Z"/><path class="cls-3" d="M26.63,167.49a.23.23,0,0,0,.24-.22,3.5,3.5,0,0,1,1.76-2.67.24.24,0,0,0,.1-.32.24.24,0,0,0-.32-.1,3.92,3.92,0,0,0-2,3.06.23.23,0,0,0,.22.25Z"/><path class="cls-3" d="M29.69,166.9a.22.22,0,0,0,.15-.06.24.24,0,0,0,0-.33A6.42,6.42,0,0,0,25,164.65a.24.24,0,0,0-.24.24q0,.21.24.24h.19a6.1,6.1,0,0,1,4.29,1.69A.25.25,0,0,0,29.69,166.9Z"/><path class="cls-13" d="M54.33,167.7a.28.28,0,0,0,0-.09c-.17-1.67.66-3.43,2.49-3.61,2.5-.26,9.32.83,11.52,2.78s.74,3.47-1.32,3.94C64.28,171.35,54.79,171.93,54.33,167.7Z"/><path class="cls-3" d="M62.22,171.39c-2.88,0-7.77-.49-8.12-3.66v-.06c-.18-1.8.68-3.69,2.69-3.9a7.82,7.82,0,0,1,.9,0c2.72,0,8.65,1,10.79,2.88,1.14,1,1.21,1.88,1.07,2.43A3.08,3.08,0,0,1,67.07,171,23.82,23.82,0,0,1,62.22,171.39Zm-4.54-7.2a7.13,7.13,0,0,0-.85,0c-1.7.17-2.43,1.82-2.28,3.36v.08c.32,2.93,5.47,3.26,7.66,3.26A23,23,0,0,0,67,170.5a2.67,2.67,0,0,0,2.15-1.57,2.12,2.12,0,0,0-.93-2C66.29,165.28,60.71,164.2,57.68,164.19Z"/><path class="cls-14" d="M68.33,166.78a11.71,11.71,0,0,0-4.52-2,4.8,4.8,0,0,0-2.53,3.32,9.31,9.31,0,0,0-.19,3,24.8,24.8,0,0,0,5.92-.41C69.07,170.25,70.42,168.64,68.33,166.78Z"/><path class="cls-3" d="M62.23,171.39h0l-1.15,0a.24.24,0,0,1-.22-.2,9.69,9.69,0,0,1,.2-3.07,5,5,0,0,1,2.64-3.47.3.3,0,0,1,.16,0,12.31,12.31,0,0,1,4.62,2c1.14,1,1.21,1.88,1.07,2.43A3.08,3.08,0,0,1,67.07,171,24.45,24.45,0,0,1,62.23,171.39Zm-.93-.48A24.58,24.58,0,0,0,67,170.5a2.67,2.67,0,0,0,2.15-1.57,2.12,2.12,0,0,0-.93-2,11.28,11.28,0,0,0-4.35-1.88,4.57,4.57,0,0,0-2.33,3.12A9.37,9.37,0,0,0,61.3,170.91Z"/><path class="cls-14" d="M62,169.81c2,.09,5.5.24,7.42-1.19,0,1-1.06,1.8-2.38,2.1-2.72.63-12.14,1.2-12.67-3C56.41,169.32,59.54,169.69,62,169.81Z"/><path class="cls-3" d="M62.23,171.39c-2.86,0-7.72-.49-8.11-3.61a.21.21,0,0,1,.11-.23.21.21,0,0,1,.25,0c2.09,1.58,5.28,1.91,7.5,2,.57,0,1.18,0,1.84,0,2.56,0,4.34-.38,5.43-1.19a.23.23,0,0,1,.24,0,.23.23,0,0,1,.13.21c0,1.05-1,2-2.55,2.32A24.54,24.54,0,0,1,62.23,171.39Zm-7.52-3.11c.92,2.36,5.49,2.65,7.52,2.65A22.88,22.88,0,0,0,67,170.5,2.92,2.92,0,0,0,69,169.12a10.81,10.81,0,0,1-5.23,1h0c-.66,0-1.28,0-1.85-.05C59.85,169.94,56.88,169.64,54.71,168.28Z"/><path class="cls-3" d="M61,167.59a.24.24,0,0,1-.24-.23A3.55,3.55,0,0,0,59,164.68a.24.24,0,0,1,.22-.42,3.93,3.93,0,0,1,2,3.08.24.24,0,0,1-.22.25Z"/><path class="cls-3" d="M58,167a.23.23,0,0,1-.16-.06.24.24,0,0,1,0-.34,6.4,6.4,0,0,1,4.85-1.82.23.23,0,0,1,.23.24.22.22,0,0,1-.24.23h-.19a6.07,6.07,0,0,0-4.3,1.67A.23.23,0,0,1,58,167Z"/><path class="cls-13" d="M60.76,109.39c-5.9.84-22.89,2.69-36.61-1.36l-.55,4.7s20.58,5,37.68.63C61.09,112,60.93,110.71,60.76,109.39Z"/><path class="cls-3" d="M45.15,115.39h0A103.22,103.22,0,0,1,23.55,113a.23.23,0,0,1-.18-.25l.56-4.7a.19.19,0,0,1,.1-.16.21.21,0,0,1,.19,0,72.24,72.24,0,0,0,19.9,2.51,119.33,119.33,0,0,0,16.61-1.16.24.24,0,0,1,.26.2c.15,1.23.32,2.61.52,4a.24.24,0,0,1-.18.25A64.42,64.42,0,0,1,45.15,115.39Zm-21.3-2.84a103.3,103.3,0,0,0,21.29,2.39h0A65.05,65.05,0,0,0,61,113.19c-.17-1.21-.32-2.44-.45-3.54a121.34,121.34,0,0,1-16.45,1.12,73,73,0,0,1-19.77-2.44Z"/><path class="cls-15" d="M37.25,110v5.62h8.38V110Zm6.92,4.63H38.78V111h5.4Z"/><path class="cls-3" d="M37.25,115.85a.22.22,0,0,1-.23-.22V110a.22.22,0,0,1,.23-.22h8.38a.25.25,0,0,1,.16.06.23.23,0,0,1,.06.16v5.62a.23.23,0,0,1-.23.23Zm.23-5.61v5.15H45.4v-5.16Zm1.29,4.63a.22.22,0,0,1-.22-.23V111a.23.23,0,0,1,.23-.23h5.4s.12,0,.16.07a.2.2,0,0,1,.07.16v3.62a.24.24,0,0,1-.23.23h-5.4Zm.23-3.61v3.16h4.94v-3.16Z"/><polygon class="cls-2" points="54.08 109.49 52.2 109.71 52.86 115.62 54.74 115.28 54.08 109.49"/><path class="cls-3" d="M52.86,115.85a.24.24,0,0,1-.14,0,.22.22,0,0,1-.09-.16L52,109.73a.22.22,0,0,1,.2-.25l1.88-.22a.22.22,0,0,1,.17,0,.24.24,0,0,1,.09.15l.66,5.79a.23.23,0,0,1-.19.25l-1.88.34Zm-.41-5.94.61,5.44,1.43-.26-.61-5.35Z"/><polygon class="cls-2" points="29.58 108.52 27.72 108.13 26.5 113.96 28.39 114.22 29.58 108.52"/><path class="cls-3" d="M28.39,114.45h0l-1.89-.27a.22.22,0,0,1-.16-.09.28.28,0,0,1,0-.18l1.22-5.82a.23.23,0,0,1,.27-.18l1.85.39a.21.21,0,0,1,.15.09.23.23,0,0,1,0,.18l-1.19,5.7A.22.22,0,0,1,28.39,114.45Zm-1.61-.68,1.43.2,1.1-5.27-1.41-.29Z"/><path class="cls-2" d="M23.46,125.42c0,1-.55,2.1-.48,3.15,3.84,1.85,14.29,2.63,18.65,2.76a19.93,19.93,0,0,0,.42-2.9C35.55,128.09,27,126.82,23.46,125.42Z"/><path class="cls-3" d="M41.63,131.56h0c-3.85-.11-14.71-.83-18.75-2.78a.28.28,0,0,1-.13-.2,5.77,5.77,0,0,1,.25-1.74,6.09,6.09,0,0,0,.23-1.41.21.21,0,0,1,.1-.19.2.2,0,0,1,.21,0c3.63,1.44,12.44,2.67,18.52,3a.24.24,0,0,1,.22.23,21.15,21.15,0,0,1-.42,2.94A.24.24,0,0,1,41.63,131.56ZM23.2,128.42c3.58,1.65,13,2.51,18.25,2.68a22.6,22.6,0,0,0,.36-2.45c-6.07-.34-14.32-1.49-18.14-2.9a7.06,7.06,0,0,1-.23,1.2A6.35,6.35,0,0,0,23.2,128.42Z"/><path class="cls-2" d="M61.58,125.53c0,1,.53,2.15.45,3.23-3.8,1.88-14.12,2.62-18.44,2.73a20.75,20.75,0,0,1-.39-3C49.62,128.2,58.09,127,61.58,125.53Z"/><path class="cls-3" d="M43.59,131.72a.22.22,0,0,1-.22-.19,21.13,21.13,0,0,1-.4-3,.24.24,0,0,1,.22-.23c6-.29,14.72-1.51,18.3-3a.24.24,0,0,1,.22,0,.23.23,0,0,1,.1.19A6.46,6.46,0,0,0,62,127a6,6,0,0,1,.23,1.78.21.21,0,0,1-.13.19c-4,2-14.73,2.66-18.53,2.76Zm-.15-3a20.25,20.25,0,0,0,.34,2.53c5.22-.15,14.49-1,18-2.65a6.22,6.22,0,0,0-.23-1.52,10.22,10.22,0,0,1-.22-1.23C57.58,127.28,49.43,128.42,43.44,128.73Z"/><path class="cls-3" d="M42.15,110.25a.23.23,0,0,1-.23-.23L42,75.92a.23.23,0,1,1,.46,0L42.38,110A.23.23,0,0,1,42.15,110.25Z"/><path class="cls-2" d="M41.61,28.44c9.3,0,19,.3,28.07,2.34a85,85,0,0,1,9.85,2.89c0-.34,0-.68,0-1C79.74,14.91,64.31.41,45.12.23s-34.69,13.88-35,31.46C20,28.25,31.57,28.44,41.61,28.44Z"/><path class="cls-3" d="M79.53,33.9h-.07A87.24,87.24,0,0,0,69.63,31c-9-2-18.63-2.31-26.88-2.33H40.08c-9.63,0-20.54,0-29.92,3.23a.2.2,0,0,1-.21,0,.2.2,0,0,1-.09-.19A30.94,30.94,0,0,1,20.35,9.21,36.29,36.29,0,0,1,44.88,0h.24C64.41.18,80,14.82,79.81,32.64l0,.75,0,.29a.21.21,0,0,1-.1.18A.2.2,0,0,1,79.53,33.9ZM42.75,28.21c8.28,0,18,.32,27,2.35a84.25,84.25,0,0,1,9.59,2.79l0-.71C79.51,15.07,64.15.64,45.12.46h-.24A35.83,35.83,0,0,0,20.65,9.54,30.62,30.62,0,0,0,10.32,31.36c9.38-3.16,20.2-3.16,29.76-3.15Z"/><path class="cls-16" d="M76.19,25.08a92.28,92.28,0,0,0-10.32-3.65A91.49,91.49,0,0,0,43.5,17.48c-10.58-.47-21.31.4-31.31,3.79a30,30,0,0,0-2.11,10.42c9.92-3.44,21.49-3.25,31.53-3.25,9.3,0,19,.3,28.07,2.34a85,85,0,0,1,9.85,2.89c0-.34,0-.68,0-1a30,30,0,0,0-.66-6.53C78,25.78,77.05,25.46,76.19,25.08Z"/><path class="cls-3" d="M79.53,33.9h-.07A87.24,87.24,0,0,0,69.63,31c-9-2-18.63-2.31-26.88-2.33H40.08c-9.63,0-20.54,0-29.92,3.23a.2.2,0,0,1-.21,0,.2.2,0,0,1-.09-.19A30.09,30.09,0,0,1,12,21.19a.24.24,0,0,1,.14-.14,81.38,81.38,0,0,1,26.53-3.92c1.59,0,3.23.05,4.87.12a91.05,91.05,0,0,1,22.42,4,93.38,93.38,0,0,1,10.35,3.66c.74.33,1.53.61,2.36.9l.35.12a.26.26,0,0,1,.15.17,30.37,30.37,0,0,1,.67,6.58l0,.75,0,.29a.21.21,0,0,1-.1.18A.2.2,0,0,1,79.53,33.9ZM42.75,28.21c8.28,0,18,.32,27,2.35a84.25,84.25,0,0,1,9.59,2.79l0-.71a29.58,29.58,0,0,0-.63-6.36l-.23-.08c-.81-.28-1.63-.58-2.39-.91a93.77,93.77,0,0,0-10.3-3.64,90.16,90.16,0,0,0-22.31-3.94c-1.64-.08-3.27-.11-4.85-.12a80.71,80.71,0,0,0-26.28,3.86,29.76,29.76,0,0,0-2,9.91c9.38-3.16,20.2-3.16,29.76-3.15Z"/><path class="cls-5" d="M43.49,4.6c6.36,3.27,10,9.45,11.35,16.33a73.22,73.22,0,0,1,1,7.93,93.16,93.16,0,0,1,13.8,1.92,85,85,0,0,1,9.85,2.89c0-.34,0-.68,0-1C79.74,14.91,64.31.41,45.12.23A37,37,0,0,0,30.69,3,20.05,20.05,0,0,1,43.49,4.6Z"/><path class="cls-2" d="M79.45,28.77c-42.55-13.27-68.86-2-68.86-2l.06.32C3.48,32.2,1.68,41,.67,44.43,3.7,37.36,22.18,32,44.53,32c23.13.06,42.09,5.95,44,13.39C87.55,37.62,79.45,28.77,79.45,28.77Z"/><path class="cls-3" d="M88.57,45.64a.23.23,0,0,1-.22-.17c-1.93-7.35-21.18-13.16-43.82-13.22C22.66,32.19,3.9,37.46.88,44.52a.22.22,0,0,1-.28.12.23.23,0,0,1-.15-.28c.1-.33.21-.72.33-1.16C1.89,39.15,4,31.65,10.4,27l0-.17a.24.24,0,0,1,.14-.26c.1,0,10.81-4.55,29.2-4.5a135.45,135.45,0,0,1,39.82,6.47.21.21,0,0,1,.1.06c.08.09,8.15,9,9.18,16.77a.24.24,0,0,1-.18.26Zm-44-13.85c21.3.06,39.07,5,43.42,11.7C86.13,36.67,79.89,29.6,79.32,29A135,135,0,0,0,39.7,22.54c-17,0-27.41,3.82-28.85,4.39l0,.13a.23.23,0,0,1-.1.23C4.65,31.65,2.5,38.71,1.36,42.82,6.27,36.38,24.06,31.73,44.53,31.79Z"/><path class="cls-5" d="M79.45,28.77a142.93,142.93,0,0,0-23.89-5.34c1.12,3.1,2.13,6.24,3.11,9.39C75,34.67,87,39.56,88.57,45.41,87.55,37.62,79.45,28.77,79.45,28.77Z"/><path class="cls-17" d="M38.68,59.08l2.64.05-1.06-4.48a3.77,3.77,0,0,0-.1-.43l-.3-.81a4.79,4.79,0,0,0-9,1.23l-1.47,4.23,2.88.06a4.76,4.76,0,0,0,6.46.15Z"/><path class="cls-3" d="M35.52,60.5a5,5,0,0,1-3.39-1.34l-2.79-.06a.22.22,0,0,1-.18-.1.2.2,0,0,1,0-.21l1.47-4.23a5,5,0,0,1,9.47-1.25l.31.84c0,.16.08.31.11.46l1,4.4a.28.28,0,0,1,0,.12.26.26,0,0,1-.24.23h0l-2.56,0A5,5,0,0,1,35.52,60.5Zm-5.86-1.85,2.57.06a.22.22,0,0,1,.15.06,4.53,4.53,0,0,0,6.15.13.15.15,0,0,1,.15,0l2.35,0-1-4.2a4.11,4.11,0,0,0-.1-.41l-.29-.81A4.56,4.56,0,0,0,31,54.67Z"/><path class="cls-17" d="M41.68,61.07a6.32,6.32,0,1,1-6.3-6.33A6.31,6.31,0,0,1,41.68,61.07Z"/><path class="cls-3" d="M35.35,67.6a6.55,6.55,0,1,1,6.56-6.53A6.56,6.56,0,0,1,35.35,67.6Zm0-12.63a6.09,6.09,0,1,0,6.07,6.1A6.09,6.09,0,0,0,35.38,55Z"/><path class="cls-18" d="M40.56,60.81a5.19,5.19,0,1,1-5.18-5.2A5.21,5.21,0,0,1,40.56,60.81Z"/><path class="cls-3" d="M35.35,66.21a5.42,5.42,0,1,1,5.44-5.4A5.42,5.42,0,0,1,35.35,66.21Zm0-10.38a5,5,0,1,0,4.95,5A5,5,0,0,0,35.38,55.83Z"/><path class="cls-12" d="M35.28,58.23a1,1,0,0,1-1,1,1,1,0,0,1-1-1,1,1,0,0,1,2,0Z"/><path class="cls-12" d="M32.75,59.85a.72.72,0,0,1-1.43,0,.72.72,0,0,1,.72-.72A.73.73,0,0,1,32.75,59.85Z"/><path class="cls-17" d="M55.62,59.12l2.65.06L57.21,54.7c0-.15-.07-.29-.1-.43l-.3-.82a4.79,4.79,0,0,0-9.06,1.23l-1.46,4.24,2.88.06a4.73,4.73,0,0,0,6.45.14Z"/><path class="cls-3" d="M52.46,60.55a5,5,0,0,1-3.39-1.34l-2.79-.06a.22.22,0,0,1-.18-.1.26.26,0,0,1,0-.21l1.47-4.23A5,5,0,0,1,57,53.35l.31.85a4.35,4.35,0,0,1,.11.46l1,4.4a.21.21,0,0,1,0,.12.23.23,0,0,1-.23.23h0l-2.56-.06A5,5,0,0,1,52.46,60.55Zm-5.85-1.86,2.56.06a.21.21,0,0,1,.15.07,4.64,4.64,0,0,0,3.15,1.27,4.58,4.58,0,0,0,3-1.14.2.2,0,0,1,.16-.06l2.35,0-1-4.19a2.58,2.58,0,0,0-.1-.42l-.29-.8A4.56,4.56,0,0,0,48,54.72Z"/><path class="cls-17" d="M58.63,61.12a6.32,6.32,0,1,1-6.3-6.34A6.31,6.31,0,0,1,58.63,61.12Z"/><path class="cls-3" d="M52.29,67.65a6.55,6.55,0,1,1,6.56-6.53A6.56,6.56,0,0,1,52.29,67.65Zm0-12.64a6.09,6.09,0,1,0,6.07,6.11A6.1,6.1,0,0,0,52.33,55Z"/><path class="cls-18" d="M57.5,60.86a5.19,5.19,0,1,1-5.17-5.21A5.19,5.19,0,0,1,57.5,60.86Z"/><path class="cls-3" d="M52.3,66.26a5.42,5.42,0,1,1,5.43-5.4A5.43,5.43,0,0,1,52.3,66.26Zm0-10.38a5,5,0,1,0,4.94,5A5,5,0,0,0,52.33,55.88Z"/><path class="cls-12" d="M52.22,58.28a1,1,0,0,1-2,0,1,1,0,0,1,1-1A1,1,0,0,1,52.22,58.28Z"/><path class="cls-12" d="M49.69,59.9a.72.72,0,1,1-.71-.72A.71.71,0,0,1,49.69,59.9Z"/><polygon class="cls-19" points="41.22 55.05 40.63 55.54 41.02 57.23 46.86 57.24 47.21 55.56 41.22 55.05"/><path class="cls-3" d="M46.86,57.47l-5.84,0a.23.23,0,0,1-.22-.17l-.39-1.68a.23.23,0,0,1,.07-.23l.59-.5a.26.26,0,0,1,.17,0l6,.51a.26.26,0,0,1,.17.09.31.31,0,0,1,0,.19l-.35,1.68A.25.25,0,0,1,46.86,57.47ZM41.21,57h5.47l.26-1.24-5.64-.48-.42.34Z"/><polygon class="cls-17" points="39.95 53.65 47.76 53.67 47.21 55.56 40.63 55.54 39.95 53.65"/><path class="cls-3" d="M47.21,55.79l-6.58,0a.24.24,0,0,1-.22-.15l-.68-1.89a.26.26,0,0,1,0-.21.23.23,0,0,1,.19-.1l7.81,0a.21.21,0,0,1,.18.09.23.23,0,0,1,0,.2l-.55,1.89A.24.24,0,0,1,47.21,55.79Zm-6.42-.47H47l.41-1.43-7.18,0Z"/><path class="cls-3" d="M17.61,82.67a4.42,4.42,0,0,1-2.79-.77A2.59,2.59,0,0,1,14,79.55c.71-9.1,11.4-20.16,11.86-20.63a.46.46,0,0,1,.65,0,.45.45,0,0,1,0,.64c-.1.12-10.91,11.29-11.6,20.07a1.71,1.71,0,0,0,.54,1.57c1.2,1,4.14.44,5.17.14a.46.46,0,1,1,.25.88A12.62,12.62,0,0,1,17.61,82.67Z"/><path class="cls-6" d="M20.89,53.14a4,4,0,0,0-.23.34,6.46,6.46,0,0,0-.05,6.41c.69,1.46,1.56,3.57,3.08,4.33,2.11,1,4.74-.71,5.12-2.87.27-1.48.16-3.09,1-4.43a3.66,3.66,0,0,1,2.05-1.45c2-.66,3.77-3.73,1.41-5.21a6.77,6.77,0,0,0-3.77-1.35C26.45,49.18,22.83,50.48,20.89,53.14Z"/><path class="cls-3" d="M25,64.76h0a3.23,3.23,0,0,1-1.43-.34c-1.46-.72-2.31-2.55-3-4L20.41,60a6.66,6.66,0,0,1,.06-6.64,3.53,3.53,0,0,1,.24-.34c2-2.8,5.86-4.07,8.76-4.33a7.06,7.06,0,0,1,3.91,1.39,2.43,2.43,0,0,1,1.23,2.45,4.19,4.19,0,0,1-2.68,3.17A3.52,3.52,0,0,0,30,57a6.92,6.92,0,0,0-.78,3c-.05.43-.09.88-.17,1.31A4.3,4.3,0,0,1,25,64.76Zm4.72-15.63h-.23c-2.8.24-6.48,1.46-8.44,4.14l-.22.32a6.26,6.26,0,0,0,0,6.2l.19.4c.65,1.41,1.47,3.16,2.78,3.81A2.78,2.78,0,0,0,25,64.3a3.81,3.81,0,0,0,3.57-3c.07-.42.12-.86.16-1.28a7.54,7.54,0,0,1,.85-3.23,3.91,3.91,0,0,1,2.18-1.55,3.64,3.64,0,0,0,2.37-2.79,2,2,0,0,0-1-2A7.07,7.07,0,0,0,29.74,49.13Z"/><path class="cls-3" d="M25.74,58.61h0a.23.23,0,0,1-.19-.27c0-.15.7-3.74,3.41-4.91s4.47-1.58,5.18-1.16a.86.86,0,0,1,.41.68.23.23,0,0,1-.21.25.23.23,0,0,1-.25-.21.37.37,0,0,0-.18-.32c-.39-.23-1.52-.22-4.76,1.18C26.62,54.93,26,58.39,26,58.43A.22.22,0,0,1,25.74,58.61Z"/><path class="cls-3" d="M24.78,54.28a.2.2,0,0,1-.17-.08.22.22,0,0,1,0-.32c.2-.18,5.13-4.54,9.15-3.3a.22.22,0,1,1-.13.43c-3.78-1.16-8.67,3.17-8.72,3.21A.22.22,0,0,1,24.78,54.28Z"/><path class="cls-6" d="M23.91,52a9.6,9.6,0,0,1,6.87-2.92C35,49.16,23.91,52,23.91,52Z"/><path class="cls-3" d="M23.91,52.22a.24.24,0,0,1-.18-.39,9.88,9.88,0,0,1,7.06-3,.23.23,0,0,1,.22.23.21.21,0,0,1-.23.23h-.15a9.46,9.46,0,0,0-6.55,2.84A.25.25,0,0,1,23.91,52.22Z"/><path class="cls-3" d="M68.52,82.81a13.44,13.44,0,0,1-3.2-.46.47.47,0,0,1-.31-.57.46.46,0,0,1,.56-.32c1,.3,4,.86,5.17-.12a1.71,1.71,0,0,0,.55-1.56c-.64-8.77-11.38-20-11.49-20.12a.46.46,0,1,1,.66-.64c.45.47,11.08,11.59,11.75,20.69a2.62,2.62,0,0,1-.89,2.35A4.49,4.49,0,0,1,68.52,82.81Z"/><path class="cls-6" d="M65.41,53.26l.23.34a6.5,6.5,0,0,1,0,6.42c-.7,1.45-1.58,3.56-3.1,4.3-2.12,1-4.74-.73-5.11-2.89-.26-1.49-.14-3.09-1-4.43a3.7,3.7,0,0,0-2-1.47c-2-.67-3.75-3.75-1.38-5.21A6.7,6.7,0,0,1,56.83,49C59.87,49.27,63.48,50.6,65.41,53.26Z"/><path class="cls-3" d="M61.21,64.86a4.3,4.3,0,0,1-4-3.39c-.07-.44-.12-.88-.16-1.32a6.87,6.87,0,0,0-.77-3,3.47,3.47,0,0,0-1.92-1.37,4.15,4.15,0,0,1-2.67-3.19,2.45,2.45,0,0,1,1.24-2.44,7,7,0,0,1,3.93-1.36c2.89.27,6.7,1.56,8.73,4.37l.24.35a6.67,6.67,0,0,1,0,6.64l-.19.4c-.69,1.47-1.55,3.29-3,4A3.24,3.24,0,0,1,61.21,64.86ZM56.58,49.2a7.21,7.21,0,0,0-3.41,1.31,2,2,0,0,0-1,2,3.66,3.66,0,0,0,2.35,2.8,3.84,3.84,0,0,1,2.17,1.57,7.25,7.25,0,0,1,.84,3.23c0,.42.08.86.15,1.28a3.81,3.81,0,0,0,3.55,3,2.84,2.84,0,0,0,1.23-.28c1.32-.65,2.15-2.39,2.81-3.8l.19-.4a6.24,6.24,0,0,0,0-6.2,3.62,3.62,0,0,0-.22-.32c-1.94-2.69-5.61-3.93-8.41-4.18Z"/><path class="cls-3" d="M60.53,58.71a.22.22,0,0,1-.22-.19s-.64-3.5-3.12-4.59c-3.23-1.42-4.37-1.44-4.76-1.21a.4.4,0,0,0-.19.32.23.23,0,1,1-.45,0,.85.85,0,0,1,.41-.68c.72-.42,2.36,0,5.17,1.19s3.36,4.78,3.38,4.93a.23.23,0,0,1-.18.27Z"/><path class="cls-3" d="M61.51,54.38a.22.22,0,0,1-.15-.06s-4.92-4.39-8.7-3.26a.22.22,0,1,1-.13-.43c4-1.22,8.93,3.16,9.14,3.35a.24.24,0,0,1,0,.33A.24.24,0,0,1,61.51,54.38Z"/><path class="cls-6" d="M62.4,52.09a9.62,9.62,0,0,0-6.86-3C51.34,49.2,62.4,52.09,62.4,52.09Z"/><path class="cls-3" d="M62.4,52.32a.21.21,0,0,1-.17-.07,9.53,9.53,0,0,0-6.54-2.89h-.15a.23.23,0,0,1-.23-.23.22.22,0,0,1,.22-.23,9.85,9.85,0,0,1,7,3,.24.24,0,0,1,0,.33A.27.27,0,0,1,62.4,52.32Z"/></g></g></g></svg>